RecursiveSans-CasualSemiBoldItalic.ufo
<glyph name="exclam" format="1">
  <advance width="350"/>
  <unicode hex="0021"/>
  <outline>
    <contour>
      <point x="224" y="273" type="line"/>
      <point x="254" y="342"/>
      <point x="289" y="439"/>
      <point x="306" y="509" type="curve"/>
      <point x="342" y="651" type="line" smooth="yes"/>
      <point x="353" y="693"/>
      <point x="316" y="710"/>
      <point x="255" y="710" type="curve" smooth="yes"/>
      <point x="236" y="710"/>
      <point x="221" y="709"/>
      <point x="202" y="704" type="curve"/>
      <point x="201" y="669"/>
      <point x="195" y="632"/>
      <point x="185" y="593" type="curve" smooth="yes"/>
      <point x="165" y="512" type="line"/>
      <point x="142" y="419"/>
      <point x="126" y="316"/>
      <point x="140" y="297" type="curve" smooth="yes"/>
      <point x="152" y="281"/>
      <point x="176" y="273"/>
      <point x="213" y="273" type="curve"/>
    </contour>
    <contour>
      <point x="198" y="0" type="curve"/>
      <point x="226" y="112" type="line" smooth="yes"/>
      <point x="239" y="165"/>
      <point x="189" y="178"/>
      <point x="132" y="178" type="curve" smooth="yes"/>
      <point x="109" y="178"/>
      <point x="83" y="175"/>
      <point x="61" y="169" type="curve"/>
      <point x="33" y="57" type="line" smooth="yes"/>
      <point x="20" y="4"/>
      <point x="69" y="-9"/>
      <point x="127" y="-9" type="curve" smooth="yes"/>
      <point x="149" y="-9"/>
      <point x="175" y="-6"/>
    </contour>
  </outline>
</glyph>
<glyph name="dollar" format="1">
  <advance width="600"/>
  <unicode hex="0024"/>
  <outline>
    <contour>
      <point x="484" y="720" type="curve" smooth="yes"/>
      <point x="319" y="720"/>
      <point x="165" y="620"/>
      <point x="135" y="499" type="curve" smooth="yes"/>
      <point x="132" y="487" type="line" smooth="yes"/>
      <point x="125" y="460"/>
      <point x="175" y="433"/>
      <point x="234" y="431" type="curve"/>
      <point x="233" y="453"/>
      <point x="238" y="476"/>
      <point x="243" y="497" type="curve" smooth="yes"/>
      <point x="260" y="562"/>
      <point x="370" y="604"/>
      <point x="462" y="604" type="curve" smooth="yes"/>
      <point x="525" y="604"/>
      <point x="559" y="591"/>
      <point x="588" y="566" type="curve"/>
      <point x="592" y="566" type="line"/>
      <point x="607" y="587"/>
      <point x="617" y="608"/>
      <point x="622" y="627" type="curve" smooth="yes"/>
      <point x="627" y="648"/>
      <point x="630" y="668"/>
      <point x="618" y="685" type="curve" smooth="yes"/>
      <point x="601" y="707"/>
      <point x="555" y="720"/>
    </contour>
    <contour>
      <point x="409" y="365" type="curve" smooth="yes"/>
      <point x="326" y="398" type="line" smooth="yes"/>
      <point x="243" y="431"/>
      <point x="234" y="460"/>
      <point x="243" y="497" type="curve" smooth="yes"/>
      <point x="250" y="524"/>
      <point x="257" y="543"/>
      <point x="269" y="567" type="curve"/>
      <point x="206" y="563"/>
      <point x="146" y="543"/>
      <point x="132" y="487" type="curve" smooth="yes"/>
      <point x="115" y="420"/>
      <point x="132" y="357"/>
      <point x="267" y="301" type="curve" smooth="yes"/>
      <point x="349" y="268" type="line" smooth="yes"/>
      <point x="416" y="240"/>
      <point x="432" y="208"/>
      <point x="416" y="143" type="curve" smooth="yes"/>
      <point x="413" y="129"/>
      <point x="411" y="124"/>
      <point x="410" y="120" type="curve"/>
      <point x="455" y="122"/>
      <point x="520" y="159"/>
      <point x="528" y="188" type="curve"/>
      <point x="542" y="247"/>
      <point x="521" y="320"/>
    </contour>
    <contour>
      <point x="229" y="-17" type="curve" smooth="yes"/>
      <point x="388" y="-17"/>
      <point x="497" y="66"/>
      <point x="525" y="176" type="curve" smooth="yes"/>
      <point x="528" y="188" type="line" smooth="yes"/>
      <point x="533" y="208"/>
      <point x="497" y="233"/>
      <point x="467" y="235" type="curve"/>
      <point x="466" y="231"/>
      <point x="465" y="228"/>
      <point x="464" y="221" type="curve" smooth="yes"/>
      <point x="447" y="153"/>
      <point x="358" y="98"/>
      <point x="258" y="98" type="curve" smooth="yes"/>
      <point x="154" y="98"/>
      <point x="90" y="129"/>
      <point x="50" y="188" type="curve"/>
      <point x="46" y="188" type="line"/>
      <point x="39" y="173"/>
      <point x="31" y="156"/>
      <point x="26" y="134" type="curve" smooth="yes"/>
      <point x="15" y="91"/>
      <point x="19" y="60"/>
      <point x="32" y="42" type="curve" smooth="yes"/>
      <point x="59" y="6"/>
      <point x="135" y="-17"/>
    </contour>
    <contour>
      <point x="395" y="426" type="line"/>
      <point x="553" y="790" type="line" smooth="yes"/>
      <point x="581" y="851"/>
      <point x="566" y="885"/>
      <point x="507" y="885" type="curve" smooth="yes"/>
      <point x="494" y="885"/>
      <point x="472" y="882"/>
      <point x="458" y="877" type="curve"/>
      <point x="460" y="850"/>
      <point x="460" y="824"/>
      <point x="447" y="782" type="curve"/>
      <point x="356" y="468" type="line" smooth="yes"/>
      <point x="348" y="442"/>
      <point x="368" y="426"/>
      <point x="391" y="426" type="curve" smooth="yes"/>
    </contour>
    <contour>
      <point x="268" y="241" type="line"/>
      <point x="117" y="-100" type="line" smooth="yes"/>
      <point x="88" y="-161"/>
      <point x="104" y="-195"/>
      <point x="163" y="-195" type="curve" smooth="yes"/>
      <point x="176" y="-195"/>
      <point x="198" y="-192"/>
      <point x="212" y="-187" type="curve"/>
      <point x="210" y="-160"/>
      <point x="210" y="-134"/>
      <point x="222" y="-92" type="curve"/>
      <point x="307" y="199" type="line" smooth="yes"/>
      <point x="314" y="226"/>
      <point x="294" y="241"/>
      <point x="272" y="241" type="curve" smooth="yes"/>
    </contour>
  </outline>
</glyph>
<glyph name="quotesingle" format="1">
  <advance width="250"/>
  <unicode hex="0027"/>
  <outline>
    <contour>
      <point x="230" y="443" type="curve"/>
      <point x="295" y="652" type="line" smooth="yes"/>
      <point x="317" y="722"/>
      <point x="292" y="754"/>
      <point x="212" y="754" type="curve" smooth="yes"/>
      <point x="198" y="754"/>
      <point x="185" y="753"/>
      <point x="171" y="750" type="curve"/>
      <point x="174" y="726"/>
      <point x="172" y="704"/>
      <point x="162" y="651" type="curve" smooth="yes"/>
      <point x="132" y="491" type="line" smooth="yes"/>
      <point x="125" y="454"/>
      <point x="141" y="439"/>
      <point x="188" y="439" type="curve" smooth="yes"/>
      <point x="204" y="439"/>
      <point x="219" y="441"/>
    </contour>
  </outline>
</glyph>
<glyph name="parenleft" format="1">
  <advance width="400"/>
  <unicode hex="0028"/>
  <outline>
    <contour>
      <point x="357" y="734" type="curve" smooth="yes"/>
      <point x="229" y="631"/>
      <point x="134" y="476"/>
      <point x="90" y="302" type="curve" smooth="yes"/>
      <point x="88" y="295" type="line" smooth="yes"/>
      <point x="45" y="122"/>
      <point x="63" y="-35"/>
      <point x="140" y="-136" type="curve" smooth="yes"/>
      <point x="158" y="-161"/>
      <point x="178" y="-173"/>
      <point x="206" y="-173" type="curve" smooth="yes"/>
      <point x="247" y="-173"/>
      <point x="281" y="-160"/>
      <point x="307" y="-145" type="curve"/>
      <point x="308" y="-141" type="line"/>
      <point x="201" y="-30"/>
      <point x="175" y="127"/>
      <point x="218" y="295" type="curve" smooth="yes"/>
      <point x="219" y="302" type="line" smooth="yes"/>
      <point x="261" y="470"/>
      <point x="365" y="627"/>
      <point x="528" y="738" type="curve"/>
      <point x="529" y="742" type="line"/>
      <point x="511" y="758"/>
      <point x="483" y="770"/>
      <point x="441" y="770" type="curve" smooth="yes"/>
      <point x="414" y="770"/>
      <point x="389" y="759"/>
    </contour>
  </outline>
</glyph>
<glyph name="parenright" format="1">
  <advance width="400"/>
  <unicode hex="0029"/>
  <outline>
    <contour>
      <point x="59" y="-134" type="curve" smooth="yes"/>
      <point x="187" y="-31"/>
      <point x="283" y="124"/>
      <point x="326" y="298" type="curve" smooth="yes"/>
      <point x="328" y="305" type="line" smooth="yes"/>
      <point x="371" y="478"/>
      <point x="353" y="635"/>
      <point x="277" y="736" type="curve" smooth="yes"/>
      <point x="258" y="761"/>
      <point x="238" y="773"/>
      <point x="211" y="773" type="curve" smooth="yes"/>
      <point x="169" y="773"/>
      <point x="135" y="760"/>
      <point x="109" y="745" type="curve"/>
      <point x="108" y="741" type="line"/>
      <point x="215" y="630"/>
      <point x="241" y="473"/>
      <point x="199" y="305" type="curve" smooth="yes"/>
      <point x="197" y="298" type="line" smooth="yes"/>
      <point x="155" y="130"/>
      <point x="52" y="-27"/>
      <point x="-112" y="-138" type="curve"/>
      <point x="-113" y="-142" type="line"/>
      <point x="-94" y="-158"/>
      <point x="-67" y="-170"/>
      <point x="-25" y="-170" type="curve" smooth="yes"/>
      <point x="2" y="-170"/>
      <point x="28" y="-159"/>
    </contour>
  </outline>
</glyph>
<glyph name="asterisk" format="1">
  <advance width="500"/>
  <unicode hex="002A"/>
  <outline>
    <contour>
      <point x="321" y="763" type="curve"/>
      <point x="324" y="743"/>
      <point x="325" y="725"/>
      <point x="321" y="696" type="curve" smooth="yes"/>
      <point x="303" y="555" type="line"/>
      <point x="245" y="420" type="line" smooth="yes"/>
      <point x="222" y="371"/>
      <point x="233" y="341"/>
      <point x="283" y="341" type="curve"/>
      <point x="295" y="341"/>
      <point x="309" y="344"/>
      <point x="322" y="348" type="curve"/>
      <point x="320" y="368"/>
      <point x="319" y="386"/>
      <point x="322" y="414" type="curve" smooth="yes"/>
      <point x="342" y="555" type="line"/>
      <point x="399" y="691" type="line" smooth="yes"/>
      <point x="422" y="742"/>
      <point x="410" y="770"/>
      <point x="360" y="770" type="curve" smooth="yes"/>
      <point x="349" y="770"/>
      <point x="335" y="768"/>
    </contour>
    <contour>
      <point x="518" y="698" type="curve"/>
      <point x="313" y="574" type="line"/>
      <point x="140" y="508" type="line" smooth="yes"/>
      <point x="114" y="498"/>
      <point x="104" y="471"/>
      <point x="113" y="443" type="curve"/>
      <point x="117" y="432"/>
      <point x="122" y="424"/>
      <point x="127" y="416" type="curve"/>
      <point x="332" y="541" type="line"/>
      <point x="506" y="607" type="line" smooth="yes"/>
      <point x="532" y="617"/>
      <point x="541" y="642"/>
      <point x="532" y="672" type="curve" smooth="yes"/>
      <point x="529" y="681"/>
      <point x="526" y="688"/>
    </contour>
    <contour>
      <point x="508" y="489" type="curve"/>
      <point x="340" y="574" type="line"/>
      <point x="225" y="679" type="line" smooth="yes"/>
      <point x="208" y="695"/>
      <point x="183" y="685"/>
      <point x="157" y="656" type="curve"/>
      <point x="149" y="647"/>
      <point x="143" y="635"/>
      <point x="137" y="625" type="curve"/>
      <point x="304" y="541" type="line"/>
      <point x="420" y="435" type="line" smooth="yes"/>
      <point x="437" y="419"/>
      <point x="462" y="428"/>
      <point x="487" y="459" type="curve"/>
      <point x="494" y="467"/>
      <point x="500" y="476"/>
    </contour>
  </outline>
</glyph>
<glyph name="plus" format="1">
  <advance width="600"/>
  <unicode hex="002B"/>
  <outline>
    <contour>
      <point x="75" y="358" type="line"/>
      <point x="74" y="353"/>
      <point x="73" y="348"/>
      <point x="71" y="342" type="curve" smooth="yes"/>
      <point x="60" y="298"/>
      <point x="60" y="272"/>
      <point x="71" y="257" type="curve" smooth="yes"/>
      <point x="79" y="246"/>
      <point x="93" y="242"/>
      <point x="125" y="242" type="curve"/>
      <point x="543" y="242" type="line"/>
      <point x="549" y="257"/>
      <point x="555" y="273"/>
      <point x="559" y="287" type="curve" smooth="yes"/>
      <point x="571" y="338"/>
      <point x="563" y="358"/>
      <point x="521" y="358" type="curve"/>
    </contour>
    <contour>
      <point x="306" y="57" type="curve"/>
      <point x="403" y="445" type="line" smooth="yes"/>
      <point x="414" y="488"/>
      <point x="413" y="506"/>
      <point x="400" y="523" type="curve" smooth="yes"/>
      <point x="387" y="541"/>
      <point x="358" y="547"/>
      <point x="333" y="547" type="curve" smooth="yes"/>
      <point x="322" y="547"/>
      <point x="311" y="546"/>
      <point x="299" y="543" type="curve"/>
      <point x="300" y="510"/>
      <point x="297" y="485"/>
      <point x="287" y="443" type="curve" smooth="yes"/>
      <point x="201" y="102" type="line" smooth="yes"/>
      <point x="191" y="60"/>
      <point x="218" y="53"/>
      <point x="263" y="53" type="curve" smooth="yes"/>
      <point x="280" y="53"/>
      <point x="294" y="55"/>
    </contour>
  </outline>
</glyph>
<glyph name="comma" format="1">
  <advance width="350"/>
  <unicode hex="002C"/>
  <outline>
    <contour>
      <point x="30" y="-197" type="curve" smooth="yes"/>
      <point x="49" y="-197"/>
      <point x="59" y="-193"/>
      <point x="71" y="-184" type="curve"/>
      <point x="140" y="-129"/>
      <point x="219" y="-13"/>
      <point x="244" y="87" type="curve"/>
      <point x="256" y="134"/>
      <point x="229" y="151"/>
      <point x="163" y="151" type="curve" smooth="yes"/>
      <point x="142" y="151"/>
      <point x="126" y="149"/>
      <point x="103" y="143" type="curve"/>
      <point x="68" y="6"/>
      <point x="24" y="-84"/>
      <point x="-49" y="-170" type="curve"/>
      <point x="-29" y="-189"/>
      <point x="-7" y="-197"/>
    </contour>
  </outline>
</glyph>
<glyph name="hyphen" format="1">
  <advance width="600"/>
  <unicode hex="002D"/>
  <outline>
    <contour>
      <point x="126" y="357" type="line"/>
      <point x="125" y="352"/>
      <point x="123" y="347"/>
      <point x="122" y="341" type="curve" smooth="yes"/>
      <point x="111" y="297"/>
      <point x="111" y="271"/>
      <point x="121" y="256" type="curve" smooth="yes"/>
      <point x="130" y="245"/>
      <point x="143" y="242"/>
      <point x="175" y="242" type="curve"/>
      <point x="493" y="242" type="line"/>
      <point x="500" y="256"/>
      <point x="506" y="273"/>
      <point x="509" y="286" type="curve" smooth="yes"/>
      <point x="522" y="337"/>
      <point x="514" y="357"/>
      <point x="471" y="357" type="curve"/>
    </contour>
  </outline>
</glyph>
<glyph name="period" format="1">
  <advance width="300"/>
  <unicode hex="002E"/>
  <outline>
    <contour>
      <point x="173" y="0" type="curve"/>
      <point x="201" y="112" type="line" smooth="yes"/>
      <point x="214" y="165"/>
      <point x="164" y="178"/>
      <point x="107" y="178" type="curve" smooth="yes"/>
      <point x="84" y="178"/>
      <point x="58" y="175"/>
      <point x="36" y="169" type="curve"/>
      <point x="8" y="57" type="line" smooth="yes"/>
      <point x="-5" y="4"/>
      <point x="44" y="-9"/>
      <point x="102" y="-9" type="curve" smooth="yes"/>
      <point x="124" y="-9"/>
      <point x="150" y="-6"/>
    </contour>
  </outline>
</glyph>
<glyph name="zero" format="1">
  <advance width="600"/>
  <unicode hex="0030"/>
  <outline>
    <contour>
      <point x="409" y="720" type="curve" smooth="yes"/>
      <point x="268" y="720"/>
      <point x="143" y="609"/>
      <point x="86" y="377" type="curve" smooth="yes"/>
      <point x="75" y="334" type="line" smooth="yes"/>
      <point x="23" y="121"/>
      <point x="92" y="-20"/>
      <point x="235" y="-20" type="curve"/>
      <point x="271" y="-20"/>
      <point x="297" y="11"/>
      <point x="308" y="52" type="curve"/>
      <point x="172" y="59"/>
      <point x="152" y="171"/>
      <point x="185" y="308" type="curve" smooth="yes"/>
      <point x="196" y="352" type="line" smooth="yes"/>
      <point x="233" y="506"/>
      <point x="301" y="608"/>
      <point x="396" y="608" type="curve" smooth="yes"/>
      <point x="438" y="608"/>
      <point x="465" y="600"/>
      <point x="490" y="581" type="curve"/>
      <point x="532" y="622"/>
      <point x="487" y="720"/>
    </contour>
    <contour>
      <point x="235" y="-20" type="curve" smooth="yes"/>
      <point x="375" y="-20"/>
      <point x="493" y="79"/>
      <point x="546" y="294" type="curve" smooth="yes"/>
      <point x="556" y="339" type="line" smooth="yes"/>
      <point x="615" y="575"/>
      <point x="552" y="720"/>
      <point x="409" y="720" type="curve"/>
      <point x="372" y="720"/>
      <point x="345" y="689"/>
      <point x="335" y="648" type="curve"/>
      <point x="471" y="641"/>
      <point x="486" y="521"/>
      <point x="447" y="361" type="curve" smooth="yes"/>
      <point x="436" y="317" type="line" smooth="yes"/>
      <point x="402" y="182"/>
      <point x="342" y="92"/>
      <point x="246" y="92" type="curve" smooth="yes"/>
      <point x="204" y="92"/>
      <point x="172" y="101"/>
      <point x="146" y="123" type="curve"/>
      <point x="104" y="80"/>
      <point x="156" y="-20"/>
    </contour>
  </outline>
</glyph>
<glyph name="one" format="1">
  <advance width="600"/>
  <unicode hex="0031"/>
  <outline>
    <contour>
      <point x="346" y="56" type="curve"/>
      <point x="397" y="261"/>
      <point x="450" y="469"/>
      <point x="501" y="673" type="curve" smooth="yes"/>
      <point x="507" y="701"/>
      <point x="466" y="710"/>
      <point x="414" y="710" type="curve" smooth="yes"/>
      <point x="394" y="710" type="line"/>
      <point x="351" y="537"/>
      <point x="306" y="356"/>
      <point x="262" y="183" type="curve" smooth="yes"/>
      <point x="239" y="87"/>
      <point x="281" y="56"/>
    </contour>
    <contour>
      <point x="48" y="112" type="line"/>
      <point x="45" y="107"/>
      <point x="44" y="101"/>
      <point x="42" y="94" type="curve" smooth="yes"/>
      <point x="31" y="52"/>
      <point x="32" y="30"/>
      <point x="42" y="16" type="curve" smooth="yes"/>
      <point x="51" y="4"/>
      <point x="64" y="0"/>
      <point x="98" y="0" type="curve" smooth="yes"/>
      <point x="495" y="0" type="line"/>
      <point x="500" y="10"/>
      <point x="504" y="20"/>
      <point x="506" y="31" type="curve" smooth="yes"/>
      <point x="519" y="80"/>
      <point x="462" y="112"/>
      <point x="341" y="112" type="curve" smooth="yes"/>
    </contour>
    <contour>
      <point x="172" y="434" type="curve" smooth="yes"/>
      <point x="200" y="434"/>
      <point x="246" y="459"/>
      <point x="289" y="493" type="curve" smooth="yes"/>
      <point x="350" y="542"/>
      <point x="398" y="608"/>
      <point x="411" y="660" type="curve" smooth="yes"/>
      <point x="420" y="695"/>
      <point x="408" y="710"/>
      <point x="397" y="710" type="curve"/>
      <point x="373" y="710" type="line"/>
      <point x="342" y="675"/>
      <point x="313" y="645"/>
      <point x="277" y="617" type="curve"/>
      <point x="236" y="584"/>
      <point x="197" y="560"/>
      <point x="151" y="539" type="curve"/>
      <point x="145" y="520" type="line" smooth="yes"/>
      <point x="129" y="464"/>
      <point x="150" y="434"/>
    </contour>
  </outline>
</glyph>
<glyph name="two" format="1">
  <advance width="600"/>
  <unicode hex="0032"/>
  <outline>
    <contour>
      <point x="441" y="631" type="curve"/>
      <point x="470" y="595"/>
      <point x="480" y="569"/>
      <point x="468" y="520" type="curve" smooth="yes"/>
      <point x="451" y="450"/>
      <point x="401" y="406"/>
      <point x="273" y="335" type="curve" smooth="yes"/>
      <point x="96" y="237"/>
      <point x="35" y="177"/>
      <point x="14" y="93" type="curve" smooth="yes"/>
      <point x="7" y="63"/>
      <point x="42" y="51"/>
      <point x="110" y="51" type="curve"/>
      <point x="130" y="130"/>
      <point x="165" y="164"/>
      <point x="337" y="255" type="curve" smooth="yes"/>
      <point x="494" y="336"/>
      <point x="560" y="398"/>
      <point x="588" y="510" type="curve" smooth="yes"/>
      <point x="590" y="516" type="line" smooth="yes"/>
      <point x="613" y="609"/>
      <point x="559" y="673"/>
    </contour>
    <contour>
      <point x="471" y="0" type="line"/>
      <point x="477" y="14"/>
      <point x="483" y="30"/>
      <point x="487" y="45" type="curve" smooth="yes"/>
      <point x="499" y="93"/>
      <point x="491" y="112"/>
      <point x="448" y="112" type="curve" smooth="yes"/>
      <point x="135" y="112" type="line" smooth="yes"/>
      <point x="86" y="112"/>
      <point x="50" y="109"/>
      <point x="14" y="93" type="curve"/>
      <point x="14" y="91"/>
      <point x="14" y="90"/>
      <point x="13" y="89" type="curve" smooth="yes"/>
      <point x="4" y="53"/>
      <point x="19" y="0"/>
      <point x="46" y="0" type="curve" smooth="yes"/>
    </contour>
    <contour>
      <point x="415" y="720" type="curve" smooth="yes"/>
      <point x="335" y="720"/>
      <point x="266" y="706"/>
      <point x="223" y="672" type="curve" smooth="yes"/>
      <point x="191" y="646"/>
      <point x="168" y="613"/>
      <point x="158" y="573" type="curve" smooth="yes"/>
      <point x="152" y="549"/>
      <point x="156" y="524"/>
      <point x="163" y="508" type="curve"/>
      <point x="167" y="508" type="line"/>
      <point x="232" y="575"/>
      <point x="304" y="608"/>
      <point x="392" y="608" type="curve" smooth="yes"/>
      <point x="479" y="608"/>
      <point x="531" y="565"/>
      <point x="518" y="511" type="curve" smooth="yes"/>
      <point x="513" y="491"/>
      <point x="505" y="470"/>
      <point x="494" y="451" type="curve"/>
      <point x="541" y="451"/>
      <point x="579" y="476"/>
      <point x="590" y="516" type="curve" smooth="yes"/>
      <point x="621" y="643"/>
      <point x="546" y="720"/>
    </contour>
  </outline>
</glyph>
<glyph name="three" format="1">
  <advance width="600"/>
  <unicode hex="0033"/>
  <outline>
    <contour>
      <point x="367" y="607" type="curve" smooth="yes"/>
      <point x="483" y="607"/>
      <point x="528" y="547"/>
      <point x="508" y="468" type="curve" smooth="yes"/>
      <point x="505" y="456"/>
      <point x="501" y="445"/>
      <point x="496" y="434" type="curve"/>
      <point x="528" y="436"/>
      <point x="584" y="482"/>
      <point x="592" y="514" type="curve" smooth="yes"/>
      <point x="595" y="527" type="line" smooth="yes"/>
      <point x="621" y="631"/>
      <point x="546" y="720"/>
      <point x="398" y="720" type="curve" smooth="yes"/>
      <point x="312" y="720"/>
      <point x="249" y="703"/>
      <point x="207" y="672" type="curve" smooth="yes"/>
      <point x="177" y="648"/>
      <point x="162" y="628"/>
      <point x="152" y="590" type="curve" smooth="yes"/>
      <point x="147" y="570"/>
      <point x="148" y="549"/>
      <point x="151" y="527" type="curve"/>
      <point x="155" y="527" type="line"/>
      <point x="226" y="590"/>
      <point x="282" y="607"/>
    </contour>
    <contour>
      <point x="221" y="313" type="curve" smooth="yes"/>
      <point x="424" y="313"/>
      <point x="564" y="403"/>
      <point x="592" y="514" type="curve" smooth="yes"/>
      <point x="600" y="548"/>
      <point x="536" y="595"/>
      <point x="503" y="596" type="curve"/>
      <point x="502" y="588"/>
      <point x="500" y="581"/>
      <point x="498" y="571" type="curve" smooth="yes"/>
      <point x="465" y="431"/>
      <point x="345" y="379"/>
      <point x="201" y="379" type="curve"/>
      <point x="195" y="366"/>
      <point x="191" y="358"/>
      <point x="187" y="341" type="curve" smooth="yes"/>
      <point x="182" y="321"/>
      <point x="208" y="313"/>
    </contour>
    <contour>
      <point x="211" y="281" type="curve" smooth="yes"/>
      <point x="340" y="275"/>
      <point x="431" y="226"/>
      <point x="409" y="140" type="curve" smooth="yes"/>
      <point x="408" y="132"/>
      <point x="407" y="126"/>
      <point x="404" y="120" type="curve"/>
      <point x="449" y="122"/>
      <point x="509" y="137"/>
      <point x="515" y="160" type="curve" smooth="yes"/>
      <point x="548" y="295"/>
      <point x="407" y="353"/>
      <point x="195" y="353" type="curve"/>
      <point x="191" y="347"/>
      <point x="188" y="346"/>
      <point x="187" y="341" type="curve" smooth="yes"/>
      <point x="177" y="301"/>
      <point x="183" y="283"/>
    </contour>
    <contour>
      <point x="242" y="92" type="curve" smooth="yes"/>
      <point x="148" y="92"/>
      <point x="93" y="118"/>
      <point x="49" y="182" type="curve"/>
      <point x="45" y="182" type="line"/>
      <point x="36" y="164"/>
      <point x="31" y="150"/>
      <point x="25" y="127" type="curve" smooth="yes"/>
      <point x="14" y="85"/>
      <point x="17" y="67"/>
      <point x="34" y="44" type="curve" smooth="yes"/>
      <point x="61" y="9"/>
      <point x="134" y="-20"/>
      <point x="230" y="-20" type="curve" smooth="yes"/>
      <point x="382" y="-20"/>
      <point x="485" y="41"/>
      <point x="512" y="147" type="curve" smooth="yes"/>
      <point x="515" y="160" type="line" smooth="yes"/>
      <point x="522" y="191"/>
      <point x="478" y="247"/>
      <point x="445" y="249" type="curve"/>
      <point x="444" y="240"/>
      <point x="442" y="229"/>
      <point x="439" y="217" type="curve" smooth="yes"/>
      <point x="419" y="136"/>
      <point x="362" y="92"/>
    </contour>
  </outline>
</glyph>
<glyph name="four" format="1">
  <advance width="600"/>
  <unicode hex="0034"/>
  <outline>
    <contour>
      <point x="127" y="222" type="curve"/>
      <point x="239" y="387"/>
      <point x="448" y="583"/>
      <point x="625" y="675" type="curve"/>
      <point x="626" y="679" type="line"/>
      <point x="610" y="699"/>
      <point x="574" y="712"/>
      <point x="520" y="712" type="curve" smooth="yes"/>
      <point x="483" y="712"/>
      <point x="453" y="704"/>
      <point x="384" y="653" type="curve" smooth="yes"/>
      <point x="215" y="528"/>
      <point x="62" y="337"/>
      <point x="40" y="253" type="curve" smooth="yes"/>
      <point x="35" y="233"/>
      <point x="87" y="222"/>
    </contour>
    <contour>
      <point x="536" y="153" type="line"/>
      <point x="542" y="164"/>
      <point x="546" y="177"/>
      <point x="549" y="188" type="curve" smooth="yes"/>
      <point x="557" y="223"/>
      <point x="560" y="266"/>
      <point x="531" y="266" type="curve" smooth="yes"/>
      <point x="326" y="266" type="line"/>
      <point x="245" y="266"/>
      <point x="131" y="262"/>
      <point x="40" y="253" type="curve"/>
      <point x="37" y="241" type="line" smooth="yes"/>
      <point x="28" y="205"/>
      <point x="32" y="180"/>
      <point x="44" y="164" type="curve" smooth="yes"/>
      <point x="50" y="156"/>
      <point x="57" y="153"/>
      <point x="75" y="153" type="curve" smooth="yes"/>
    </contour>
    <contour>
      <point x="433" y="-3" type="curve"/>
      <point x="433" y="31"/>
      <point x="437" y="57"/>
      <point x="447" y="97" type="curve" smooth="yes"/>
      <point x="512" y="360" type="line" smooth="yes"/>
      <point x="517" y="381"/>
      <point x="487" y="404"/>
      <point x="446" y="404" type="curve" smooth="yes"/>
      <point x="440" y="404" type="line"/>
      <point x="406" y="343"/>
      <point x="365" y="257"/>
      <point x="349" y="197" type="curve"/>
      <point x="315" y="57" type="line" smooth="yes"/>
      <point x="303" y="12"/>
      <point x="329" y="-7"/>
      <point x="381" y="-7" type="curve" smooth="yes"/>
      <point x="406" y="-7"/>
      <point x="421" y="-6"/>
    </contour>
  </outline>
</glyph>
<glyph name="six" format="1">
  <advance width="600"/>
  <unicode hex="0036"/>
  <outline>
    <contour>
      <point x="117" y="150" type="curve"/>
      <point x="77" y="75"/>
      <point x="163" y="-20"/>
      <point x="260" y="-20" type="curve"/>
      <point x="401" y="-20"/>
      <point x="484" y="50"/>
      <point x="518" y="185" type="curve" smooth="yes"/>
      <point x="520" y="190" type="line" smooth="yes"/>
      <point x="550" y="310"/>
      <point x="468" y="364"/>
      <point x="403" y="325" type="curve"/>
      <point x="420" y="291"/>
      <point x="419" y="250"/>
      <point x="406" y="199" type="curve" smooth="yes"/>
      <point x="405" y="194" type="line" smooth="yes"/>
      <point x="389" y="129"/>
      <point x="343" y="91"/>
      <point x="262" y="91" type="curve" smooth="yes"/>
      <point x="200" y="91"/>
      <point x="155" y="109"/>
    </contour>
    <contour>
      <point x="239" y="537" type="curve"/>
      <point x="303" y="584"/>
      <point x="364" y="608"/>
      <point x="436" y="608" type="curve" smooth="yes"/>
      <point x="497" y="608"/>
      <point x="542" y="593"/>
      <point x="580" y="565" type="curve"/>
      <point x="584" y="565" type="line"/>
      <point x="590" y="578"/>
      <point x="595" y="590"/>
      <point x="600" y="609" type="curve" smooth="yes"/>
      <point x="610" y="651"/>
      <point x="605" y="669"/>
      <point x="596" y="681" type="curve" smooth="yes"/>
      <point x="583" y="699"/>
      <point x="535" y="720"/>
      <point x="454" y="720" type="curve" smooth="yes"/>
      <point x="334" y="720"/>
      <point x="216" y="639"/>
    </contour>
    <contour>
      <point x="77" y="344" type="curve" smooth="yes"/>
      <point x="75" y="335" type="line" smooth="yes"/>
      <point x="21" y="111"/>
      <point x="107" y="-20"/>
      <point x="260" y="-20" type="curve" smooth="yes"/>
      <point x="269" y="-20"/>
      <point x="293" y="-11"/>
      <point x="304" y="32" type="curve"/>
      <point x="188" y="51"/>
      <point x="150" y="162"/>
      <point x="192" y="330" type="curve" smooth="yes"/>
      <point x="195" y="339" type="line" smooth="yes"/>
      <point x="249" y="559"/>
      <point x="310" y="620"/>
      <point x="482" y="670" type="curve"/>
      <point x="489" y="699"/>
      <point x="477" y="720"/>
      <point x="454" y="720" type="curve" smooth="yes"/>
      <point x="287" y="720"/>
      <point x="148" y="634"/>
    </contour>
    <contour>
      <point x="360" y="397" type="curve" smooth="yes"/>
      <point x="290" y="397"/>
      <point x="219" y="374"/>
      <point x="179" y="342" type="curve" smooth="yes"/>
      <point x="158" y="325"/>
      <point x="148" y="305"/>
      <point x="133" y="254" type="curve"/>
      <point x="196" y="285"/>
      <point x="261" y="302"/>
      <point x="320" y="302" type="curve" smooth="yes"/>
      <point x="425" y="302"/>
      <point x="470" y="246"/>
      <point x="451" y="169" type="curve" smooth="yes"/>
      <point x="448" y="155"/>
      <point x="444" y="142"/>
      <point x="436" y="130" type="curve"/>
      <point x="470" y="130"/>
      <point x="510" y="152"/>
      <point x="520" y="190" type="curve" smooth="yes"/>
      <point x="553" y="324"/>
      <point x="474" y="397"/>
    </contour>
  </outline>
</glyph>
<glyph name="eight" format="1">
  <advance width="600"/>
  <unicode hex="0038"/>
  <outline>
    <contour>
      <point x="400" y="339" type="curve" smooth="yes"/>
      <point x="317" y="371" type="line" smooth="yes"/>
      <point x="235" y="404"/>
      <point x="222" y="459"/>
      <point x="235" y="513" type="curve" smooth="yes"/>
      <point x="241" y="534"/>
      <point x="251" y="567"/>
      <point x="268" y="602" type="curve"/>
      <point x="206" y="597"/>
      <point x="146" y="577"/>
      <point x="133" y="523" type="curve" smooth="yes"/>
      <point x="115" y="450"/>
      <point x="134" y="356"/>
      <point x="265" y="302" type="curve" smooth="yes"/>
      <point x="346" y="269" type="line" smooth="yes"/>
      <point x="416" y="240"/>
      <point x="425" y="200"/>
      <point x="407" y="126" type="curve" smooth="yes"/>
      <point x="404" y="116"/>
      <point x="402" y="106"/>
      <point x="399" y="94" type="curve"/>
      <point x="443" y="95"/>
      <point x="506" y="122"/>
      <point x="514" y="154" type="curve"/>
      <point x="527" y="203"/>
      <point x="515" y="293"/>
    </contour>
    <contour>
      <point x="237" y="-20" type="curve" smooth="yes"/>
      <point x="400" y="-20"/>
      <point x="483" y="37"/>
      <point x="512" y="144" type="curve" smooth="yes"/>
      <point x="514" y="154" type="line" smooth="yes"/>
      <point x="519" y="172"/>
      <point x="483" y="217"/>
      <point x="453" y="219" type="curve"/>
      <point x="452" y="213"/>
      <point x="452" y="209"/>
      <point x="450" y="201" type="curve" smooth="yes"/>
      <point x="432" y="129"/>
      <point x="361" y="90"/>
      <point x="252" y="90" type="curve" smooth="yes"/>
      <point x="159" y="90"/>
      <point x="128" y="124"/>
      <point x="100" y="181" type="curve"/>
      <point x="13" y="101"/>
      <point x="92" y="-20"/>
    </contour>
    <contour>
      <point x="406" y="720" type="curve" smooth="yes"/>
      <point x="259" y="720"/>
      <point x="160" y="641"/>
      <point x="134" y="530" type="curve" smooth="yes"/>
      <point x="133" y="523" type="line" smooth="yes"/>
      <point x="125" y="488"/>
      <point x="168" y="443"/>
      <point x="227" y="441" type="curve"/>
      <point x="227" y="459"/>
      <point x="229" y="487"/>
      <point x="235" y="513" type="curve" smooth="yes"/>
      <point x="255" y="590"/>
      <point x="327" y="617"/>
      <point x="392" y="617" type="curve" smooth="yes"/>
      <point x="450" y="617"/>
      <point x="494" y="598"/>
      <point x="525" y="560" type="curve"/>
      <point x="595" y="619"/>
      <point x="493" y="720"/>
    </contour>
    <contour>
      <point x="367" y="323" type="curve" smooth="yes"/>
      <point x="443" y="323"/>
      <point x="567" y="400"/>
      <point x="595" y="508" type="curve" smooth="yes"/>
      <point x="597" y="516" type="line" smooth="yes"/>
      <point x="628" y="638"/>
      <point x="542" y="720"/>
      <point x="406" y="720" type="curve" smooth="yes"/>
      <point x="390" y="720"/>
      <point x="370" y="711"/>
      <point x="354" y="663" type="curve"/>
      <point x="452" y="663"/>
      <point x="511" y="607"/>
      <point x="487" y="515" type="curve" smooth="yes"/>
      <point x="486" y="508" type="line" smooth="yes"/>
      <point x="468" y="438"/>
      <point x="411" y="393"/>
      <point x="295" y="352" type="curve"/>
      <point x="316" y="332"/>
      <point x="337" y="323"/>
    </contour>
    <contour>
      <point x="305" y="40" type="curve"/>
      <point x="160" y="40"/>
      <point x="122" y="107"/>
      <point x="130" y="143" type="curve" smooth="yes"/>
      <point x="132" y="152" type="line" smooth="yes"/>
      <point x="149" y="225"/>
      <point x="217" y="271"/>
      <point x="338" y="300" type="curve"/>
      <point x="317" y="321"/>
      <point x="305" y="333"/>
      <point x="268" y="333" type="curve" smooth="yes"/>
      <point x="185" y="333"/>
      <point x="60" y="277"/>
      <point x="36" y="178" type="curve" smooth="yes"/>
      <point x="34" y="170" type="line" smooth="yes"/>
      <point x="9" y="70"/>
      <point x="83" y="-20"/>
      <point x="237" y="-20" type="curve" smooth="yes"/>
      <point x="271" y="-20"/>
      <point x="297" y="6"/>
    </contour>
  </outline>
</glyph>
<glyph name="nine" format="1">
  <advance width="600"/>
  <unicode hex="0039"/>
  <outline>
    <contour>
      <point x="524" y="550" type="curve"/>
      <point x="572" y="618"/>
      <point x="492" y="720"/>
      <point x="395" y="720" type="curve"/>
      <point x="257" y="720"/>
      <point x="152" y="642"/>
      <point x="111" y="480" type="curve" smooth="yes"/>
      <point x="108" y="470" type="line" smooth="yes"/>
      <point x="77" y="346"/>
      <point x="166" y="283"/>
      <point x="232" y="323" type="curve"/>
      <point x="205" y="357"/>
      <point x="206" y="400"/>
      <point x="219" y="453" type="curve" smooth="yes"/>
      <point x="220" y="458" type="line" smooth="yes"/>
      <point x="243" y="549"/>
      <point x="302" y="609"/>
      <point x="385" y="609" type="curve" smooth="yes"/>
      <point x="447" y="609"/>
      <point x="490" y="591"/>
    </contour>
    <contour>
      <point x="414" y="167" type="curve"/>
      <point x="346" y="114"/>
      <point x="280" y="92"/>
      <point x="205" y="92" type="curve" smooth="yes"/>
      <point x="143" y="92"/>
      <point x="100" y="107"/>
      <point x="61" y="135" type="curve"/>
      <point x="57" y="135" type="line"/>
      <point x="50" y="124"/>
      <point x="44" y="110"/>
      <point x="41" y="93" type="curve" smooth="yes"/>
      <point x="33" y="53"/>
      <point x="37" y="33"/>
      <point x="47" y="20" type="curve" smooth="yes"/>
      <point x="62" y="1"/>
      <point x="111" y="-20"/>
      <point x="196" y="-20" type="curve" smooth="yes"/>
      <point x="321" y="-20"/>
      <point x="433" y="62"/>
    </contour>
    <contour>
      <point x="564" y="363" type="curve" smooth="yes"/>
      <point x="566" y="372" type="line" smooth="yes"/>
      <point x="623" y="600"/>
      <point x="549" y="720"/>
      <point x="395" y="720" type="curve" smooth="yes"/>
      <point x="384" y="720"/>
      <point x="362" y="713"/>
      <point x="349" y="661" type="curve"/>
      <point x="479" y="636"/>
      <point x="492" y="549"/>
      <point x="449" y="377" type="curve" smooth="yes"/>
      <point x="447" y="367" type="line" smooth="yes"/>
      <point x="390" y="140"/>
      <point x="333" y="79"/>
      <point x="164" y="41" type="curve"/>
      <point x="156" y="1"/>
      <point x="174" y="-20"/>
      <point x="196" y="-20" type="curve" smooth="yes"/>
      <point x="363" y="-20"/>
      <point x="487" y="54"/>
    </contour>
    <contour>
      <point x="273" y="238" type="curve" smooth="yes"/>
      <point x="340" y="238"/>
      <point x="398" y="252"/>
      <point x="438" y="285" type="curve" smooth="yes"/>
      <point x="459" y="303"/>
      <point x="469" y="323"/>
      <point x="479" y="380" type="curve"/>
      <point x="419" y="347"/>
      <point x="366" y="332"/>
      <point x="306" y="332" type="curve" smooth="yes"/>
      <point x="202" y="332"/>
      <point x="150" y="390"/>
      <point x="173" y="480" type="curve" smooth="yes"/>
      <point x="178" y="499"/>
      <point x="183" y="514"/>
      <point x="192" y="529" type="curve"/>
      <point x="158" y="529"/>
      <point x="119" y="514"/>
      <point x="108" y="470" type="curve" smooth="yes"/>
      <point x="71" y="320"/>
      <point x="151" y="238"/>
    </contour>
  </outline>
</glyph>
<glyph name="colon" format="1">
  <advance width="300"/>
  <unicode hex="003A"/>
  <outline>
    <contour>
      <point x="264" y="367" type="curve"/>
      <point x="292" y="479" type="line" smooth="yes"/>
      <point x="306" y="532"/>
      <point x="256" y="545"/>
      <point x="199" y="545" type="curve" smooth="yes"/>
      <point x="176" y="545"/>
      <point x="150" y="542"/>
      <point x="128" y="536" type="curve"/>
      <point x="100" y="424" type="line" smooth="yes"/>
      <point x="86" y="371"/>
      <point x="136" y="358"/>
      <point x="193" y="358" type="curve" smooth="yes"/>
      <point x="216" y="358"/>
      <point x="242" y="361"/>
    </contour>
    <contour>
      <point x="173" y="0" type="curve"/>
      <point x="201" y="112" type="line" smooth="yes"/>
      <point x="214" y="165"/>
      <point x="164" y="178"/>
      <point x="107" y="178" type="curve" smooth="yes"/>
      <point x="84" y="178"/>
      <point x="58" y="175"/>
      <point x="36" y="169" type="curve"/>
      <point x="8" y="57" type="line" smooth="yes"/>
      <point x="-5" y="4"/>
      <point x="44" y="-9"/>
      <point x="102" y="-9" type="curve" smooth="yes"/>
      <point x="124" y="-9"/>
      <point x="150" y="-6"/>
    </contour>
  </outline>
</glyph>
<glyph name="semicolon" format="1">
  <advance width="350"/>
  <unicode hex="003B"/>
  <outline>
    <contour>
      <point x="286" y="365" type="curve"/>
      <point x="314" y="477" type="line" smooth="yes"/>
      <point x="327" y="530"/>
      <point x="277" y="543"/>
      <point x="220" y="543" type="curve" smooth="yes"/>
      <point x="197" y="543"/>
      <point x="171" y="540"/>
      <point x="149" y="535" type="curve"/>
      <point x="121" y="423" type="line" smooth="yes"/>
      <point x="108" y="370"/>
      <point x="158" y="356"/>
      <point x="215" y="356" type="curve" smooth="yes"/>
      <point x="237" y="356"/>
      <point x="263" y="359"/>
    </contour>
    <contour>
      <point x="-1" y="-197" type="curve" smooth="yes"/>
      <point x="17" y="-197"/>
      <point x="27" y="-193"/>
      <point x="39" y="-184" type="curve"/>
      <point x="108" y="-129"/>
      <point x="187" y="-13"/>
      <point x="213" y="87" type="curve"/>
      <point x="224" y="134"/>
      <point x="197" y="151"/>
      <point x="131" y="151" type="curve" smooth="yes"/>
      <point x="110" y="151"/>
      <point x="95" y="149"/>
      <point x="71" y="143" type="curve"/>
      <point x="37" y="6"/>
      <point x="-7" y="-84"/>
      <point x="-80" y="-170" type="curve"/>
      <point x="-60" y="-189"/>
      <point x="-38" y="-197"/>
    </contour>
  </outline>
</glyph>
<glyph name="equal" format="1">
  <advance width="600"/>
  <unicode hex="003D"/>
  <outline>
    <contour>
      <point x="107" y="483" type="line"/>
      <point x="106" y="478"/>
      <point x="105" y="473"/>
      <point x="103" y="467" type="curve" smooth="yes"/>
      <point x="92" y="423"/>
      <point x="92" y="397"/>
      <point x="103" y="382" type="curve" smooth="yes"/>
      <point x="111" y="371"/>
      <point x="125" y="367"/>
      <point x="156" y="367" type="curve"/>
      <point x="575" y="367" type="line"/>
      <point x="581" y="382"/>
      <point x="587" y="398"/>
      <point x="591" y="412" type="curve" smooth="yes"/>
      <point x="603" y="463"/>
      <point x="595" y="483"/>
      <point x="552" y="483" type="curve"/>
    </contour>
    <contour>
      <point x="517" y="117" type="line"/>
      <point x="518" y="122"/>
      <point x="519" y="127"/>
      <point x="521" y="133" type="curve" smooth="yes"/>
      <point x="532" y="177"/>
      <point x="532" y="203"/>
      <point x="521" y="218" type="curve" smooth="yes"/>
      <point x="513" y="229"/>
      <point x="500" y="233"/>
      <point x="468" y="233" type="curve"/>
      <point x="49" y="233" type="line"/>
      <point x="43" y="218"/>
      <point x="37" y="202"/>
      <point x="34" y="188" type="curve" smooth="yes"/>
      <point x="21" y="137"/>
      <point x="29" y="117"/>
      <point x="72" y="117" type="curve"/>
    </contour>
  </outline>
</glyph>
<glyph name="greater" format="1">
  <advance width="550"/>
  <unicode hex="003E"/>
  <outline>
    <contour>
      <point x="34" y="122" type="curve"/>
      <point x="30" y="103" type="line"/>
      <point x="20" y="66"/>
      <point x="30" y="20"/>
      <point x="59" y="20" type="curve" smooth="yes"/>
      <point x="72" y="20"/>
      <point x="104" y="28"/>
      <point x="151" y="44" type="curve" smooth="yes"/>
      <point x="300" y="98"/>
      <point x="439" y="184"/>
      <point x="533" y="273" type="curve"/>
      <point x="539" y="298" type="line"/>
      <point x="546" y="327"/>
      <point x="519" y="336"/>
      <point x="451" y="330" type="curve"/>
      <point x="335" y="231"/>
      <point x="234" y="165"/>
    </contour>
    <contour>
      <point x="159" y="588" type="curve"/>
      <point x="152" y="576"/>
      <point x="147" y="563"/>
      <point x="143" y="545" type="curve" smooth="yes"/>
      <point x="132" y="503"/>
      <point x="134" y="472"/>
      <point x="155" y="465" type="curve" smooth="yes"/>
      <point x="307" y="414"/>
      <point x="374" y="361"/>
      <point x="448" y="260" type="curve" smooth="yes"/>
      <point x="453" y="252"/>
      <point x="454" y="245"/>
      <point x="452" y="240" type="curve" smooth="yes"/>
      <point x="451" y="235"/>
      <point x="450" y="230"/>
      <point x="448" y="223" type="curve"/>
      <point x="506" y="252"/>
      <point x="534" y="277"/>
      <point x="538" y="294" type="curve" smooth="yes"/>
      <point x="540" y="303" type="line" smooth="yes"/>
      <point x="546" y="328"/>
      <point x="544" y="342"/>
      <point x="517" y="375" type="curve" smooth="yes"/>
      <point x="440" y="464"/>
      <point x="349" y="540"/>
    </contour>
  </outline>
</glyph>
<glyph name="question" format="1">
  <advance width="600"/>
  <unicode hex="003F"/>
  <outline>
    <contour>
      <point x="418" y="720" type="curve" smooth="yes"/>
      <point x="339" y="720"/>
      <point x="267" y="699"/>
      <point x="224" y="665" type="curve" smooth="yes"/>
      <point x="193" y="640"/>
      <point x="169" y="605"/>
      <point x="160" y="566" type="curve" smooth="yes"/>
      <point x="154" y="542"/>
      <point x="156" y="526"/>
      <point x="161" y="511" type="curve"/>
      <point x="166" y="511" type="line"/>
      <point x="230" y="570"/>
      <point x="303" y="604"/>
      <point x="394" y="604" type="curve" smooth="yes"/>
      <point x="485" y="604"/>
      <point x="519" y="573"/>
      <point x="508" y="531" type="curve" smooth="yes"/>
      <point x="502" y="507"/>
      <point x="496" y="492"/>
      <point x="487" y="474" type="curve"/>
      <point x="547" y="470"/>
      <point x="585" y="507"/>
      <point x="593" y="539" type="curve" smooth="yes"/>
      <point x="616" y="631"/>
      <point x="572" y="720"/>
    </contour>
    <contour>
      <point x="464" y="650" type="curve"/>
      <point x="482" y="611"/>
      <point x="489" y="589"/>
      <point x="479" y="547" type="curve" smooth="yes"/>
      <point x="469" y="509"/>
      <point x="450" y="477"/>
      <point x="381" y="436" type="curve" smooth="yes"/>
      <point x="354" y="420" type="line" smooth="yes"/>
      <point x="276" y="373"/>
      <point x="245" y="341"/>
      <point x="237" y="308" type="curve" smooth="yes"/>
      <point x="236" y="303" type="line" smooth="yes"/>
      <point x="229" y="276"/>
      <point x="253" y="247"/>
      <point x="317" y="247" type="curve" smooth="yes"/>
      <point x="325" y="247" type="line"/>
      <point x="326" y="252" type="line" smooth="yes"/>
      <point x="334" y="284"/>
      <point x="352" y="307"/>
      <point x="408" y="340" type="curve" smooth="yes"/>
      <point x="439" y="357" type="line" smooth="yes"/>
      <point x="530" y="408"/>
      <point x="576" y="468"/>
      <point x="592" y="534" type="curve" smooth="yes"/>
      <point x="593" y="539" type="line" smooth="yes"/>
      <point x="609" y="603"/>
      <point x="562" y="680"/>
    </contour>
    <contour>
      <point x="304" y="0" type="curve"/>
      <point x="328" y="99" type="line" smooth="yes"/>
      <point x="342" y="152"/>
      <point x="292" y="165"/>
      <point x="235" y="165" type="curve" smooth="yes"/>
      <point x="212" y="165"/>
      <point x="186" y="162"/>
      <point x="164" y="156" type="curve"/>
      <point x="139" y="57" type="line" smooth="yes"/>
      <point x="126" y="4"/>
      <point x="176" y="-9"/>
      <point x="233" y="-9" type="curve" smooth="yes"/>
      <point x="255" y="-9"/>
      <point x="281" y="-6"/>
    </contour>
  </outline>
</glyph>
<glyph name="at" format="1">
  <advance width="600"/>
  <unicode hex="0040"/>
  <outline>
    <contour>
      <point x="534" y="519" type="curve" smooth="yes"/>
      <point x="523" y="533"/>
      <point x="502" y="544"/>
      <point x="455" y="544" type="curve" smooth="yes"/>
      <point x="429" y="544"/>
      <point x="396" y="537"/>
      <point x="362" y="509" type="curve" smooth="yes"/>
      <point x="337" y="489"/>
      <point x="323" y="442"/>
      <point x="332" y="418" type="curve"/>
      <point x="379" y="445"/>
      <point x="404" y="453"/>
      <point x="443" y="453" type="curve" smooth="yes"/>
      <point x="473" y="453"/>
      <point x="494" y="449"/>
      <point x="513" y="430" type="curve"/>
      <point x="538" y="468"/>
      <point x="544" y="506"/>
    </contour>
    <contour>
      <point x="476" y="191" type="curve"/>
      <point x="426" y="138"/>
      <point x="372" y="106"/>
      <point x="337" y="106" type="curve" smooth="yes"/>
      <point x="304" y="106"/>
      <point x="294" y="136"/>
      <point x="314" y="215" type="curve" smooth="yes"/>
      <point x="316" y="221" type="line" smooth="yes"/>
      <point x="344" y="332"/>
      <point x="379" y="426"/>
      <point x="452" y="505" type="curve"/>
      <point x="425" y="525"/>
      <point x="388" y="530"/>
      <point x="362" y="509" type="curve" smooth="yes"/>
      <point x="301" y="461"/>
      <point x="248" y="365"/>
      <point x="210" y="210" type="curve" smooth="yes"/>
      <point x="208" y="203" type="line" smooth="yes"/>
      <point x="176" y="75"/>
      <point x="207" y="10"/>
      <point x="294" y="10" type="curve" smooth="yes"/>
      <point x="340" y="10"/>
      <point x="380" y="27"/>
      <point x="441" y="83" type="curve" smooth="yes"/>
      <point x="463" y="103"/>
      <point x="479" y="147"/>
    </contour>
    <contour>
      <point x="486" y="15" type="line"/>
      <point x="487" y="50"/>
      <point x="492" y="75"/>
      <point x="501" y="112" type="curve"/>
      <point x="602" y="516" type="line" smooth="yes"/>
      <point x="644" y="681"/>
      <point x="598" y="760"/>
      <point x="467" y="760" type="curve" smooth="yes"/>
      <point x="435" y="760"/>
      <point x="431" y="728"/>
      <point x="426" y="710" type="curve"/>
      <point x="529" y="706"/>
      <point x="534" y="654"/>
      <point x="507" y="547" type="curve" smooth="yes"/>
      <point x="397" y="104" type="line" smooth="yes"/>
      <point x="384" y="54"/>
      <point x="415" y="15"/>
      <point x="474" y="15" type="curve" smooth="yes"/>
    </contour>
    <contour>
      <point x="39" y="207" type="curve" smooth="yes"/>
      <point x="36" y="197" type="line" smooth="yes"/>
      <point x="-5" y="30"/>
      <point x="-1" y="-71"/>
      <point x="41" y="-127" type="curve" smooth="yes"/>
      <point x="64" y="-158"/>
      <point x="102" y="-152"/>
      <point x="141" y="-121" type="curve"/>
      <point x="72" y="-27"/>
      <point x="79" y="35"/>
      <point x="119" y="194" type="curve" smooth="yes"/>
      <point x="121" y="204" type="line" smooth="yes"/>
      <point x="191" y="486"/>
      <point x="324" y="677"/>
      <point x="451" y="677" type="curve" smooth="yes"/>
      <point x="504" y="677"/>
      <point x="519" y="655"/>
      <point x="532" y="619" type="curve"/>
      <point x="558" y="632"/>
      <point x="572" y="649"/>
      <point x="577" y="669" type="curve" smooth="yes"/>
      <point x="590" y="720"/>
      <point x="540" y="760"/>
      <point x="467" y="760" type="curve" smooth="yes"/>
      <point x="283" y="760"/>
      <point x="121" y="533"/>
    </contour>
    <contour>
      <point x="210" y="-190" type="curve" smooth="yes"/>
      <point x="276" y="-190"/>
      <point x="330" y="-180"/>
      <point x="351" y="-163" type="curve" smooth="yes"/>
      <point x="370" y="-148"/>
      <point x="381" y="-121"/>
      <point x="389" y="-87" type="curve" smooth="yes"/>
      <point x="391" y="-79" type="line"/>
      <point x="387" y="-79" type="line"/>
      <point x="339" y="-100"/>
      <point x="296" y="-107"/>
      <point x="234" y="-107" type="curve" smooth="yes"/>
      <point x="155" y="-107"/>
      <point x="104" y="-80"/>
      <point x="66" y="-20" type="curve"/>
      <point x="37" y="-46"/>
      <point x="20" y="-99"/>
      <point x="41" y="-127" type="curve"/>
      <point x="73" y="-169"/>
      <point x="129" y="-190"/>
    </contour>
  </outline>
</glyph>
<glyph name="D" format="1">
  <advance width="650"/>
  <unicode hex="0044"/>
  <outline>
    <contour>
      <point x="148" y="33" type="curve"/>
      <point x="274" y="535" type="line" smooth="yes"/>
      <point x="291" y="606"/>
      <point x="259" y="635"/>
      <point x="176" y="635" type="curve"/>
      <point x="37" y="76" type="line" smooth="yes"/>
      <point x="31" y="53"/>
      <point x="79" y="33"/>
    </contour>
    <contour>
      <point x="144" y="700" type="curve"/>
      <point x="138" y="688"/>
      <point x="133" y="675"/>
      <point x="129" y="659" type="curve"/>
      <point x="121" y="625"/>
      <point x="121" y="605"/>
      <point x="130" y="592" type="curve" smooth="yes"/>
      <point x="134" y="586"/>
      <point x="140" y="584"/>
      <point x="148" y="584" type="curve" smooth="yes"/>
      <point x="157" y="584"/>
      <point x="172" y="587"/>
      <point x="201" y="591" type="curve" smooth="yes"/>
      <point x="250" y="598"/>
      <point x="305" y="604"/>
      <point x="367" y="604" type="curve"/>
      <point x="456" y="604"/>
      <point x="512" y="585"/>
      <point x="559" y="525" type="curve"/>
      <point x="615" y="597"/>
      <point x="547" y="720"/>
      <point x="393" y="720" type="curve" smooth="yes"/>
      <point x="302" y="720"/>
      <point x="237" y="716"/>
    </contour>
    <contour>
      <point x="611" y="362" type="curve" smooth="yes"/>
      <point x="615" y="379" type="line" smooth="yes"/>
      <point x="667" y="587"/>
      <point x="589" y="720"/>
      <point x="393" y="720" type="curve" smooth="yes"/>
      <point x="369" y="720"/>
      <point x="342" y="703"/>
      <point x="332" y="660" type="curve"/>
      <point x="528" y="643"/>
      <point x="541" y="560"/>
      <point x="499" y="393" type="curve" smooth="yes"/>
      <point x="496" y="379" type="line" smooth="yes"/>
      <point x="452" y="205"/>
      <point x="331" y="109"/>
      <point x="207" y="109" type="curve" smooth="yes"/>
      <point x="141" y="109"/>
      <point x="115" y="115"/>
      <point x="70" y="136" type="curve"/>
      <point x="53" y="121"/>
      <point x="44" y="106"/>
      <point x="37" y="76" type="curve" smooth="yes"/>
      <point x="27" y="38"/>
      <point x="101" y="-10"/>
      <point x="184" y="-10" type="curve" smooth="yes"/>
      <point x="188" y="-10" type="line" smooth="yes"/>
      <point x="398" y="-10"/>
      <point x="551" y="119"/>
    </contour>
    <contour>
      <point x="423" y="711" type="move" name="top"/>
    </contour>
  </outline>
</glyph>
<glyph name="E" format="1">
  <advance width="550"/>
  <unicode hex="0045"/>
  <outline>
    <contour>
      <point x="143" y="700" type="line"/>
      <point x="141" y="694"/>
      <point x="139" y="686"/>
      <point x="138" y="680" type="curve" smooth="yes"/>
      <point x="129" y="643"/>
      <point x="124" y="605"/>
      <point x="135" y="591" type="curve" smooth="yes"/>
      <point x="138" y="586"/>
      <point x="141" y="584"/>
      <point x="148" y="584" type="curve" smooth="yes"/>
      <point x="581" y="584" type="line"/>
      <point x="588" y="597"/>
      <point x="593" y="610"/>
      <point x="597" y="626" type="curve" smooth="yes"/>
      <point x="601" y="643"/>
      <point x="605" y="675"/>
      <point x="594" y="690" type="curve" smooth="yes"/>
      <point x="589" y="698"/>
      <point x="583" y="700"/>
      <point x="570" y="700" type="curve" smooth="yes"/>
    </contour>
    <contour>
      <point x="155" y="62" type="curve"/>
      <point x="270" y="520" type="line" smooth="yes"/>
      <point x="288" y="590"/>
      <point x="263" y="615"/>
      <point x="171" y="615" type="curve"/>
      <point x="44" y="106" type="line"/>
      <point x="35" y="71"/>
      <point x="89" y="62"/>
    </contour>
    <contour>
      <point x="46" y="116" type="line"/>
      <point x="43" y="100" type="line" smooth="yes"/>
      <point x="31" y="55"/>
      <point x="62" y="0"/>
      <point x="99" y="0" type="curve" smooth="yes"/>
      <point x="438" y="0" type="line"/>
      <point x="443" y="11"/>
      <point x="448" y="25"/>
      <point x="451" y="42" type="curve" smooth="yes"/>
      <point x="465" y="94"/>
      <point x="455" y="116"/>
      <point x="421" y="116" type="curve" smooth="yes"/>
    </contour>
    <contour>
      <point x="166" y="383" type="line"/>
      <point x="148" y="311"/>
      <point x="150" y="280"/>
      <point x="184" y="280" type="curve" smooth="yes"/>
      <point x="447" y="280" type="line"/>
      <point x="452" y="287"/>
      <point x="454" y="294"/>
      <point x="455" y="300" type="curve" smooth="yes"/>
      <point x="461" y="322"/>
      <point x="460" y="349"/>
      <point x="445" y="370" type="curve" smooth="yes"/>
      <point x="438" y="380"/>
      <point x="431" y="383"/>
      <point x="414" y="383" type="curve" smooth="yes"/>
    </contour>
    <contour>
      <point x="382" y="711" type="move" name="top"/>
    </contour>
    <contour>
      <point x="380" y="-1" type="move" name="ogonek"/>
    </contour>
    <contour>
      <point x="204" y="-1" type="move" name="bottom"/>
    </contour>
  </outline>
</glyph>
<glyph name="F" format="1">
  <advance width="550"/>
  <unicode hex="0046"/>
  <outline>
    <contour>
      <point x="159" y="-6" type="curve"/>
      <point x="160" y="28"/>
      <point x="165" y="54"/>
      <point x="174" y="91" type="curve" smooth="yes"/>
      <point x="282" y="520" type="line"/>
      <point x="300" y="592"/>
      <point x="276" y="618"/>
      <point x="184" y="618" type="curve"/>
      <point x="42" y="51" type="line" smooth="yes"/>
      <point x="32" y="10"/>
      <point x="63" y="-6"/>
      <point x="147" y="-6" type="curve" smooth="yes"/>
      <point x="151" y="-6"/>
      <point x="155" y="-6"/>
    </contour>
    <contour>
      <point x="141" y="700" type="line"/>
      <point x="140" y="694"/>
      <point x="138" y="686"/>
      <point x="136" y="680" type="curve" smooth="yes"/>
      <point x="125" y="636"/>
      <point x="124" y="603"/>
      <point x="133" y="591" type="curve" smooth="yes"/>
      <point x="137" y="586"/>
      <point x="140" y="584"/>
      <point x="147" y="584" type="curve"/>
      <point x="586" y="584" type="line"/>
      <point x="593" y="595"/>
      <point x="598" y="608"/>
      <point x="602" y="626" type="curve" smooth="yes"/>
      <point x="609" y="651"/>
      <point x="608" y="678"/>
      <point x="599" y="690" type="curve" smooth="yes"/>
      <point x="594" y="698"/>
      <point x="589" y="700"/>
      <point x="575" y="700" type="curve"/>
    </contour>
    <contour>
      <point x="133" y="333" type="line"/>
      <point x="115" y="261"/>
      <point x="113" y="217"/>
      <point x="148" y="217" type="curve"/>
      <point x="452" y="217" type="line"/>
      <point x="455" y="224"/>
      <point x="457" y="231"/>
      <point x="459" y="240" type="curve"/>
      <point x="466" y="268"/>
      <point x="462" y="299"/>
      <point x="448" y="317" type="curve" smooth="yes"/>
      <point x="438" y="331"/>
      <point x="431" y="333"/>
      <point x="410" y="333" type="curve"/>
    </contour>
  </outline>
</glyph>
<glyph name="G" format="1">
  <advance width="650"/>
  <unicode hex="0047"/>
  <outline>
    <contour>
      <point x="480" y="612" type="curve" smooth="yes"/>
      <point x="553" y="612"/>
      <point x="573" y="576"/>
      <point x="557" y="513" type="curve"/>
      <point x="604" y="513"/>
      <point x="628" y="544"/>
      <point x="632" y="561" type="curve" smooth="yes"/>
      <point x="642" y="600"/>
      <point x="637" y="640"/>
      <point x="614" y="671" type="curve" smooth="yes"/>
      <point x="593" y="699"/>
      <point x="556" y="720"/>
      <point x="494" y="720" type="curve" smooth="yes"/>
      <point x="310" y="720"/>
      <point x="143" y="587"/>
      <point x="68" y="292" type="curve" smooth="yes"/>
      <point x="64" y="277" type="line" smooth="yes"/>
      <point x="44" y="196"/>
      <point x="93" y="131"/>
      <point x="166" y="126" type="curve"/>
      <point x="160" y="172"/>
      <point x="164" y="216"/>
      <point x="177" y="268" type="curve" smooth="yes"/>
      <point x="181" y="284" type="line" smooth="yes"/>
      <point x="237" y="509"/>
      <point x="365" y="612"/>
    </contour>
    <contour>
      <point x="298" y="96" type="curve" smooth="yes"/>
      <point x="173" y="96"/>
      <point x="135" y="172"/>
      <point x="175" y="326" type="curve"/>
      <point x="115" y="327"/>
      <point x="77" y="325"/>
      <point x="64" y="277" type="curve" smooth="yes"/>
      <point x="23" y="110"/>
      <point x="94" y="-20"/>
      <point x="296" y="-20" type="curve" smooth="yes"/>
      <point x="437" y="-20"/>
      <point x="521" y="44"/>
      <point x="549" y="154" type="curve" smooth="yes"/>
      <point x="551" y="162" type="line" smooth="yes"/>
      <point x="567" y="227"/>
      <point x="542" y="288"/>
      <point x="490" y="288" type="curve"/>
      <point x="489" y="268"/>
      <point x="487" y="248"/>
      <point x="479" y="218" type="curve" smooth="yes"/>
      <point x="459" y="137"/>
      <point x="390" y="96"/>
    </contour>
    <contour>
      <point x="361" y="336" type="line"/>
      <point x="359" y="331"/>
      <point x="357" y="325"/>
      <point x="356" y="318" type="curve" smooth="yes"/>
      <point x="348" y="288"/>
      <point x="352" y="270"/>
      <point x="362" y="257" type="curve" smooth="yes"/>
      <point x="374" y="241"/>
      <point x="392" y="234"/>
      <point x="446" y="234" type="curve"/>
      <point x="602" y="234" type="line"/>
      <point x="605" y="244" type="line" smooth="yes"/>
      <point x="622" y="313"/>
      <point x="615" y="336"/>
      <point x="575" y="336" type="curve" smooth="yes"/>
    </contour>
    <contour>
      <point x="608" y="464" type="curve"/>
      <point x="632" y="561" type="line" smooth="yes"/>
      <point x="646" y="613"/>
      <point x="614" y="654"/>
      <point x="558" y="650" type="curve"/>
      <point x="534" y="607"/>
      <point x="518" y="569"/>
      <point x="512" y="542" type="curve" smooth="yes"/>
      <point x="504" y="508" type="line" smooth="yes"/>
      <point x="496" y="471"/>
      <point x="513" y="459"/>
      <point x="564" y="459" type="curve" smooth="yes"/>
      <point x="581" y="459"/>
      <point x="596" y="461"/>
    </contour>
    <contour>
      <point x="446" y="711" type="move" name="top"/>
    </contour>
    <contour>
      <point x="267" y="-1" type="move" name="bottom"/>
    </contour>
  </outline>
</glyph>
<glyph name="H" format="1">
  <advance width="650"/>
  <unicode hex="0048"/>
  <outline>
    <contour>
      <point x="186" y="704" type="curve"/>
      <point x="185" y="669"/>
      <point x="179" y="632"/>
      <point x="169" y="593" type="curve" smooth="yes"/>
      <point x="31" y="42" type="line" smooth="yes"/>
      <point x="23" y="6"/>
      <point x="51" y="-10"/>
      <point x="113" y="-10" type="curve" smooth="yes"/>
      <point x="125" y="-10"/>
      <point x="134" y="-9"/>
      <point x="141" y="-8" type="curve"/>
      <point x="304" y="643" type="line" smooth="yes"/>
      <point x="310" y="667"/>
      <point x="310" y="681"/>
      <point x="302" y="693" type="curve" smooth="yes"/>
      <point x="293" y="705"/>
      <point x="275" y="710"/>
      <point x="238" y="710" type="curve" smooth="yes"/>
      <point x="219" y="710"/>
      <point x="204" y="708"/>
    </contour>
    <contour>
      <point x="517" y="-4" type="curve"/>
      <point x="518" y="31"/>
      <point x="524" y="68"/>
      <point x="534" y="107" type="curve" smooth="yes"/>
      <point x="672" y="658" type="line" smooth="yes"/>
      <point x="680" y="693"/>
      <point x="646" y="710"/>
      <point x="577" y="710" type="curve" smooth="yes"/>
      <point x="571" y="710"/>
      <point x="566" y="710"/>
      <point x="562" y="710" type="curve"/>
      <point x="399" y="57" type="line" smooth="yes"/>
      <point x="393" y="33"/>
      <point x="393" y="19"/>
      <point x="401" y="7" type="curve" smooth="yes"/>
      <point x="410" y="-5"/>
      <point x="428" y="-10"/>
      <point x="465" y="-10" type="curve" smooth="yes"/>
      <point x="484" y="-10"/>
      <point x="499" y="-8"/>
    </contour>
    <contour>
      <point x="59" y="366" type="line"/>
      <point x="54" y="346" type="line" smooth="yes"/>
      <point x="44" y="307"/>
      <point x="46" y="276"/>
      <point x="61" y="257" type="curve" smooth="yes"/>
      <point x="65" y="251"/>
      <point x="68" y="250"/>
      <point x="74" y="250" type="curve"/>
      <point x="480" y="250" type="line"/>
      <point x="502" y="336"/>
      <point x="482" y="366"/>
      <point x="412" y="366" type="curve" smooth="yes"/>
    </contour>
    <contour>
      <point x="420" y="711" type="move" name="top"/>
    </contour>
  </outline>
</glyph>
<glyph name="I" format="1">
  <advance width="500"/>
  <unicode hex="0049"/>
  <outline>
    <contour>
      <point x="261" y="65" type="curve"/>
      <point x="375" y="520" type="line" smooth="yes"/>
      <point x="393" y="590"/>
      <point x="370" y="615"/>
      <point x="277" y="615" type="curve"/>
      <point x="169" y="183" type="line" smooth="yes"/>
      <point x="149" y="103"/>
      <point x="168" y="65"/>
    </contour>
    <contour>
      <point x="164" y="700" type="line"/>
      <point x="160" y="693"/>
      <point x="156" y="683"/>
      <point x="153" y="671" type="curve"/>
      <point x="145" y="642"/>
      <point x="147" y="620"/>
      <point x="158" y="604" type="curve" smooth="yes"/>
      <point x="170" y="588"/>
      <point x="191" y="584"/>
      <point x="241" y="584" type="curve" smooth="yes"/>
      <point x="525" y="584" type="line"/>
      <point x="533" y="599"/>
      <point x="538" y="614"/>
      <point x="541" y="627" type="curve" smooth="yes"/>
      <point x="552" y="669"/>
      <point x="551" y="700"/>
      <point x="511" y="700" type="curve" smooth="yes"/>
    </contour>
    <contour>
      <point x="20" y="116" type="line"/>
      <point x="13" y="104"/>
      <point x="7" y="90"/>
      <point x="4" y="75" type="curve"/>
      <point x="-2" y="52"/>
      <point x="-4" y="28"/>
      <point x="6" y="14" type="curve" smooth="yes"/>
      <point x="14" y="3"/>
      <point x="23" y="0"/>
      <point x="51" y="0" type="curve" smooth="yes"/>
      <point x="380" y="0" type="line"/>
      <point x="385" y="11"/>
      <point x="391" y="25"/>
      <point x="395" y="42" type="curve" smooth="yes"/>
      <point x="405" y="84"/>
      <point x="405" y="116"/>
      <point x="365" y="116" type="curve" smooth="yes"/>
    </contour>
    <contour>
      <point x="363" y="711" type="move" name="top"/>
    </contour>
    <contour>
      <point x="380" y="-1" type="move" name="ogonek"/>
    </contour>
    <contour>
      <point x="184" y="-1" type="move" name="bottom"/>
    </contour>
  </outline>
</glyph>
<glyph name="J" format="1">
  <advance width="500"/>
  <unicode hex="004A"/>
  <outline>
    <contour>
      <point x="185" y="700" type="line"/>
      <point x="181" y="693"/>
      <point x="177" y="684"/>
      <point x="175" y="673" type="curve" smooth="yes"/>
      <point x="167" y="642"/>
      <point x="168" y="620"/>
      <point x="180" y="604" type="curve" smooth="yes"/>
      <point x="191" y="589"/>
      <point x="209" y="584"/>
      <point x="255" y="584" type="curve" smooth="yes"/>
      <point x="466" y="584" type="line"/>
      <point x="487" y="669"/>
      <point x="476" y="700"/>
      <point x="438" y="700" type="curve"/>
    </contour>
    <contour>
      <point x="420" y="180" type="curve" smooth="yes"/>
      <point x="540" y="657" type="line" smooth="yes"/>
      <point x="546" y="683"/>
      <point x="522" y="700"/>
      <point x="455" y="700" type="curve" smooth="yes"/>
      <point x="429" y="700" type="line"/>
      <point x="311" y="230" type="line" smooth="yes"/>
      <point x="288" y="139"/>
      <point x="263" y="95"/>
      <point x="209" y="49" type="curve"/>
      <point x="275" y="16"/>
      <point x="392" y="65"/>
    </contour>
    <contour>
      <point x="178" y="96" type="curve" smooth="yes"/>
      <point x="104" y="96"/>
      <point x="76" y="111"/>
      <point x="23" y="151" type="curve"/>
      <point x="19" y="151" type="line"/>
      <point x="12" y="137"/>
      <point x="6" y="122"/>
      <point x="3" y="108" type="curve"/>
      <point x="-7" y="58"/>
      <point x="-1" y="42"/>
      <point x="10" y="27" type="curve" smooth="yes"/>
      <point x="34" y="-1"/>
      <point x="82" y="-20"/>
      <point x="153" y="-20" type="curve" smooth="yes"/>
      <point x="159" y="-20" type="line" smooth="yes"/>
      <point x="293" y="-20"/>
      <point x="389" y="56"/>
      <point x="420" y="180" type="curve"/>
      <point x="427" y="207"/>
      <point x="426" y="263"/>
      <point x="368" y="286" type="curve"/>
      <point x="334" y="151"/>
      <point x="276" y="96"/>
    </contour>
    <contour>
      <point x="369" y="711" type="move" name="top"/>
    </contour>
  </outline>
</glyph>
<glyph name="L" format="1">
  <advance width="550"/>
  <unicode hex="004C"/>
  <outline>
    <contour>
      <point x="146" y="55" type="curve"/>
      <point x="293" y="643" type="line" smooth="yes"/>
      <point x="299" y="667"/>
      <point x="299" y="681"/>
      <point x="291" y="693" type="curve" smooth="yes"/>
      <point x="281" y="705"/>
      <point x="264" y="710"/>
      <point x="226" y="710" type="curve" smooth="yes"/>
      <point x="208" y="710"/>
      <point x="193" y="708"/>
      <point x="175" y="704" type="curve"/>
      <point x="174" y="669"/>
      <point x="168" y="633"/>
      <point x="158" y="593" type="curve" smooth="yes"/>
      <point x="36" y="105" type="line" smooth="yes"/>
      <point x="27" y="71"/>
      <point x="70" y="55"/>
    </contour>
    <contour>
      <point x="39" y="116" type="line"/>
      <point x="35" y="100" type="line" smooth="yes"/>
      <point x="24" y="55"/>
      <point x="54" y="0"/>
      <point x="91" y="0" type="curve" smooth="yes"/>
      <point x="438" y="0" type="line"/>
      <point x="444" y="11"/>
      <point x="449" y="25"/>
      <point x="453" y="42" type="curve" smooth="yes"/>
      <point x="466" y="94"/>
      <point x="457" y="116"/>
      <point x="423" y="116" type="curve" smooth="yes"/>
    </contour>
    <contour>
      <point x="468" y="551" type="move" name="caronslovak"/>
    </contour>
    <contour>
      <point x="250" y="711" type="move" name="top"/>
    </contour>
    <contour>
      <point x="470" y="400" type="move" name="dot"/>
    </contour>
    <contour>
      <point x="220" y="-1" type="move" name="bottom"/>
    </contour>
  </outline>
</glyph>
<glyph name="M" format="1">
  <advance width="800"/>
  <unicode hex="004D"/>
  <outline>
    <contour>
      <point x="115" y="-8" type="curve"/>
      <point x="122" y="35"/>
      <point x="131" y="77"/>
      <point x="143" y="121" type="curve" smooth="yes"/>
      <point x="182" y="281"/>
      <point x="247" y="474"/>
      <point x="324" y="649" type="curve" smooth="yes"/>
      <point x="333" y="667"/>
      <point x="328" y="684"/>
      <point x="322" y="692" type="curve" smooth="yes"/>
      <point x="312" y="705"/>
      <point x="292" y="710"/>
      <point x="254" y="710" type="curve" smooth="yes"/>
      <point x="236" y="710"/>
      <point x="221" y="708"/>
      <point x="203" y="705" type="curve"/>
      <point x="200" y="667"/>
      <point x="195" y="639"/>
      <point x="178" y="595" type="curve" smooth="yes"/>
      <point x="110" y="411"/>
      <point x="49" y="233"/>
      <point x="2" y="42" type="curve" smooth="yes"/>
      <point x="-2" y="30"/>
      <point x="0" y="19"/>
      <point x="6" y="12" type="curve" smooth="yes"/>
      <point x="17" y="-3"/>
      <point x="46" y="-10"/>
      <point x="87" y="-10" type="curve" smooth="yes"/>
      <point x="99" y="-10"/>
      <point x="109" y="-9"/>
    </contour>
    <contour>
      <point x="685" y="-4" type="curve"/>
      <point x="686" y="33"/>
      <point x="692" y="71"/>
      <point x="702" y="111" type="curve" smooth="yes"/>
      <point x="748" y="302"/>
      <point x="772" y="478"/>
      <point x="790" y="653" type="curve"/>
      <point x="792" y="667"/>
      <point x="790" y="677"/>
      <point x="784" y="686" type="curve" smooth="yes"/>
      <point x="771" y="702"/>
      <point x="731" y="710"/>
      <point x="682" y="710" type="curve" smooth="yes"/>
      <point x="679" y="710" type="line"/>
      <point x="677" y="686"/>
      <point x="674" y="660"/>
      <point x="671" y="635" type="curve"/>
      <point x="658" y="477"/>
      <point x="630" y="310"/>
      <point x="596" y="170" type="curve" smooth="yes"/>
      <point x="587" y="129"/>
      <point x="577" y="90"/>
      <point x="566" y="55" type="curve" smooth="yes"/>
      <point x="558" y="27"/>
      <point x="561" y="17"/>
      <point x="568" y="8" type="curve" smooth="yes"/>
      <point x="577" y="-5"/>
      <point x="595" y="-10"/>
      <point x="633" y="-10" type="curve" smooth="yes"/>
      <point x="652" y="-10"/>
      <point x="667" y="-8"/>
    </contour>
    <contour>
      <point x="379" y="668" type="curve" smooth="yes"/>
      <point x="380" y="692"/>
      <point x="343" y="710"/>
      <point x="265" y="710" type="curve"/>
      <point x="255" y="710" type="line"/>
      <point x="274" y="684"/>
      <point x="286" y="647"/>
      <point x="284" y="624" type="curve" smooth="yes"/>
      <point x="249" y="334"/>
      <point x="302" y="160"/>
      <point x="323" y="131" type="curve"/>
      <point x="335" y="116"/>
      <point x="343" y="112"/>
      <point x="365" y="112" type="curve" smooth="yes"/>
      <point x="390" y="112"/>
      <point x="409" y="133"/>
      <point x="419" y="179" type="curve"/>
      <point x="373" y="326"/>
      <point x="366" y="439"/>
    </contour>
    <contour>
      <point x="626" y="705" type="curve"/>
      <point x="526" y="466"/>
      <point x="441" y="330"/>
      <point x="340" y="205" type="curve"/>
      <point x="316" y="177"/>
      <point x="334" y="112"/>
      <point x="365" y="112" type="curve"/>
      <point x="395" y="112" type="line"/>
      <point x="534" y="274"/>
      <point x="678" y="548"/>
      <point x="708" y="666" type="curve" smooth="yes"/>
      <point x="715" y="693"/>
      <point x="706" y="710"/>
      <point x="679" y="710" type="curve" smooth="yes"/>
      <point x="662" y="710"/>
      <point x="644" y="709"/>
    </contour>
  </outline>
</glyph>
<glyph name="N" format="1">
  <advance width="700"/>
  <unicode hex="004E"/>
  <outline>
    <contour>
      <point x="132" y="-5" type="curve"/>
      <point x="206" y="290" type="line"/>
      <point x="264" y="521"/>
      <point x="284" y="671"/>
      <point x="264" y="697" type="curve" smooth="yes"/>
      <point x="259" y="703"/>
      <point x="250" y="710"/>
      <point x="242" y="710" type="curve"/>
      <point x="223" y="710"/>
      <point x="207" y="709"/>
      <point x="183" y="703" type="curve"/>
      <point x="182" y="667"/>
      <point x="175" y="627"/>
      <point x="166" y="593" type="curve" smooth="yes"/>
      <point x="28" y="42" type="line"/>
      <point x="19" y="4"/>
      <point x="61" y="-9"/>
      <point x="94" y="-9" type="curve"/>
      <point x="110" y="-9"/>
      <point x="120" y="-9"/>
    </contour>
    <contour>
      <point x="554" y="-10" type="line"/>
      <point x="723" y="663" type="line"/>
      <point x="731" y="696"/>
      <point x="692" y="710"/>
      <point x="639" y="710" type="curve"/>
      <point x="619" y="710" type="line"/>
      <point x="523" y="326" type="line"/>
      <point x="481" y="152"/>
      <point x="470" y="38"/>
      <point x="487" y="13" type="curve" smooth="yes"/>
      <point x="499" y="-2"/>
      <point x="519" y="-10"/>
      <point x="534" y="-10" type="curve"/>
    </contour>
    <contour>
      <point x="242" y="710" type="line"/>
      <point x="255" y="685"/>
      <point x="253" y="643"/>
      <point x="251" y="605" type="curve"/>
      <point x="249" y="336"/>
      <point x="362" y="130"/>
      <point x="442" y="22" type="curve"/>
      <point x="458" y="1"/>
      <point x="492" y="-10"/>
      <point x="534" y="-10" type="curve" smooth="yes"/>
      <point x="538" y="-10"/>
      <point x="538" y="-10"/>
      <point x="542" y="-10" type="curve"/>
      <point x="546" y="-10"/>
      <point x="553" y="11"/>
      <point x="555" y="65" type="curve"/>
      <point x="411" y="247"/>
      <point x="350" y="435"/>
      <point x="333" y="673" type="curve"/>
      <point x="332" y="696"/>
      <point x="290" y="710"/>
      <point x="245" y="710" type="curve"/>
    </contour>
    <contour>
      <point x="459" y="711" type="move" name="top"/>
    </contour>
    <contour>
      <point x="281" y="-1" type="move" name="bottom"/>
    </contour>
  </outline>
</glyph>
<glyph name="O" format="1">
  <advance width="650"/>
  <unicode hex="004F"/>
  <outline>
    <contour>
      <point x="426" y="720" type="curve" smooth="yes"/>
      <point x="258" y="720"/>
      <point x="150" y="616"/>
      <point x="90" y="375" type="curve" smooth="yes"/>
      <point x="82" y="347" type="line" smooth="yes"/>
      <point x="25" y="120"/>
      <point x="93" y="-20"/>
      <point x="268" y="-20" type="curve" smooth="yes"/>
      <point x="303" y="-20"/>
      <point x="328" y="16"/>
      <point x="341" y="68" type="curve"/>
      <point x="186" y="67"/>
      <point x="152" y="163"/>
      <point x="194" y="331" type="curve" smooth="yes"/>
      <point x="201" y="356" type="line" smooth="yes"/>
      <point x="249" y="553"/>
      <point x="319" y="605"/>
      <point x="409" y="605" type="curve" smooth="yes"/>
      <point x="459" y="605"/>
      <point x="494" y="590"/>
      <point x="529" y="567" type="curve"/>
      <point x="578" y="609"/>
      <point x="509" y="720"/>
    </contour>
    <contour>
      <point x="268" y="-20" type="curve" smooth="yes"/>
      <point x="438" y="-20"/>
      <point x="548" y="88"/>
      <point x="606" y="327" type="curve" smooth="yes"/>
      <point x="613" y="355" type="line" smooth="yes"/>
      <point x="669" y="579"/>
      <point x="599" y="720"/>
      <point x="426" y="720" type="curve" smooth="yes"/>
      <point x="391" y="720"/>
      <point x="366" y="684"/>
      <point x="353" y="632" type="curve"/>
      <point x="508" y="632"/>
      <point x="541" y="527"/>
      <point x="501" y="367" type="curve" smooth="yes"/>
      <point x="494" y="341" type="line" smooth="yes"/>
      <point x="447" y="151"/>
      <point x="376" y="95"/>
      <point x="286" y="95" type="curve" smooth="yes"/>
      <point x="235" y="95"/>
      <point x="198" y="108"/>
      <point x="166" y="134" type="curve"/>
      <point x="117" y="91"/>
      <point x="186" y="-20"/>
    </contour>
    <contour>
      <point x="437" y="711" type="move" name="top"/>
    </contour>
    <contour>
      <point x="360" y="-1" type="move" name="ogonek"/>
    </contour>
    <contour>
      <point x="259" y="-1" type="move" name="bottom"/>
    </contour>
  </outline>
</glyph>
<glyph name="Q" format="1">
  <advance width="650"/>
  <unicode hex="0051"/>
  <outline>
    <contour>
      <point x="426" y="720" type="curve" smooth="yes"/>
      <point x="258" y="720"/>
      <point x="150" y="616"/>
      <point x="90" y="375" type="curve" smooth="yes"/>
      <point x="82" y="347" type="line" smooth="yes"/>
      <point x="25" y="120"/>
      <point x="93" y="-20"/>
      <point x="268" y="-20" type="curve" smooth="yes"/>
      <point x="303" y="-20"/>
      <point x="328" y="16"/>
      <point x="341" y="68" type="curve"/>
      <point x="186" y="67"/>
      <point x="152" y="163"/>
      <point x="194" y="331" type="curve" smooth="yes"/>
      <point x="201" y="356" type="line" smooth="yes"/>
      <point x="249" y="553"/>
      <point x="319" y="605"/>
      <point x="409" y="605" type="curve" smooth="yes"/>
      <point x="459" y="605"/>
      <point x="494" y="590"/>
      <point x="529" y="567" type="curve"/>
      <point x="578" y="609"/>
      <point x="509" y="720"/>
    </contour>
    <contour>
      <point x="268" y="-20" type="curve" smooth="yes"/>
      <point x="438" y="-20"/>
      <point x="548" y="88"/>
      <point x="606" y="327" type="curve" smooth="yes"/>
      <point x="613" y="355" type="line" smooth="yes"/>
      <point x="669" y="579"/>
      <point x="599" y="720"/>
      <point x="426" y="720" type="curve" smooth="yes"/>
      <point x="391" y="720"/>
      <point x="366" y="684"/>
      <point x="354" y="632" type="curve"/>
      <point x="508" y="632"/>
      <point x="541" y="527"/>
      <point x="501" y="367" type="curve" smooth="yes"/>
      <point x="494" y="341" type="line" smooth="yes"/>
      <point x="447" y="151"/>
      <point x="376" y="95"/>
      <point x="285" y="95" type="curve" smooth="yes"/>
      <point x="235" y="95"/>
      <point x="198" y="108"/>
      <point x="166" y="134" type="curve"/>
      <point x="117" y="91"/>
      <point x="186" y="-20"/>
    </contour>
    <contour>
      <point x="412" y="112" type="line"/>
      <point x="333" y="74"/>
      <point x="312" y="47"/>
      <point x="319" y="24" type="curve" smooth="yes"/>
      <point x="353" y="-77" type="line" smooth="yes"/>
      <point x="375" y="-142"/>
      <point x="403" y="-175"/>
      <point x="451" y="-175" type="curve" smooth="yes"/>
      <point x="455" y="-175" type="line" smooth="yes"/>
      <point x="500" y="-175"/>
      <point x="533" y="-145"/>
      <point x="549" y="-84" type="curve" smooth="yes"/>
      <point x="555" y="-59"/>
      <point x="557" y="-42"/>
      <point x="557" y="-25" type="curve"/>
      <point x="553" y="-25" type="line"/>
      <point x="539" y="-34"/>
      <point x="528" y="-38"/>
      <point x="511" y="-38" type="curve" smooth="yes"/>
      <point x="480" y="-38"/>
      <point x="466" y="-27"/>
      <point x="455" y="2" type="curve" smooth="yes"/>
    </contour>
  </outline>
</glyph>
<glyph name="T" format="1">
  <advance width="600"/>
  <unicode hex="0054"/>
  <outline>
    <contour>
      <point x="147" y="700" type="line"/>
      <point x="143" y="693"/>
      <point x="139" y="684"/>
      <point x="137" y="672" type="curve" smooth="yes"/>
      <point x="130" y="645"/>
      <point x="131" y="624"/>
      <point x="143" y="608" type="curve" smooth="yes"/>
      <point x="155" y="592"/>
      <point x="178" y="588"/>
      <point x="234" y="588" type="curve" smooth="yes"/>
      <point x="634" y="588" type="line"/>
      <point x="640" y="600"/>
      <point x="646" y="614"/>
      <point x="650" y="631" type="curve" smooth="yes"/>
      <point x="660" y="671"/>
      <point x="660" y="700"/>
      <point x="618" y="700" type="curve" smooth="yes"/>
    </contour>
    <contour>
      <point x="303" y="-4" type="curve"/>
      <point x="304" y="31"/>
      <point x="311" y="68"/>
      <point x="321" y="107" type="curve" smooth="yes"/>
      <point x="425" y="526" type="line" smooth="yes"/>
      <point x="443" y="597"/>
      <point x="419" y="621"/>
      <point x="327" y="621" type="curve"/>
      <point x="186" y="57" type="line" smooth="yes"/>
      <point x="180" y="33"/>
      <point x="180" y="19"/>
      <point x="188" y="7" type="curve" smooth="yes"/>
      <point x="197" y="-5"/>
      <point x="214" y="-10"/>
      <point x="252" y="-10" type="curve" smooth="yes"/>
      <point x="270" y="-10"/>
      <point x="286" y="-8"/>
    </contour>
    <contour>
      <point x="408" y="711" type="move" name="top"/>
    </contour>
    <contour>
      <point x="232" y="-1" type="move" name="bottom"/>
    </contour>
  </outline>
</glyph>
<glyph name="U" format="1">
  <advance width="650"/>
  <unicode hex="0055"/>
  <outline>
    <contour>
      <point x="171" y="703" type="curve"/>
      <point x="171" y="668"/>
      <point x="165" y="629"/>
      <point x="154" y="582" type="curve" smooth="yes"/>
      <point x="44" y="146" type="line"/>
      <point x="34" y="105"/>
      <point x="67" y="89"/>
      <point x="128" y="96" type="curve"/>
      <point x="201" y="290"/>
      <point x="245" y="403"/>
      <point x="281" y="547" type="curve"/>
      <point x="283" y="555" type="line"/>
      <point x="313" y="674"/>
      <point x="284" y="709"/>
      <point x="221" y="709" type="curve"/>
      <point x="203" y="709"/>
      <point x="188" y="708"/>
    </contour>
    <contour>
      <point x="152" y="-13" type="curve" smooth="yes"/>
      <point x="229" y="-13"/>
      <point x="335" y="33"/>
      <point x="420" y="128" type="curve" smooth="yes"/>
      <point x="463" y="181"/>
      <point x="479" y="199"/>
      <point x="459" y="260" type="curve"/>
      <point x="360" y="151"/>
      <point x="277" y="115"/>
      <point x="199" y="115" type="curve" smooth="yes"/>
      <point x="156" y="115"/>
      <point x="135" y="136"/>
      <point x="141" y="203" type="curve"/>
      <point x="108" y="196"/>
      <point x="51" y="173"/>
      <point x="44" y="146" type="curve" smooth="yes"/>
      <point x="25" y="69"/>
      <point x="74" y="-13"/>
    </contour>
    <contour>
      <point x="511" y="-7" type="curve"/>
      <point x="514" y="28"/>
      <point x="522" y="64"/>
      <point x="531" y="101" type="curve" smooth="yes"/>
      <point x="671" y="663" type="line" smooth="yes"/>
      <point x="680" y="696"/>
      <point x="652" y="709"/>
      <point x="594" y="709" type="curve" smooth="yes"/>
      <point x="582" y="709"/>
      <point x="571" y="708"/>
      <point x="560" y="705" type="curve"/>
      <point x="402" y="74" type="line" smooth="yes"/>
      <point x="395" y="46"/>
      <point x="396" y="28"/>
      <point x="408" y="11" type="curve" smooth="yes"/>
      <point x="418" y="-2"/>
      <point x="445" y="-10"/>
      <point x="476" y="-10" type="curve" smooth="yes"/>
      <point x="490" y="-10"/>
      <point x="499" y="-9"/>
    </contour>
    <contour>
      <point x="432" y="711" type="move" name="top"/>
    </contour>
    <contour>
      <point x="511" y="-9" type="move" name="ogonek"/>
    </contour>
    <contour>
      <point x="430" y="708" type="move" name="ring"/>
    </contour>
    <contour>
      <point x="253" y="-1" type="move" name="bottom"/>
    </contour>
  </outline>
</glyph>
<glyph name="V" format="1">
  <advance width="650"/>
  <unicode hex="0056"/>
  <outline>
    <contour>
      <point x="185" y="710" type="curve"/>
      <point x="165" y="710" type="line"/>
      <point x="87" y="342"/>
      <point x="100" y="153"/>
      <point x="194" y="29" type="curve"/>
      <point x="218" y="-4"/>
      <point x="244" y="-10"/>
      <point x="269" y="-10" type="curve"/>
      <point x="304" y="-10"/>
      <point x="325" y="10"/>
      <point x="351" y="56" type="curve"/>
      <point x="346" y="56"/>
      <point x="344" y="56"/>
      <point x="341" y="56" type="curve" smooth="yes"/>
      <point x="334" y="56"/>
      <point x="329" y="58"/>
      <point x="321" y="65" type="curve"/>
      <point x="220" y="170"/>
      <point x="196" y="284"/>
      <point x="275" y="671" type="curve"/>
      <point x="280" y="693"/>
      <point x="256" y="710"/>
    </contour>
    <contour>
      <point x="605" y="710" type="curve"/>
      <point x="586" y="710" type="line"/>
      <point x="464" y="321"/>
      <point x="395" y="190"/>
      <point x="243" y="82" type="curve"/>
      <point x="217" y="65"/>
      <point x="220" y="-10"/>
      <point x="269" y="-10" type="curve"/>
      <point x="305" y="-10" type="line"/>
      <point x="472" y="107"/>
      <point x="590" y="316"/>
      <point x="692" y="652" type="curve"/>
      <point x="702" y="685"/>
      <point x="661" y="710"/>
    </contour>
  </outline>
</glyph>
<glyph name="W" format="1">
  <advance width="900"/>
  <unicode hex="0057"/>
  <outline>
    <contour>
      <point x="157" y="710" type="curve"/>
      <point x="73" y="357"/>
      <point x="55" y="159"/>
      <point x="134" y="33" type="curve"/>
      <point x="151" y="4"/>
      <point x="173" y="-10"/>
      <point x="197" y="-10" type="curve"/>
      <point x="220" y="-10" type="line" smooth="yes"/>
      <point x="238" y="-10"/>
      <point x="247" y="15"/>
      <point x="257" y="52" type="curve"/>
      <point x="177" y="135"/>
      <point x="182" y="284"/>
      <point x="267" y="667" type="curve"/>
      <point x="269" y="678"/>
      <point x="268" y="681"/>
      <point x="264" y="686" type="curve" smooth="yes"/>
      <point x="251" y="702"/>
      <point x="214" y="710"/>
      <point x="177" y="710" type="curve"/>
      <point x="170" y="710"/>
      <point x="164" y="710"/>
    </contour>
    <contour>
      <point x="843" y="710" type="curve"/>
      <point x="742" y="347"/>
      <point x="672" y="187"/>
      <point x="543" y="82" type="curve"/>
      <point x="510" y="58"/>
      <point x="524" y="-10"/>
      <point x="570" y="-10" type="curve"/>
      <point x="606" y="-10" type="line"/>
      <point x="749" y="102"/>
      <point x="873" y="354"/>
      <point x="951" y="651" type="curve" smooth="yes"/>
      <point x="953" y="661"/>
      <point x="954" y="668"/>
      <point x="950" y="673" type="curve" smooth="yes"/>
      <point x="934" y="694"/>
      <point x="899" y="710"/>
      <point x="862" y="710" type="curve"/>
      <point x="855" y="710"/>
      <point x="849" y="710"/>
    </contour>
    <contour>
      <point x="515" y="620" type="curve"/>
      <point x="484" y="620" type="line"/>
      <point x="386" y="349"/>
      <point x="299" y="177"/>
      <point x="181" y="75" type="curve"/>
      <point x="152" y="53"/>
      <point x="165" y="-10"/>
      <point x="197" y="-10" type="curve"/>
      <point x="234" y="-10" type="line"/>
      <point x="355" y="96"/>
      <point x="462" y="283"/>
      <point x="554" y="545" type="curve" smooth="yes"/>
      <point x="568" y="583"/>
      <point x="548" y="620"/>
    </contour>
    <contour>
      <point x="521" y="620" type="curve"/>
      <point x="506" y="620" type="line"/>
      <point x="460" y="324"/>
      <point x="448" y="136"/>
      <point x="505" y="31" type="curve" smooth="yes"/>
      <point x="524" y="2"/>
      <point x="543" y="-10"/>
      <point x="570" y="-10" type="curve"/>
      <point x="591" y="-10" type="line"/>
      <point x="602" y="-10"/>
      <point x="612" y="19"/>
      <point x="617" y="53" type="curve"/>
      <point x="539" y="151"/>
      <point x="545" y="281"/>
      <point x="589" y="579" type="curve" smooth="yes"/>
      <point x="591" y="599"/>
      <point x="560" y="620"/>
    </contour>
    <contour>
      <point x="561" y="711" type="move" name="top"/>
    </contour>
  </outline>
</glyph>
<glyph name="X" format="1">
  <advance width="650"/>
  <unicode hex="0058"/>
  <outline>
    <contour>
      <point x="489" y="-9" type="curve" smooth="yes"/>
      <point x="512" y="-9"/>
      <point x="530" y="-6"/>
      <point x="548" y="-1" type="curve"/>
      <point x="489" y="77"/>
      <point x="427" y="200"/>
      <point x="376" y="326" type="curve" smooth="yes"/>
      <point x="371" y="339"/>
      <point x="366" y="352"/>
      <point x="362" y="365" type="curve" smooth="yes"/>
      <point x="317" y="476"/>
      <point x="284" y="587"/>
      <point x="270" y="669" type="curve" smooth="yes"/>
      <point x="265" y="699"/>
      <point x="238" y="709"/>
      <point x="153" y="709" type="curve" smooth="yes"/>
      <point x="132" y="709" type="line"/>
      <point x="157" y="591"/>
      <point x="208" y="436"/>
      <point x="265" y="298" type="curve" smooth="yes"/>
      <point x="270" y="286"/>
      <point x="275" y="273"/>
      <point x="280" y="262" type="curve" smooth="yes"/>
      <point x="322" y="168"/>
      <point x="365" y="85"/>
      <point x="402" y="30" type="curve" smooth="yes"/>
      <point x="419" y="2"/>
      <point x="440" y="-9"/>
    </contour>
    <contour>
      <point x="610" y="709" type="curve" smooth="yes"/>
      <point x="593" y="709" type="line"/>
      <point x="513" y="552"/>
      <point x="436" y="451"/>
      <point x="330" y="364" type="curve"/>
      <point x="289" y="327"/>
      <point x="323" y="279"/>
      <point x="378" y="281" type="curve"/>
      <point x="533" y="397"/>
      <point x="622" y="501"/>
      <point x="708" y="652" type="curve"/>
      <point x="715" y="664"/>
      <point x="717" y="677"/>
      <point x="710" y="683" type="curve" smooth="yes"/>
      <point x="691" y="703"/>
      <point x="647" y="709"/>
    </contour>
    <contour>
      <point x="66" y="-9" type="curve"/>
      <point x="83" y="-9" type="line"/>
      <point x="146" y="96"/>
      <point x="220" y="178"/>
      <point x="309" y="248" type="curve"/>
      <point x="344" y="276"/>
      <point x="321" y="341"/>
      <point x="275" y="347" type="curve"/>
      <point x="134" y="240"/>
      <point x="37" y="149"/>
      <point x="-35" y="52" type="curve" smooth="yes"/>
      <point x="-44" y="40"/>
      <point x="-43" y="27"/>
      <point x="-36" y="19" type="curve" smooth="yes"/>
      <point x="-16" y="0"/>
      <point x="17" y="-9"/>
    </contour>
  </outline>
</glyph>
<glyph name="Y" format="1">
  <advance width="600"/>
  <unicode hex="0059"/>
  <outline>
    <contour>
      <point x="156" y="710" type="line"/>
      <point x="125" y="464"/>
      <point x="144" y="337"/>
      <point x="220" y="235" type="curve"/>
      <point x="242" y="207"/>
      <point x="266" y="203"/>
      <point x="288" y="203" type="curve"/>
      <point x="322" y="203"/>
      <point x="339" y="216"/>
      <point x="354" y="273" type="curve"/>
      <point x="259" y="348"/>
      <point x="240" y="440"/>
      <point x="268" y="671" type="curve"/>
      <point x="271" y="693"/>
      <point x="247" y="710"/>
      <point x="175" y="710" type="curve" smooth="yes"/>
    </contour>
    <contour>
      <point x="539" y="710" type="line"/>
      <point x="455" y="477"/>
      <point x="392" y="383"/>
      <point x="259" y="288" type="curve"/>
      <point x="228" y="266"/>
      <point x="247" y="203"/>
      <point x="288" y="203" type="curve"/>
      <point x="331" y="203" type="line"/>
      <point x="471" y="314"/>
      <point x="573" y="449"/>
      <point x="646" y="652" type="curve"/>
      <point x="657" y="685"/>
      <point x="620" y="710"/>
      <point x="558" y="710" type="curve"/>
    </contour>
    <contour>
      <point x="302" y="-4" type="curve"/>
      <point x="303" y="31"/>
      <point x="310" y="68"/>
      <point x="319" y="107" type="curve" smooth="yes"/>
      <point x="355" y="249" type="line" smooth="yes"/>
      <point x="363" y="281"/>
      <point x="314" y="301"/>
      <point x="245" y="301" type="curve"/>
      <point x="185" y="57" type="line" smooth="yes"/>
      <point x="179" y="33"/>
      <point x="178" y="18"/>
      <point x="186" y="7" type="curve" smooth="yes"/>
      <point x="196" y="-5"/>
      <point x="213" y="-10"/>
      <point x="251" y="-10" type="curve" smooth="yes"/>
      <point x="269" y="-10"/>
      <point x="284" y="-8"/>
    </contour>
    <contour>
      <point x="411" y="712" type="move" name="top"/>
    </contour>
  </outline>
</glyph>
<glyph name="Z" format="1">
  <advance width="600"/>
  <unicode hex="005A"/>
  <outline>
    <contour>
      <point x="217" y="700" type="line"/>
      <point x="213" y="693"/>
      <point x="209" y="681"/>
      <point x="206" y="670" type="curve" smooth="yes"/>
      <point x="198" y="639"/>
      <point x="200" y="616"/>
      <point x="212" y="601" type="curve" smooth="yes"/>
      <point x="219" y="591"/>
      <point x="225" y="588"/>
      <point x="240" y="588" type="curve" smooth="yes"/>
      <point x="466" y="588" type="line" smooth="yes"/>
      <point x="533" y="588"/>
      <point x="563" y="576"/>
      <point x="590" y="548" type="curve" smooth="yes"/>
      <point x="613" y="554"/>
      <point x="621" y="558"/>
      <point x="625" y="573" type="curve"/>
      <point x="627" y="583" type="line" smooth="yes"/>
      <point x="644" y="653"/>
      <point x="609" y="700"/>
      <point x="548" y="700" type="curve" smooth="yes"/>
    </contour>
    <contour>
      <point x="535" y="628" type="curve"/>
      <point x="412" y="427"/>
      <point x="283" y="302"/>
      <point x="13" y="105" type="curve"/>
      <point x="4" y="70"/>
      <point x="61" y="57"/>
      <point x="109" y="78" type="curve" smooth="yes"/>
      <point x="323" y="195"/>
      <point x="602" y="482"/>
      <point x="625" y="573" type="curve"/>
      <point x="636" y="619"/>
      <point x="603" y="627"/>
    </contour>
    <contour>
      <point x="479" y="0" type="line"/>
      <point x="482" y="6"/>
      <point x="485" y="14"/>
      <point x="488" y="24" type="curve" smooth="yes"/>
      <point x="496" y="57"/>
      <point x="494" y="77"/>
      <point x="479" y="97" type="curve" smooth="yes"/>
      <point x="470" y="108"/>
      <point x="460" y="112"/>
      <point x="441" y="112" type="curve" smooth="yes"/>
      <point x="305" y="112" type="line" smooth="yes"/>
      <point x="217" y="112"/>
      <point x="99" y="109"/>
      <point x="13" y="105" type="curve"/>
      <point x="9" y="92" type="line" smooth="yes"/>
      <point x="-5" y="35"/>
      <point x="2" y="0"/>
      <point x="30" y="0" type="curve" smooth="yes"/>
    </contour>
    <contour>
      <point x="236" y="481" type="curve"/>
      <point x="261" y="581"/>
      <point x="291" y="634"/>
      <point x="301" y="677" type="curve"/>
      <point x="308" y="702"/>
      <point x="267" y="720"/>
      <point x="214" y="720" type="curve" smooth="yes"/>
      <point x="207" y="720" type="line"/>
      <point x="175" y="659"/>
      <point x="150" y="594"/>
      <point x="133" y="525" type="curve"/>
      <point x="124" y="489"/>
      <point x="142" y="477"/>
      <point x="194" y="477" type="curve" smooth="yes"/>
      <point x="210" y="477"/>
      <point x="225" y="478"/>
    </contour>
    <contour>
      <point x="410" y="711" type="move" name="top"/>
    </contour>
  </outline>
</glyph>
<glyph name="bracketleft" format="1">
  <advance width="400"/>
  <unicode hex="005B"/>
  <outline>
    <contour>
      <point x="143" y="643" type="curve" smooth="yes"/>
      <point x="-30" y="-47" type="line" smooth="yes"/>
      <point x="-39" y="-86"/>
      <point x="26" y="-93"/>
      <point x="81" y="-93" type="curve"/>
      <point x="280" y="700" type="line" smooth="yes"/>
      <point x="291" y="747"/>
      <point x="278" y="760"/>
      <point x="215" y="760" type="curve" smooth="yes"/>
      <point x="195" y="760"/>
      <point x="179" y="758"/>
      <point x="160" y="754" type="curve"/>
      <point x="159" y="718"/>
      <point x="153" y="682"/>
    </contour>
    <contour>
      <point x="450" y="644" type="line"/>
      <point x="456" y="655"/>
      <point x="462" y="670"/>
      <point x="466" y="686" type="curve" smooth="yes"/>
      <point x="470" y="703"/>
      <point x="474" y="735"/>
      <point x="463" y="750" type="curve" smooth="yes"/>
      <point x="457" y="758"/>
      <point x="451" y="760"/>
      <point x="439" y="760" type="curve" smooth="yes"/>
      <point x="215" y="760" type="line"/>
      <point x="196" y="685"/>
      <point x="223" y="644"/>
      <point x="319" y="644" type="curve"/>
    </contour>
    <contour>
      <point x="251" y="-161" type="line"/>
      <point x="256" y="-150"/>
      <point x="261" y="-136"/>
      <point x="265" y="-119" type="curve" smooth="yes"/>
      <point x="278" y="-67"/>
      <point x="269" y="-45"/>
      <point x="235" y="-45" type="curve" smooth="yes"/>
      <point x="-29" y="-45" type="line"/>
      <point x="-33" y="-61" type="line" smooth="yes"/>
      <point x="-44" y="-106"/>
      <point x="-14" y="-161"/>
      <point x="23" y="-161" type="curve" smooth="yes"/>
    </contour>
  </outline>
</glyph>
<glyph name="backslash" format="1">
  <advance width="600"/>
  <unicode hex="005C"/>
  <outline>
    <contour>
      <point x="179" y="751" type="curve"/>
      <point x="173" y="439"/>
      <point x="211" y="164"/>
      <point x="293" y="-75" type="curve" smooth="yes"/>
      <point x="308" y="-118"/>
      <point x="335" y="-136"/>
      <point x="377" y="-136" type="curve" smooth="yes"/>
      <point x="403" y="-136"/>
      <point x="423" y="-132"/>
      <point x="447" y="-120" type="curve"/>
      <point x="432" y="-98"/>
      <point x="421" y="-74"/>
      <point x="411" y="-40" type="curve"/>
      <point x="338" y="190"/>
      <point x="304" y="442"/>
      <point x="307" y="716" type="curve"/>
      <point x="308" y="748"/>
      <point x="281" y="764"/>
      <point x="237" y="764" type="curve" smooth="yes"/>
      <point x="216" y="764"/>
      <point x="201" y="760"/>
    </contour>
  </outline>
</glyph>
<glyph name="bracketright" format="1">
  <advance width="400"/>
  <unicode hex="005D"/>
  <outline>
    <contour>
      <point x="273" y="-44" type="curve" smooth="yes"/>
      <point x="446" y="646" type="line" smooth="yes"/>
      <point x="455" y="685"/>
      <point x="390" y="692"/>
      <point x="335" y="692" type="curve"/>
      <point x="136" y="-101" type="line" smooth="yes"/>
      <point x="125" y="-148"/>
      <point x="138" y="-161"/>
      <point x="201" y="-161" type="curve" smooth="yes"/>
      <point x="221" y="-161"/>
      <point x="237" y="-159"/>
      <point x="256" y="-155" type="curve"/>
      <point x="257" y="-119"/>
      <point x="263" y="-83"/>
    </contour>
    <contour>
      <point x="-34" y="-45" type="line"/>
      <point x="-40" y="-56"/>
      <point x="-46" y="-71"/>
      <point x="-50" y="-87" type="curve" smooth="yes"/>
      <point x="-54" y="-104"/>
      <point x="-58" y="-136"/>
      <point x="-47" y="-151" type="curve" smooth="yes"/>
      <point x="-41" y="-159"/>
      <point x="-36" y="-161"/>
      <point x="-23" y="-161" type="curve" smooth="yes"/>
      <point x="201" y="-161" type="line"/>
      <point x="220" y="-86"/>
      <point x="193" y="-45"/>
      <point x="97" y="-45" type="curve"/>
    </contour>
    <contour>
      <point x="165" y="760" type="line"/>
      <point x="160" y="749"/>
      <point x="155" y="735"/>
      <point x="151" y="718" type="curve" smooth="yes"/>
      <point x="138" y="666"/>
      <point x="147" y="644"/>
      <point x="181" y="644" type="curve" smooth="yes"/>
      <point x="445" y="644" type="line"/>
      <point x="449" y="660" type="line" smooth="yes"/>
      <point x="460" y="705"/>
      <point x="430" y="760"/>
      <point x="393" y="760" type="curve" smooth="yes"/>
    </contour>
  </outline>
</glyph>
<glyph name="underscore" format="1">
  <advance width="600"/>
  <unicode hex="005F"/>
  <outline>
    <contour>
      <point x="-30" y="-67" type="line"/>
      <point x="-32" y="-72"/>
      <point x="-33" y="-77"/>
      <point x="-34" y="-83" type="curve" smooth="yes"/>
      <point x="-45" y="-127"/>
      <point x="-46" y="-153"/>
      <point x="-35" y="-168" type="curve" smooth="yes"/>
      <point x="-26" y="-179"/>
      <point x="-13" y="-183"/>
      <point x="19" y="-183" type="curve"/>
      <point x="437" y="-183" type="line"/>
      <point x="444" y="-168"/>
      <point x="450" y="-152"/>
      <point x="453" y="-138" type="curve" smooth="yes"/>
      <point x="466" y="-87"/>
      <point x="458" y="-67"/>
      <point x="415" y="-67" type="curve"/>
    </contour>
  </outline>
</glyph>
<glyph name="grave" format="1">
  <advance width="350"/>
  <unicode hex="0060"/>
  <outline>
    <contour>
      <point x="322" y="399" type="curve"/>
      <point x="292" y="485"/>
      <point x="293" y="575"/>
      <point x="328" y="713" type="curve"/>
      <point x="306" y="718"/>
      <point x="292" y="720"/>
      <point x="271" y="720" type="curve" smooth="yes"/>
      <point x="213" y="720"/>
      <point x="171" y="708"/>
      <point x="158" y="657" type="curve" smooth="yes"/>
      <point x="133" y="556"/>
      <point x="154" y="440"/>
      <point x="196" y="385" type="curve" smooth="yes"/>
      <point x="203" y="376"/>
      <point x="212" y="373"/>
      <point x="230" y="373" type="curve" smooth="yes"/>
      <point x="267" y="373"/>
      <point x="293" y="380"/>
    </contour>
  </outline>
</glyph>
<glyph name="a" format="1">
  <advance width="600"/>
  <unicode hex="0061"/>
  <outline>
    <contour>
      <point x="351" y="545" type="curve" smooth="yes"/>
      <point x="257" y="545"/>
      <point x="204" y="536"/>
      <point x="177" y="514" type="curve" smooth="yes"/>
      <point x="156" y="498"/>
      <point x="144" y="472"/>
      <point x="138" y="449" type="curve" smooth="yes"/>
      <point x="134" y="434"/>
      <point x="132" y="421"/>
      <point x="133" y="413" type="curve"/>
      <point x="137" y="413" type="line"/>
      <point x="190" y="429"/>
      <point x="233" y="437"/>
      <point x="297" y="437" type="curve" smooth="yes"/>
      <point x="413" y="437"/>
      <point x="446" y="407"/>
      <point x="460" y="316" type="curve"/>
      <point x="494" y="316"/>
      <point x="508" y="320"/>
      <point x="516" y="352" type="curve"/>
      <point x="541" y="449"/>
      <point x="463" y="545"/>
    </contour>
    <contour>
      <point x="392" y="464" type="curve"/>
      <point x="411" y="426"/>
      <point x="411" y="392"/>
      <point x="399" y="343" type="curve" smooth="yes"/>
      <point x="374" y="250"/>
      <point x="363" y="207"/>
      <point x="345" y="137" type="curve" smooth="yes"/>
      <point x="326" y="61"/>
      <point x="380" y="34"/>
      <point x="453" y="55" type="curve"/>
      <point x="447" y="73"/>
      <point x="447" y="86"/>
      <point x="455" y="113" type="curve" smooth="yes"/>
      <point x="479" y="205"/>
      <point x="493" y="261"/>
      <point x="516" y="352" type="curve" smooth="yes"/>
      <point x="530" y="404"/>
      <point x="475" y="488"/>
    </contour>
    <contour>
      <point x="519" y="104" type="line"/>
      <point x="516" y="104" type="line"/>
      <point x="510" y="102"/>
      <point x="503" y="101"/>
      <point x="497" y="101" type="curve" smooth="yes"/>
      <point x="469" y="101"/>
      <point x="443" y="113"/>
      <point x="440" y="172" type="curve"/>
      <point x="379" y="173"/>
      <point x="353" y="164"/>
      <point x="345" y="137" type="curve" smooth="yes"/>
      <point x="325" y="58"/>
      <point x="365" y="-10"/>
      <point x="436" y="-10" type="curve" smooth="yes"/>
      <point x="439" y="-10" type="line" smooth="yes"/>
      <point x="476" y="-10"/>
      <point x="505" y="50"/>
      <point x="516" y="92" type="curve"/>
    </contour>
    <contour>
      <point x="146" y="155" type="curve" smooth="yes"/>
      <point x="147" y="159" type="line" smooth="yes"/>
      <point x="160" y="208"/>
      <point x="177" y="225"/>
      <point x="200" y="246" type="curve"/>
      <point x="150" y="263"/>
      <point x="44" y="205"/>
      <point x="33" y="160" type="curve" smooth="yes"/>
      <point x="28" y="142" type="line" smooth="yes"/>
      <point x="5" y="54"/>
      <point x="53" y="-10"/>
      <point x="142" y="-10" type="curve" smooth="yes"/>
      <point x="224" y="-10"/>
      <point x="300" y="22"/>
      <point x="357" y="86" type="curve" smooth="yes"/>
      <point x="383" y="116"/>
      <point x="382" y="144"/>
      <point x="379" y="169" type="curve"/>
      <point x="309" y="111"/>
      <point x="249" y="92"/>
      <point x="205" y="92" type="curve" smooth="yes"/>
      <point x="202" y="92" type="line" smooth="yes"/>
      <point x="149" y="92"/>
      <point x="135" y="112"/>
    </contour>
    <contour>
      <point x="418" y="268" type="curve" smooth="yes"/>
      <point x="403" y="287"/>
      <point x="343" y="304"/>
      <point x="238" y="304" type="curve" smooth="yes"/>
      <point x="148" y="304"/>
      <point x="53" y="236"/>
      <point x="33" y="160" type="curve" smooth="yes"/>
      <point x="24" y="130"/>
      <point x="36" y="110"/>
      <point x="60" y="110" type="curve"/>
      <point x="117" y="192"/>
      <point x="177" y="225"/>
      <point x="264" y="225" type="curve" smooth="yes"/>
      <point x="317" y="225"/>
      <point x="369" y="219"/>
      <point x="420" y="206" type="curve"/>
      <point x="429" y="239"/>
      <point x="426" y="257"/>
    </contour>
    <contour>
      <point x="357" y="546" type="move" name="top"/>
    </contour>
    <contour>
      <point x="438" y="-1" type="move" name="ogonek"/>
    </contour>
    <contour>
      <point x="242" y="-1" type="move" name="bottom"/>
    </contour>
  </outline>
</glyph>
<glyph name="b" format="1">
  <advance width="600"/>
  <unicode hex="0062"/>
  <outline>
    <contour>
      <point x="7" y="0" type="line"/>
      <point x="17" y="-4"/>
      <point x="32" y="-5"/>
      <point x="49" y="-5" type="curve" smooth="yes"/>
      <point x="101" y="-5"/>
      <point x="127" y="18"/>
      <point x="139" y="63" type="curve" smooth="yes"/>
      <point x="301" y="683" type="line"/>
      <point x="313" y="735"/>
      <point x="295" y="757"/>
      <point x="238" y="757" type="curve" smooth="yes"/>
      <point x="221" y="757"/>
      <point x="204" y="756"/>
      <point x="188" y="751" type="curve"/>
      <point x="190" y="720"/>
      <point x="186" y="694"/>
      <point x="175" y="651" type="curve" smooth="yes"/>
    </contour>
    <contour>
      <point x="452" y="547" type="curve" smooth="yes"/>
      <point x="366" y="547"/>
      <point x="252" y="462"/>
      <point x="197" y="358" type="curve" smooth="yes"/>
      <point x="173" y="314"/>
      <point x="163" y="255"/>
      <point x="170" y="222" type="curve"/>
      <point x="262" y="374"/>
      <point x="337" y="428"/>
      <point x="412" y="428" type="curve" smooth="yes"/>
      <point x="461" y="428"/>
      <point x="495" y="392"/>
      <point x="509" y="313" type="curve"/>
      <point x="543" y="316"/>
      <point x="557" y="322"/>
      <point x="559" y="330" type="curve" smooth="yes"/>
      <point x="588" y="446"/>
      <point x="542" y="547"/>
    </contour>
    <contour>
      <point x="272" y="-11" type="curve" smooth="yes"/>
      <point x="402" y="-11"/>
      <point x="499" y="79"/>
      <point x="553" y="306" type="curve" smooth="yes"/>
      <point x="559" y="330" type="line" smooth="yes"/>
      <point x="571" y="382"/>
      <point x="558" y="472"/>
      <point x="492" y="472" type="curve"/>
      <point x="472" y="472"/>
      <point x="453" y="462"/>
      <point x="446" y="443" type="curve"/>
      <point x="455" y="403"/>
      <point x="453" y="378"/>
      <point x="436" y="314" type="curve" smooth="yes"/>
      <point x="432" y="298" type="line" smooth="yes"/>
      <point x="398" y="166"/>
      <point x="338" y="96"/>
      <point x="252" y="96" type="curve" smooth="yes"/>
      <point x="199" y="96"/>
      <point x="170" y="115"/>
      <point x="148" y="156" type="curve"/>
      <point x="132" y="137"/>
      <point x="123" y="106"/>
      <point x="132" y="83" type="curve" smooth="yes"/>
      <point x="137" y="43"/>
      <point x="194" y="-11"/>
    </contour>
  </outline>
</glyph>
<glyph name="c" format="1">
  <advance width="500"/>
  <unicode hex="0063"/>
  <outline>
    <contour>
      <point x="373" y="547" type="curve" smooth="yes"/>
      <point x="228" y="547"/>
      <point x="105" y="458"/>
      <point x="57" y="269" type="curve" smooth="yes"/>
      <point x="53" y="252" type="line" smooth="yes"/>
      <point x="7" y="72"/>
      <point x="97" y="-11"/>
      <point x="233" y="-11" type="curve" smooth="yes"/>
      <point x="258" y="-11"/>
      <point x="269" y="5"/>
      <point x="273" y="42" type="curve"/>
      <point x="171" y="55"/>
      <point x="141" y="139"/>
      <point x="164" y="232" type="curve" smooth="yes"/>
      <point x="167" y="245" type="line" smooth="yes"/>
      <point x="195" y="355"/>
      <point x="260" y="428"/>
      <point x="352" y="428" type="curve" smooth="yes"/>
      <point x="405" y="428"/>
      <point x="438" y="418"/>
      <point x="468" y="388" type="curve"/>
      <point x="472" y="388" type="line"/>
      <point x="486" y="405"/>
      <point x="492" y="419"/>
      <point x="499" y="445" type="curve"/>
      <point x="506" y="477"/>
      <point x="504" y="492"/>
      <point x="493" y="506" type="curve" smooth="yes"/>
      <point x="479" y="526"/>
      <point x="443" y="547"/>
    </contour>
    <contour>
      <point x="233" y="-11" type="curve" smooth="yes"/>
      <point x="305" y="-11"/>
      <point x="348" y="2"/>
      <point x="374" y="24" type="curve" smooth="yes"/>
      <point x="397" y="43"/>
      <point x="408" y="61"/>
      <point x="419" y="105" type="curve"/>
      <point x="423" y="122"/>
      <point x="425" y="141"/>
      <point x="425" y="155" type="curve"/>
      <point x="421" y="155" type="line"/>
      <point x="368" y="118"/>
      <point x="320" y="101"/>
      <point x="258" y="101" type="curve" smooth="yes"/>
      <point x="193" y="101"/>
      <point x="157" y="118"/>
      <point x="107" y="169" type="curve"/>
      <point x="49" y="89"/>
      <point x="106" y="-11"/>
    </contour>
    <contour>
      <point x="356" y="546" type="move" name="top"/>
    </contour>
    <contour>
      <point x="222" y="-1" type="move" name="bottom"/>
    </contour>
  </outline>
</glyph>
<glyph name="d" format="1">
  <advance width="600"/>
  <unicode hex="0064"/>
  <outline>
    <contour>
      <point x="324" y="547" type="curve" smooth="yes"/>
      <point x="194" y="547"/>
      <point x="96" y="455"/>
      <point x="42" y="228" type="curve" smooth="yes"/>
      <point x="37" y="206" type="line" smooth="yes"/>
      <point x="24" y="152"/>
      <point x="38" y="63"/>
      <point x="104" y="63" type="curve" smooth="yes"/>
      <point x="124" y="63"/>
      <point x="144" y="73"/>
      <point x="151" y="92" type="curve"/>
      <point x="142" y="132"/>
      <point x="143" y="157"/>
      <point x="159" y="220" type="curve" smooth="yes"/>
      <point x="164" y="236" type="line" smooth="yes"/>
      <point x="196" y="366"/>
      <point x="257" y="439"/>
      <point x="343" y="439" type="curve" smooth="yes"/>
      <point x="396" y="439"/>
      <point x="426" y="420"/>
      <point x="448" y="380" type="curve"/>
      <point x="463" y="399"/>
      <point x="471" y="427"/>
      <point x="463" y="450" type="curve" smooth="yes"/>
      <point x="457" y="492"/>
      <point x="403" y="547"/>
    </contour>
    <contour>
      <point x="143" y="-11" type="curve" smooth="yes"/>
      <point x="229" y="-11"/>
      <point x="344" y="74"/>
      <point x="399" y="177" type="curve" smooth="yes"/>
      <point x="422" y="221"/>
      <point x="432" y="280"/>
      <point x="426" y="313" type="curve"/>
      <point x="336" y="161"/>
      <point x="259" y="108"/>
      <point x="184" y="108" type="curve" smooth="yes"/>
      <point x="134" y="108"/>
      <point x="100" y="143"/>
      <point x="86" y="222" type="curve"/>
      <point x="53" y="219"/>
      <point x="38" y="214"/>
      <point x="37" y="206" type="curve" smooth="yes"/>
      <point x="8" y="90"/>
      <point x="54" y="-11"/>
    </contour>
    <contour>
      <point x="518" y="752" type="curve"/>
      <point x="518" y="719"/>
      <point x="514" y="695"/>
      <point x="504" y="654" type="curve" smooth="yes"/>
      <point x="377" y="164" type="line"/>
      <point x="356" y="83"/>
      <point x="351" y="40"/>
      <point x="366" y="19" type="curve" smooth="yes"/>
      <point x="379" y="1"/>
      <point x="406" y="-4"/>
      <point x="429" y="-4" type="curve" smooth="yes"/>
      <point x="440" y="-4"/>
      <point x="451" y="-3"/>
      <point x="462" y="0" type="curve"/>
      <point x="462" y="33"/>
      <point x="465" y="57"/>
      <point x="476" y="99" type="curve" smooth="yes"/>
      <point x="629" y="691" type="line"/>
      <point x="634" y="711"/>
      <point x="634" y="727"/>
      <point x="627" y="737" type="curve" smooth="yes"/>
      <point x="615" y="753"/>
      <point x="595" y="757"/>
      <point x="566" y="757" type="curve" smooth="yes"/>
      <point x="549" y="757"/>
      <point x="532" y="755"/>
    </contour>
    <contour>
      <point x="595" y="711" type="move" name="caronslovak"/>
    </contour>
  </outline>
</glyph>
<glyph name="e" format="1">
  <advance width="600"/>
  <unicode hex="0065"/>
  <outline>
    <contour>
      <point x="378" y="443" type="curve" smooth="yes"/>
      <point x="411" y="443"/>
      <point x="432" y="436"/>
      <point x="456" y="418" type="curve"/>
      <point x="477" y="433"/>
      <point x="490" y="452"/>
      <point x="495" y="469" type="curve"/>
      <point x="506" y="515"/>
      <point x="442" y="547"/>
      <point x="383" y="547" type="curve"/>
      <point x="238" y="547"/>
      <point x="116" y="468"/>
      <point x="69" y="295" type="curve" smooth="yes"/>
      <point x="66" y="285" type="line" smooth="yes"/>
      <point x="20" y="119"/>
      <point x="110" y="-11"/>
      <point x="274" y="-11" type="curve" smooth="yes"/>
      <point x="312" y="-11"/>
      <point x="329" y="22"/>
      <point x="339" y="57" type="curve"/>
      <point x="167" y="57"/>
      <point x="153" y="169"/>
      <point x="172" y="243" type="curve" smooth="yes"/>
      <point x="175" y="253" type="line" smooth="yes"/>
      <point x="210" y="389"/>
      <point x="283" y="443"/>
    </contour>
    <contour>
      <point x="441" y="31" type="curve" smooth="yes"/>
      <point x="460" y="48"/>
      <point x="476" y="73"/>
      <point x="486" y="112" type="curve" smooth="yes"/>
      <point x="488" y="123"/>
      <point x="490" y="137"/>
      <point x="490" y="151" type="curve"/>
      <point x="486" y="151" type="line"/>
      <point x="419" y="111"/>
      <point x="360" y="94"/>
      <point x="277" y="94" type="curve" smooth="yes"/>
      <point x="183" y="94"/>
      <point x="151" y="119"/>
      <point x="102" y="178" type="curve"/>
      <point x="37" y="79"/>
      <point x="161" y="-11"/>
      <point x="274" y="-11" type="curve" smooth="yes"/>
      <point x="356" y="-11"/>
      <point x="409" y="4"/>
    </contour>
    <contour>
      <point x="307" y="210" type="line" smooth="yes"/>
      <point x="455" y="210"/>
      <point x="535" y="260"/>
      <point x="558" y="353" type="curve" smooth="yes"/>
      <point x="560" y="361" type="line" smooth="yes"/>
      <point x="584" y="456"/>
      <point x="510" y="547"/>
      <point x="383" y="547" type="curve" smooth="yes"/>
      <point x="361" y="547"/>
      <point x="340" y="517"/>
      <point x="329" y="473" type="curve"/>
      <point x="408" y="473"/>
      <point x="459" y="432"/>
      <point x="444" y="368" type="curve" smooth="yes"/>
      <point x="442" y="360" type="line" smooth="yes"/>
      <point x="431" y="312"/>
      <point x="384" y="286"/>
      <point x="300" y="286" type="curve" smooth="yes"/>
      <point x="224" y="286"/>
      <point x="186" y="294"/>
      <point x="162" y="308" type="curve"/>
      <point x="147" y="280"/>
      <point x="145" y="263"/>
      <point x="158" y="246" type="curve" smooth="yes"/>
      <point x="173" y="226"/>
      <point x="222" y="210"/>
      <point x="301" y="210" type="curve" smooth="yes"/>
    </contour>
    <contour>
      <point x="391" y="546" type="move" name="top"/>
    </contour>
    <contour>
      <point x="410" y="30" type="move" name="ogonek"/>
    </contour>
    <contour>
      <point x="232" y="-1" type="move" name="bottom"/>
    </contour>
  </outline>
</glyph>
<glyph name="f" format="1">
  <advance width="450"/>
  <unicode hex="0066"/>
  <outline>
    <contour>
      <point x="193" y="-6" type="curve"/>
      <point x="193" y="27"/>
      <point x="198" y="57"/>
      <point x="208" y="97" type="curve" smooth="yes"/>
      <point x="313" y="518" type="line" smooth="yes"/>
      <point x="313" y="553"/>
      <point x="318" y="586"/>
      <point x="328" y="629" type="curve" smooth="yes"/>
      <point x="344" y="692"/>
      <point x="397" y="727"/>
      <point x="461" y="726" type="curve"/>
      <point x="467" y="749"/>
      <point x="459" y="766"/>
      <point x="436" y="766" type="curve" smooth="yes"/>
      <point x="321" y="766"/>
      <point x="239" y="712"/>
      <point x="212" y="601" type="curve" smooth="yes"/>
      <point x="76" y="59" type="line" smooth="yes"/>
      <point x="63" y="8"/>
      <point x="94" y="-7"/>
      <point x="174" y="-7" type="curve" smooth="yes"/>
      <point x="181" y="-7"/>
      <point x="187" y="-7"/>
    </contour>
    <contour>
      <point x="277" y="622" type="curve"/>
      <point x="322" y="649"/>
      <point x="361" y="660"/>
      <point x="403" y="660" type="curve" smooth="yes"/>
      <point x="458" y="660"/>
      <point x="498" y="648"/>
      <point x="522" y="634" type="curve"/>
      <point x="526" y="634" type="line"/>
      <point x="532" y="646"/>
      <point x="537" y="659"/>
      <point x="540" y="672" type="curve"/>
      <point x="547" y="699"/>
      <point x="547" y="725"/>
      <point x="536" y="740" type="curve" smooth="yes"/>
      <point x="526" y="754"/>
      <point x="494" y="766"/>
      <point x="436" y="766" type="curve" smooth="yes"/>
      <point x="333" y="766"/>
      <point x="257" y="688"/>
    </contour>
    <contour>
      <point x="103" y="522" type="curve"/>
      <point x="102" y="517"/>
      <point x="100" y="512"/>
      <point x="99" y="506" type="curve" smooth="yes"/>
      <point x="89" y="467"/>
      <point x="90" y="444"/>
      <point x="101" y="429" type="curve" smooth="yes"/>
      <point x="113" y="414"/>
      <point x="126" y="406"/>
      <point x="171" y="406" type="curve" smooth="yes"/>
      <point x="309" y="406"/>
      <point x="329" y="406"/>
      <point x="448" y="406" type="curve"/>
      <point x="454" y="419"/>
      <point x="460" y="435"/>
      <point x="464" y="451" type="curve" smooth="yes"/>
      <point x="477" y="502"/>
      <point x="469" y="522"/>
      <point x="426" y="522" type="curve" smooth="yes"/>
      <point x="347" y="522"/>
      <point x="239" y="522"/>
    </contour>
  </outline>
</glyph>
<glyph name="g" format="1">
  <advance width="600"/>
  <unicode hex="0067"/>
  <outline>
    <contour>
      <point x="360" y="447" type="curve" smooth="yes"/>
      <point x="493" y="447"/>
      <point x="540" y="433"/>
      <point x="574" y="433" type="curve" smooth="yes"/>
      <point x="604" y="433"/>
      <point x="621" y="461"/>
      <point x="632" y="500" type="curve" smooth="yes"/>
      <point x="635" y="514"/>
      <point x="637" y="529"/>
      <point x="636" y="537" type="curve"/>
      <point x="560" y="544"/>
      <point x="491" y="549"/>
      <point x="388" y="549" type="curve" smooth="yes"/>
      <point x="222" y="549"/>
      <point x="133" y="488"/>
      <point x="103" y="368" type="curve" smooth="yes"/>
      <point x="101" y="359" type="line" smooth="yes"/>
      <point x="71" y="240"/>
      <point x="154" y="152"/>
      <point x="285" y="154" type="curve"/>
      <point x="320" y="154"/>
      <point x="327" y="165"/>
      <point x="337" y="205" type="curve"/>
      <point x="222" y="208"/>
      <point x="187" y="281"/>
      <point x="202" y="341" type="curve" smooth="yes"/>
      <point x="203" y="348" type="line" smooth="yes"/>
      <point x="222" y="422"/>
      <point x="273" y="447"/>
    </contour>
    <contour>
      <point x="292" y="253" type="curve" smooth="yes"/>
      <point x="236" y="253"/>
      <point x="206" y="261"/>
      <point x="170" y="287" type="curve"/>
      <point x="135" y="232"/>
      <point x="189" y="154"/>
      <point x="285" y="154" type="curve" smooth="yes"/>
      <point x="419" y="154"/>
      <point x="494" y="205"/>
      <point x="518" y="299" type="curve" smooth="yes"/>
      <point x="520" y="309" type="line" smooth="yes"/>
      <point x="537" y="375"/>
      <point x="511" y="437"/>
      <point x="454" y="464" type="curve" smooth="yes"/>
      <point x="432" y="476"/>
      <point x="390" y="470"/>
      <point x="379" y="461" type="curve"/>
      <point x="430" y="436"/>
      <point x="435" y="382"/>
      <point x="426" y="344" type="curve" smooth="yes"/>
      <point x="424" y="335" type="line" smooth="yes"/>
      <point x="410" y="277"/>
      <point x="368" y="253"/>
    </contour>
    <contour>
      <point x="110" y="73" type="curve" smooth="yes"/>
      <point x="109" y="69" type="line" smooth="yes"/>
      <point x="93" y="4"/>
      <point x="132" y="-34"/>
      <point x="211" y="-40" type="curve" smooth="yes"/>
      <point x="320" y="-47" type="line" smooth="yes"/>
      <point x="353" y="-49"/>
      <point x="365" y="-65"/>
      <point x="358" y="-94" type="curve" smooth="yes"/>
      <point x="356" y="-101" type="line" smooth="yes"/>
      <point x="342" y="-163"/>
      <point x="281" y="-207"/>
      <point x="144" y="-207" type="curve"/>
      <point x="137" y="-237"/>
      <point x="139" y="-250"/>
      <point x="162" y="-250" type="curve" smooth="yes"/>
      <point x="340" y="-250"/>
      <point x="438" y="-213"/>
      <point x="472" y="-86" type="curve" smooth="yes"/>
      <point x="474" y="-76" type="line" smooth="yes"/>
      <point x="493" y="-5"/>
      <point x="454" y="52"/>
      <point x="378" y="58" type="curve" smooth="yes"/>
      <point x="257" y="67" type="line" smooth="yes"/>
      <point x="231" y="69"/>
      <point x="222" y="82"/>
      <point x="227" y="105" type="curve" smooth="yes"/>
      <point x="228" y="108" type="line" smooth="yes"/>
      <point x="234" y="131"/>
      <point x="247" y="153"/>
      <point x="273" y="175" type="curve"/>
      <point x="274" y="187"/>
      <point x="269" y="191"/>
      <point x="255" y="191" type="curve" smooth="yes"/>
      <point x="203" y="191"/>
      <point x="126" y="137"/>
    </contour>
    <contour>
      <point x="398" y="-123" type="curve"/>
      <point x="334" y="-158"/>
      <point x="283" y="-167"/>
      <point x="178" y="-167" type="curve" smooth="yes"/>
      <point x="153" y="-167" type="line" smooth="yes"/>
      <point x="83" y="-167"/>
      <point x="59" y="-144"/>
      <point x="70" y="-98" type="curve" smooth="yes"/>
      <point x="72" y="-90" type="line" smooth="yes"/>
      <point x="84" y="-42"/>
      <point x="112" y="-17"/>
      <point x="170" y="2" type="curve"/>
      <point x="173" y="21"/>
      <point x="153" y="32"/>
      <point x="127" y="31" type="curve" smooth="yes"/>
      <point x="38" y="28"/>
      <point x="-26" y="-12"/>
      <point x="-45" y="-92" type="curve" smooth="yes"/>
      <point x="-47" y="-101" type="line" smooth="yes"/>
      <point x="-68" y="-184"/>
      <point x="-6" y="-250"/>
      <point x="140" y="-250" type="curve" smooth="yes"/>
      <point x="162" y="-250" type="line" smooth="yes"/>
      <point x="310" y="-250"/>
      <point x="400" y="-182"/>
    </contour>
  </outline>
</glyph>
<glyph name="h" format="1">
  <advance width="600"/>
  <unicode hex="0068"/>
  <outline>
    <contour>
      <point x="127" y="-2" type="curve"/>
      <point x="299" y="658" type="line" smooth="yes"/>
      <point x="308" y="695"/>
      <point x="307" y="715"/>
      <point x="296" y="729" type="curve" smooth="yes"/>
      <point x="282" y="748"/>
      <point x="257" y="755"/>
      <point x="222" y="755" type="curve" smooth="yes"/>
      <point x="211" y="755"/>
      <point x="199" y="754"/>
      <point x="188" y="752" type="curve"/>
      <point x="188" y="719"/>
      <point x="185" y="694"/>
      <point x="175" y="652" type="curve" smooth="yes"/>
      <point x="18" y="43" type="line" smooth="yes"/>
      <point x="7" y="1"/>
      <point x="40" y="-6"/>
      <point x="85" y="-6" type="curve" smooth="yes"/>
      <point x="101" y="-6"/>
      <point x="116" y="-4"/>
    </contour>
    <contour>
      <point x="460" y="547" type="curve" smooth="yes"/>
      <point x="372" y="547"/>
      <point x="263" y="453"/>
      <point x="197" y="337" type="curve" smooth="yes"/>
      <point x="163" y="269"/>
      <point x="148" y="196"/>
      <point x="154" y="137" type="curve"/>
      <point x="247" y="335"/>
      <point x="336" y="424"/>
      <point x="403" y="424" type="curve" smooth="yes"/>
      <point x="438" y="424"/>
      <point x="456" y="397"/>
      <point x="456" y="340" type="curve"/>
      <point x="504" y="341"/>
      <point x="538" y="359"/>
      <point x="543" y="381" type="curve" smooth="yes"/>
      <point x="564" y="460"/>
      <point x="534" y="547"/>
    </contour>
    <contour>
      <point x="463" y="0" type="curve"/>
      <point x="463" y="54"/>
      <point x="468" y="89"/>
      <point x="484" y="147" type="curve" smooth="yes"/>
      <point x="543" y="381" type="line"/>
      <point x="553" y="416"/>
      <point x="534" y="436"/>
      <point x="465" y="434" type="curve"/>
      <point x="411" y="311"/>
      <point x="377" y="227"/>
      <point x="355" y="142" type="curve" smooth="yes"/>
      <point x="351" y="130" type="line" smooth="yes"/>
      <point x="323" y="24"/>
      <point x="355" y="-5"/>
      <point x="420" y="-5" type="curve" smooth="yes"/>
      <point x="435" y="-5"/>
      <point x="448" y="-3"/>
    </contour>
    <contour>
      <point x="251" y="730" type="move" name="top"/>
    </contour>
  </outline>
</glyph>
<glyph name="i" format="1">
  <advance width="350"/>
  <unicode hex="0069"/>
  <outline>
    <contour>
      <point x="111" y="539" type="curve"/>
      <point x="105" y="528"/>
      <point x="100" y="514"/>
      <point x="96" y="498" type="curve" smooth="yes"/>
      <point x="83" y="447"/>
      <point x="95" y="428"/>
      <point x="115" y="428" type="curve" smooth="yes"/>
      <point x="134" y="428"/>
      <point x="164" y="439"/>
      <point x="225" y="439" type="curve"/>
      <point x="240" y="499"/>
      <point x="254" y="545"/>
      <point x="216" y="545" type="curve" smooth="yes"/>
      <point x="184" y="545"/>
      <point x="150" y="544"/>
    </contour>
    <contour>
      <point x="203" y="-5" type="curve"/>
      <point x="203" y="28"/>
      <point x="208" y="58"/>
      <point x="218" y="98" type="curve" smooth="yes"/>
      <point x="320" y="500" type="line" smooth="yes"/>
      <point x="328" y="533"/>
      <point x="299" y="545"/>
      <point x="225" y="545" type="curve" smooth="yes"/>
      <point x="216" y="545" type="line"/>
      <point x="92" y="57" type="line" smooth="yes"/>
      <point x="79" y="8"/>
      <point x="103" y="-7"/>
      <point x="179" y="-7" type="curve" smooth="yes"/>
      <point x="188" y="-7"/>
      <point x="195" y="-7"/>
    </contour>
    <contour>
      <point x="366" y="628" type="curve"/>
      <point x="384" y="700" type="line" smooth="yes"/>
      <point x="395" y="743"/>
      <point x="362" y="753"/>
      <point x="314" y="753" type="curve" smooth="yes"/>
      <point x="294" y="753"/>
      <point x="271" y="752"/>
      <point x="251" y="748" type="curve"/>
      <point x="232" y="676" type="line" smooth="yes"/>
      <point x="222" y="633"/>
      <point x="255" y="623"/>
      <point x="303" y="623" type="curve" smooth="yes"/>
      <point x="322" y="623"/>
      <point x="346" y="625"/>
    </contour>
    <contour>
      <point x="385" y="-1" type="move" name="ogonek"/>
    </contour>
    <contour>
      <point x="235" y="-1" type="move" name="bottom"/>
    </contour>
  </outline>
</glyph>
<glyph name="j" format="1">
  <advance width="350"/>
  <unicode hex="006A"/>
  <outline>
    <contour>
      <point x="119" y="538" type="curve"/>
      <point x="113" y="527"/>
      <point x="108" y="512"/>
      <point x="104" y="496" type="curve" smooth="yes"/>
      <point x="92" y="446"/>
      <point x="103" y="426"/>
      <point x="123" y="426" type="curve" smooth="yes"/>
      <point x="143" y="426"/>
      <point x="177" y="439"/>
      <point x="243" y="439" type="curve"/>
      <point x="261" y="510"/>
      <point x="262" y="545"/>
      <point x="234" y="545" type="curve" smooth="yes"/>
      <point x="204" y="545"/>
      <point x="153" y="542"/>
    </contour>
    <contour>
      <point x="199" y="-49" type="curve" smooth="yes"/>
      <point x="336" y="491" type="line" smooth="yes"/>
      <point x="339" y="505"/>
      <point x="338" y="511"/>
      <point x="331" y="520" type="curve" smooth="yes"/>
      <point x="319" y="537"/>
      <point x="282" y="545"/>
      <point x="242" y="545" type="curve" smooth="yes"/>
      <point x="234" y="545" type="line"/>
      <point x="88" y="-28" type="line" smooth="yes"/>
      <point x="68" y="-109"/>
      <point x="48" y="-146"/>
      <point x="6" y="-189" type="curve"/>
      <point x="54" y="-208"/>
      <point x="178" y="-130"/>
    </contour>
    <contour>
      <point x="1" y="-139" type="curve" smooth="yes"/>
      <point x="-31" y="-139"/>
      <point x="-49" y="-134"/>
      <point x="-74" y="-120" type="curve"/>
      <point x="-78" y="-120" type="line"/>
      <point x="-83" y="-129"/>
      <point x="-86" y="-137"/>
      <point x="-89" y="-148" type="curve" smooth="yes"/>
      <point x="-97" y="-179"/>
      <point x="-96" y="-211"/>
      <point x="-84" y="-227" type="curve" smooth="yes"/>
      <point x="-75" y="-240"/>
      <point x="-55" y="-250"/>
      <point x="-17" y="-250" type="curve" smooth="yes"/>
      <point x="94" y="-250"/>
      <point x="161" y="-186"/>
      <point x="199" y="-49" type="curve" smooth="yes"/>
      <point x="209" y="-11"/>
      <point x="191" y="-9"/>
      <point x="175" y="-9" type="curve"/>
      <point x="132" y="-99"/>
      <point x="65" y="-139"/>
    </contour>
    <contour>
      <point x="381" y="628" type="curve"/>
      <point x="399" y="700" type="line" smooth="yes"/>
      <point x="410" y="743"/>
      <point x="377" y="753"/>
      <point x="328" y="753" type="curve" smooth="yes"/>
      <point x="309" y="753"/>
      <point x="285" y="752"/>
      <point x="265" y="748" type="curve"/>
      <point x="247" y="676" type="line" smooth="yes"/>
      <point x="236" y="633"/>
      <point x="270" y="623"/>
      <point x="318" y="623" type="curve" smooth="yes"/>
      <point x="337" y="623"/>
      <point x="361" y="625"/>
    </contour>
  </outline>
</glyph>
<glyph name="l" format="1">
  <advance width="300"/>
  <unicode hex="006C"/>
  <outline>
    <contour>
      <point x="168" y="653" type="curve"/>
      <point x="38" y="132" type="line" smooth="yes"/>
      <point x="20" y="60"/>
      <point x="86" y="8"/>
      <point x="142" y="22" type="curve"/>
      <point x="143" y="69"/>
      <point x="152" y="112"/>
      <point x="167" y="172" type="curve" smooth="yes"/>
      <point x="287" y="654" type="line" smooth="yes"/>
      <point x="298" y="696"/>
      <point x="299" y="714"/>
      <point x="285" y="732" type="curve" smooth="yes"/>
      <point x="272" y="751"/>
      <point x="249" y="756"/>
      <point x="215" y="756" type="curve" smooth="yes"/>
      <point x="204" y="756"/>
      <point x="192" y="755"/>
      <point x="180" y="752" type="curve"/>
      <point x="182" y="719"/>
      <point x="178" y="695"/>
    </contour>
    <contour>
      <point x="245" y="123" type="curve"/>
      <point x="241" y="123" type="line"/>
      <point x="222" y="113"/>
      <point x="204" y="106"/>
      <point x="181" y="106" type="curve" smooth="yes"/>
      <point x="140" y="106"/>
      <point x="127" y="124"/>
      <point x="127" y="176" type="curve"/>
      <point x="71" y="176"/>
      <point x="43" y="155"/>
      <point x="38" y="132" type="curve" smooth="yes"/>
      <point x="16" y="46"/>
      <point x="63" y="-10"/>
      <point x="132" y="-10" type="curve" smooth="yes"/>
      <point x="140" y="-10" type="line" smooth="yes"/>
      <point x="168" y="-10"/>
      <point x="189" y="-4"/>
      <point x="205" y="9" type="curve" smooth="yes"/>
      <point x="221" y="21"/>
      <point x="231" y="40"/>
      <point x="240" y="85" type="curve" smooth="yes"/>
      <point x="242" y="97"/>
      <point x="244" y="113"/>
    </contour>
    <contour>
      <point x="433" y="711" type="move" name="caronslovak"/>
    </contour>
    <contour>
      <point x="247" y="740" type="move" name="top"/>
    </contour>
    <contour>
      <point x="355" y="400" type="move" name="dot"/>
    </contour>
    <contour>
      <point x="105" y="-1" type="move" name="bottom"/>
    </contour>
  </outline>
</glyph>
<glyph name="m" format="1">
  <advance width="850"/>
  <unicode hex="006D"/>
  <outline>
    <contour>
      <point x="140" y="-2" type="curve"/>
      <point x="252" y="439" type="line" smooth="yes"/>
      <point x="263" y="482"/>
      <point x="262" y="500"/>
      <point x="250" y="518" type="curve" smooth="yes"/>
      <point x="236" y="536"/>
      <point x="201" y="541"/>
      <point x="177" y="541" type="curve" smooth="yes"/>
      <point x="166" y="541"/>
      <point x="154" y="540"/>
      <point x="143" y="537" type="curve"/>
      <point x="143" y="504"/>
      <point x="140" y="479"/>
      <point x="130" y="438" type="curve" smooth="yes"/>
      <point x="29" y="43" type="line" smooth="yes"/>
      <point x="19" y="1"/>
      <point x="53" y="-6"/>
      <point x="98" y="-6" type="curve" smooth="yes"/>
      <point x="114" y="-6"/>
      <point x="129" y="-5"/>
    </contour>
    <contour>
      <point x="443" y="547" type="curve" smooth="yes"/>
      <point x="347" y="547"/>
      <point x="262" y="455"/>
      <point x="208" y="351" type="curve" smooth="yes"/>
      <point x="177" y="288"/>
      <point x="160" y="219"/>
      <point x="174" y="170" type="curve"/>
      <point x="255" y="361"/>
      <point x="324" y="424"/>
      <point x="378" y="424" type="curve" smooth="yes"/>
      <point x="417" y="424"/>
      <point x="437" y="398"/>
      <point x="435" y="340" type="curve"/>
      <point x="486" y="341"/>
      <point x="520" y="363"/>
      <point x="526" y="387" type="curve" smooth="yes"/>
      <point x="545" y="460"/>
      <point x="511" y="547"/>
    </contour>
    <contour>
      <point x="428" y="0" type="curve"/>
      <point x="526" y="387" type="line"/>
      <point x="534" y="416"/>
      <point x="515" y="437"/>
      <point x="443" y="436" type="curve"/>
      <point x="395" y="317"/>
      <point x="358" y="222"/>
      <point x="335" y="133" type="curve" smooth="yes"/>
      <point x="333" y="126" type="line" smooth="yes"/>
      <point x="304" y="20"/>
      <point x="331" y="-5"/>
      <point x="393" y="-5" type="curve" smooth="yes"/>
      <point x="406" y="-5"/>
      <point x="416" y="-4"/>
    </contour>
    <contour>
      <point x="730" y="547" type="curve" smooth="yes"/>
      <point x="634" y="547"/>
      <point x="548" y="457"/>
      <point x="494" y="353" type="curve" smooth="yes"/>
      <point x="463" y="290"/>
      <point x="445" y="219"/>
      <point x="459" y="170" type="curve"/>
      <point x="540" y="361"/>
      <point x="611" y="424"/>
      <point x="666" y="424" type="curve" smooth="yes"/>
      <point x="704" y="424"/>
      <point x="724" y="398"/>
      <point x="722" y="340" type="curve"/>
      <point x="773" y="341"/>
      <point x="807" y="363"/>
      <point x="813" y="387" type="curve" smooth="yes"/>
      <point x="832" y="461"/>
      <point x="798" y="547"/>
    </contour>
    <contour>
      <point x="732" y="0" type="curve"/>
      <point x="732" y="54"/>
      <point x="737" y="89"/>
      <point x="752" y="147" type="curve" smooth="yes"/>
      <point x="813" y="387" type="line"/>
      <point x="821" y="418"/>
      <point x="802" y="439"/>
      <point x="730" y="437" type="curve"/>
      <point x="680" y="312"/>
      <point x="645" y="226"/>
      <point x="622" y="134" type="curve" smooth="yes"/>
      <point x="620" y="129" type="line" smooth="yes"/>
      <point x="593" y="23"/>
      <point x="624" y="-5"/>
      <point x="689" y="-5" type="curve" smooth="yes"/>
      <point x="704" y="-5"/>
      <point x="717" y="-3"/>
    </contour>
  </outline>
</glyph>
<glyph name="n" format="1">
  <advance width="600"/>
  <unicode hex="006E"/>
  <outline>
    <contour>
      <point x="129" y="-4" type="curve"/>
      <point x="227" y="372" type="line" smooth="yes"/>
      <point x="247" y="448"/>
      <point x="241" y="490"/>
      <point x="226" y="513" type="curve" smooth="yes"/>
      <point x="214" y="530"/>
      <point x="197" y="539"/>
      <point x="167" y="539" type="curve" smooth="yes"/>
      <point x="157" y="539"/>
      <point x="146" y="538"/>
      <point x="134" y="536" type="curve"/>
      <point x="134" y="503"/>
      <point x="131" y="475"/>
      <point x="120" y="434" type="curve" smooth="yes"/>
      <point x="19" y="41" type="line" smooth="yes"/>
      <point x="7" y="-1"/>
      <point x="41" y="-8"/>
      <point x="86" y="-8" type="curve" smooth="yes"/>
      <point x="102" y="-8"/>
      <point x="117" y="-6"/>
    </contour>
    <contour>
      <point x="458" y="545" type="curve" smooth="yes"/>
      <point x="371" y="545"/>
      <point x="265" y="448"/>
      <point x="199" y="331" type="curve" smooth="yes"/>
      <point x="165" y="264"/>
      <point x="150" y="193"/>
      <point x="156" y="141" type="curve"/>
      <point x="250" y="345"/>
      <point x="341" y="422"/>
      <point x="408" y="422" type="curve" smooth="yes"/>
      <point x="443" y="422"/>
      <point x="462" y="399"/>
      <point x="461" y="350" type="curve"/>
      <point x="512" y="351"/>
      <point x="544" y="371"/>
      <point x="551" y="396" type="curve" smooth="yes"/>
      <point x="568" y="458"/>
      <point x="533" y="545"/>
    </contour>
    <contour>
      <point x="465" y="-2" type="curve"/>
      <point x="464" y="52"/>
      <point x="470" y="87"/>
      <point x="485" y="145" type="curve" smooth="yes"/>
      <point x="551" y="396" type="line"/>
      <point x="558" y="422"/>
      <point x="541" y="434"/>
      <point x="467" y="433" type="curve"/>
      <point x="412" y="312"/>
      <point x="374" y="225"/>
      <point x="352" y="139" type="curve" smooth="yes"/>
      <point x="349" y="128" type="line" smooth="yes"/>
      <point x="321" y="21"/>
      <point x="353" y="-7"/>
      <point x="421" y="-7" type="curve" smooth="yes"/>
      <point x="436" y="-7"/>
      <point x="450" y="-5"/>
    </contour>
    <contour>
      <point x="357" y="693" type="move" name="caronslovak"/>
    </contour>
    <contour>
      <point x="369" y="546" type="move" name="top"/>
    </contour>
    <contour>
      <point x="234" y="-1" type="move" name="bottom"/>
    </contour>
  </outline>
</glyph>
<glyph name="p" format="1">
  <advance width="600"/>
  <unicode hex="0070"/>
  <outline>
    <contour>
      <point x="71" y="-207" type="curve"/>
      <point x="220" y="373" type="line" smooth="yes"/>
      <point x="242" y="456"/>
      <point x="249" y="495"/>
      <point x="233" y="517" type="curve" smooth="yes"/>
      <point x="220" y="534"/>
      <point x="191" y="541"/>
      <point x="169" y="541" type="curve"/>
      <point x="158" y="541"/>
      <point x="147" y="540"/>
      <point x="135" y="537" type="curve"/>
      <point x="135" y="504"/>
      <point x="133" y="479"/>
      <point x="122" y="438" type="curve" smooth="yes"/>
      <point x="-33" y="-163" type="line" smooth="yes"/>
      <point x="-44" y="-205"/>
      <point x="-14" y="-211"/>
      <point x="27" y="-211" type="curve"/>
      <point x="43" y="-211"/>
      <point x="59" y="-210"/>
    </contour>
    <contour>
      <point x="457" y="547" type="curve" smooth="yes"/>
      <point x="365" y="547"/>
      <point x="253" y="461"/>
      <point x="199" y="358" type="curve" smooth="yes"/>
      <point x="175" y="314"/>
      <point x="165" y="255"/>
      <point x="172" y="222" type="curve"/>
      <point x="263" y="375"/>
      <point x="342" y="428"/>
      <point x="419" y="428" type="curve" smooth="yes"/>
      <point x="459" y="428"/>
      <point x="488" y="395"/>
      <point x="513" y="319" type="curve"/>
      <point x="546" y="320"/>
      <point x="561" y="330"/>
      <point x="564" y="340" type="curve" smooth="yes"/>
      <point x="595" y="458"/>
      <point x="546" y="547"/>
    </contour>
    <contour>
      <point x="263" y="-11" type="curve" smooth="yes"/>
      <point x="374" y="-11"/>
      <point x="497" y="80"/>
      <point x="558" y="318" type="curve" smooth="yes"/>
      <point x="564" y="340" type="line" smooth="yes"/>
      <point x="578" y="392"/>
      <point x="560" y="476"/>
      <point x="494" y="476" type="curve" smooth="yes"/>
      <point x="474" y="476"/>
      <point x="455" y="465"/>
      <point x="445" y="434" type="curve"/>
      <point x="456" y="404"/>
      <point x="454" y="375"/>
      <point x="438" y="315" type="curve" smooth="yes"/>
      <point x="435" y="301" type="line" smooth="yes"/>
      <point x="401" y="168"/>
      <point x="340" y="96"/>
      <point x="254" y="96" type="curve" smooth="yes"/>
      <point x="201" y="96"/>
      <point x="173" y="118"/>
      <point x="151" y="159" type="curve"/>
      <point x="135" y="139"/>
      <point x="123" y="103"/>
      <point x="131" y="80" type="curve" smooth="yes"/>
      <point x="137" y="39"/>
      <point x="187" y="-11"/>
    </contour>
  </outline>
</glyph>
<glyph name="q" format="1">
  <advance width="600"/>
  <unicode hex="0071"/>
  <outline>
    <contour>
      <point x="325" y="547" type="curve" smooth="yes"/>
      <point x="194" y="547"/>
      <point x="95" y="456"/>
      <point x="43" y="229" type="curve" smooth="yes"/>
      <point x="37" y="206" type="line" smooth="yes"/>
      <point x="25" y="153"/>
      <point x="37" y="63"/>
      <point x="104" y="63" type="curve" smooth="yes"/>
      <point x="124" y="63"/>
      <point x="143" y="73"/>
      <point x="150" y="93" type="curve"/>
      <point x="141" y="132"/>
      <point x="143" y="158"/>
      <point x="159" y="220" type="curve" smooth="yes"/>
      <point x="164" y="237" type="line" smooth="yes"/>
      <point x="197" y="368"/>
      <point x="257" y="439"/>
      <point x="344" y="439" type="curve" smooth="yes"/>
      <point x="396" y="439"/>
      <point x="426" y="420"/>
      <point x="448" y="380" type="curve"/>
      <point x="464" y="399"/>
      <point x="474" y="427"/>
      <point x="466" y="448" type="curve" smooth="yes"/>
      <point x="460" y="490"/>
      <point x="402" y="547"/>
    </contour>
    <contour>
      <point x="143" y="-11" type="curve" smooth="yes"/>
      <point x="230" y="-11"/>
      <point x="344" y="74"/>
      <point x="399" y="177" type="curve" smooth="yes"/>
      <point x="422" y="221"/>
      <point x="432" y="280"/>
      <point x="426" y="313" type="curve"/>
      <point x="335" y="158"/>
      <point x="256" y="108"/>
      <point x="184" y="108" type="curve" smooth="yes"/>
      <point x="134" y="108"/>
      <point x="101" y="143"/>
      <point x="86" y="222" type="curve"/>
      <point x="53" y="219"/>
      <point x="38" y="214"/>
      <point x="37" y="206" type="curve" smooth="yes"/>
      <point x="7" y="89"/>
      <point x="55" y="-11"/>
    </contour>
    <contour>
      <point x="397" y="-207" type="curve"/>
      <point x="564" y="437" type="line" smooth="yes"/>
      <point x="574" y="479"/>
      <point x="584" y="504"/>
      <point x="601" y="537" type="curve"/>
      <point x="591" y="539"/>
      <point x="581" y="540"/>
      <point x="570" y="540" type="curve" smooth="yes"/>
      <point x="545" y="540"/>
      <point x="516" y="534"/>
      <point x="493" y="516" type="curve" smooth="yes"/>
      <point x="469" y="496"/>
      <point x="454" y="459"/>
      <point x="434" y="384" type="curve" smooth="yes"/>
      <point x="293" y="-156" type="line" smooth="yes"/>
      <point x="282" y="-201"/>
      <point x="309" y="-211"/>
      <point x="352" y="-211" type="curve" smooth="yes"/>
      <point x="370" y="-211"/>
      <point x="385" y="-210"/>
    </contour>
  </outline>
</glyph>
<glyph name="r" format="1">
  <advance width="450"/>
  <unicode hex="0072"/>
  <outline>
    <contour>
      <point x="143" y="-1" type="curve"/>
      <point x="258" y="449" type="line" smooth="yes"/>
      <point x="266" y="483"/>
      <point x="265" y="501"/>
      <point x="255" y="514" type="curve" smooth="yes"/>
      <point x="241" y="533"/>
      <point x="214" y="541"/>
      <point x="179" y="541" type="curve" smooth="yes"/>
      <point x="168" y="541"/>
      <point x="157" y="540"/>
      <point x="145" y="538" type="curve"/>
      <point x="146" y="505"/>
      <point x="143" y="480"/>
      <point x="132" y="438" type="curve" smooth="yes"/>
      <point x="32" y="44" type="line" smooth="yes"/>
      <point x="22" y="2"/>
      <point x="56" y="-5"/>
      <point x="101" y="-5" type="curve" smooth="yes"/>
      <point x="117" y="-5"/>
      <point x="132" y="-3"/>
    </contour>
    <contour>
      <point x="182" y="168" type="curve"/>
      <point x="271" y="352"/>
      <point x="334" y="419"/>
      <point x="405" y="419" type="curve" smooth="yes"/>
      <point x="427" y="419"/>
      <point x="439" y="415"/>
      <point x="454" y="403" type="curve"/>
      <point x="458" y="403" type="line"/>
      <point x="471" y="424"/>
      <point x="478" y="440"/>
      <point x="485" y="469" type="curve"/>
      <point x="498" y="521"/>
      <point x="484" y="553"/>
      <point x="441" y="553" type="curve" smooth="yes"/>
      <point x="438" y="553" type="line" smooth="yes"/>
      <point x="360" y="553"/>
      <point x="276" y="467"/>
      <point x="203" y="303" type="curve" smooth="yes"/>
      <point x="187" y="272"/>
      <point x="176" y="235"/>
    </contour>
    <contour>
      <point x="260" y="546" type="move" name="top"/>
    </contour>
    <contour>
      <point x="260" y="-1" type="move" name="bottom"/>
    </contour>
  </outline>
</glyph>
<glyph name="s" format="1">
  <advance width="550"/>
  <unicode hex="0073"/>
  <outline>
    <contour>
      <point x="399" y="547" type="curve" smooth="yes"/>
      <point x="394" y="547" type="line" smooth="yes"/>
      <point x="261" y="547"/>
      <point x="152" y="498"/>
      <point x="125" y="393" type="curve" smooth="yes"/>
      <point x="115" y="357"/>
      <point x="157" y="316"/>
      <point x="231" y="316" type="curve"/>
      <point x="227" y="341"/>
      <point x="229" y="357"/>
      <point x="234" y="376" type="curve" smooth="yes"/>
      <point x="243" y="411"/>
      <point x="292" y="436"/>
      <point x="377" y="436" type="curve" smooth="yes"/>
      <point x="439" y="436"/>
      <point x="471" y="424"/>
      <point x="506" y="404" type="curve"/>
      <point x="509" y="404" type="line"/>
      <point x="515" y="414"/>
      <point x="520" y="425"/>
      <point x="522" y="435" type="curve"/>
      <point x="533" y="475"/>
      <point x="530" y="501"/>
      <point x="517" y="517" type="curve" smooth="yes"/>
      <point x="504" y="533"/>
      <point x="466" y="547"/>
    </contour>
    <contour>
      <point x="365" y="301" type="curve" smooth="yes"/>
      <point x="305" y="315" type="line" smooth="yes"/>
      <point x="240" y="330"/>
      <point x="226" y="346"/>
      <point x="234" y="376" type="curve" smooth="yes"/>
      <point x="238" y="393"/>
      <point x="245" y="414"/>
      <point x="262" y="439" type="curve"/>
      <point x="180" y="427"/>
      <point x="132" y="421"/>
      <point x="125" y="393" type="curve"/>
      <point x="105" y="316"/>
      <point x="139" y="254"/>
      <point x="236" y="231" type="curve" smooth="yes"/>
      <point x="309" y="214" type="line" smooth="yes"/>
      <point x="361" y="202"/>
      <point x="372" y="177"/>
      <point x="363" y="139" type="curve" smooth="yes"/>
      <point x="358" y="121"/>
      <point x="350" y="108"/>
      <point x="338" y="97" type="curve"/>
      <point x="422" y="99"/>
      <point x="463" y="113"/>
      <point x="471" y="141" type="curve" smooth="yes"/>
      <point x="488" y="213"/>
      <point x="457" y="279"/>
    </contour>
    <contour>
      <point x="254" y="100" type="curve" smooth="yes"/>
      <point x="148" y="100"/>
      <point x="105" y="116"/>
      <point x="50" y="158" type="curve"/>
      <point x="46" y="158" type="line"/>
      <point x="40" y="146"/>
      <point x="36" y="135"/>
      <point x="31" y="119" type="curve" smooth="yes"/>
      <point x="20" y="76"/>
      <point x="26" y="54"/>
      <point x="38" y="39" type="curve" smooth="yes"/>
      <point x="58" y="12"/>
      <point x="118" y="-11"/>
      <point x="217" y="-11" type="curve" smooth="yes"/>
      <point x="226" y="-11" type="line" smooth="yes"/>
      <point x="365" y="-11"/>
      <point x="443" y="34"/>
      <point x="471" y="141" type="curve" smooth="yes"/>
      <point x="481" y="182"/>
      <point x="455" y="195"/>
      <point x="415" y="203" type="curve"/>
      <point x="414" y="188"/>
      <point x="413" y="180"/>
      <point x="411" y="172" type="curve" smooth="yes"/>
      <point x="399" y="127"/>
      <point x="344" y="100"/>
    </contour>
    <contour>
      <point x="277" y="546" type="move" name="top"/>
    </contour>
    <contour>
      <point x="277" y="-1" type="move" name="bottom"/>
    </contour>
  </outline>
</glyph>
<glyph name="t" format="1">
  <advance width="500"/>
  <unicode hex="0074"/>
  <outline>
    <contour>
      <point x="243" y="700" type="curve"/>
      <point x="105" y="148" type="line" smooth="yes"/>
      <point x="85" y="70"/>
      <point x="157" y="4"/>
      <point x="232" y="29" type="curve"/>
      <point x="212" y="66"/>
      <point x="211" y="113"/>
      <point x="226" y="171" type="curve" smooth="yes"/>
      <point x="347" y="656" type="line" smooth="yes"/>
      <point x="358" y="697"/>
      <point x="326" y="705"/>
      <point x="287" y="705" type="curve" smooth="yes"/>
      <point x="270" y="705"/>
      <point x="255" y="703"/>
    </contour>
    <contour>
      <point x="407" y="141" type="curve"/>
      <point x="403" y="141" type="line"/>
      <point x="354" y="116"/>
      <point x="316" y="101"/>
      <point x="263" y="101" type="curve" smooth="yes"/>
      <point x="209" y="101"/>
      <point x="173" y="120"/>
      <point x="148" y="184" type="curve"/>
      <point x="125" y="182"/>
      <point x="110" y="167"/>
      <point x="105" y="148" type="curve" smooth="yes"/>
      <point x="81" y="54"/>
      <point x="135" y="-15"/>
      <point x="237" y="-15" type="curve" smooth="yes"/>
      <point x="248" y="-15" type="line" smooth="yes"/>
      <point x="303" y="-15"/>
      <point x="331" y="-3"/>
      <point x="351" y="13" type="curve" smooth="yes"/>
      <point x="374" y="32"/>
      <point x="389" y="55"/>
      <point x="402" y="106" type="curve" smooth="yes"/>
      <point x="405" y="120"/>
      <point x="407" y="131"/>
    </contour>
    <contour>
      <point x="107" y="535" type="line"/>
      <point x="106" y="530"/>
      <point x="104" y="525"/>
      <point x="103" y="519" type="curve" smooth="yes"/>
      <point x="93" y="480"/>
      <point x="94" y="457"/>
      <point x="105" y="442" type="curve" smooth="yes"/>
      <point x="118" y="425"/>
      <point x="140" y="420"/>
      <point x="201" y="420" type="curve"/>
      <point x="476" y="420" type="line"/>
      <point x="481" y="432"/>
      <point x="487" y="448"/>
      <point x="492" y="464" type="curve" smooth="yes"/>
      <point x="504" y="515"/>
      <point x="496" y="535"/>
      <point x="453" y="535" type="curve"/>
    </contour>
    <contour>
      <point x="502" y="711" type="move" name="caronslovak"/>
    </contour>
    <contour>
      <point x="209" y="-1" type="move" name="bottom"/>
    </contour>
  </outline>
</glyph>
<glyph name="v" format="1">
  <advance width="600"/>
  <unicode hex="0076"/>
  <outline>
    <contour>
      <point x="508" y="544" type="curve" smooth="yes"/>
      <point x="488" y="544" type="line"/>
      <point x="396" y="272"/>
      <point x="338" y="166"/>
      <point x="213" y="83" type="curve"/>
      <point x="185" y="65"/>
      <point x="193" y="-10"/>
      <point x="237" y="-10" type="curve"/>
      <point x="273" y="-10" type="line"/>
      <point x="405" y="79"/>
      <point x="509" y="242"/>
      <point x="592" y="486" type="curve"/>
      <point x="603" y="519"/>
      <point x="559" y="544"/>
    </contour>
    <contour>
      <point x="146" y="544" type="curve" smooth="yes"/>
      <point x="127" y="544" type="line"/>
      <point x="83" y="282"/>
      <point x="89" y="125"/>
      <point x="160" y="29" type="curve"/>
      <point x="184" y="-4"/>
      <point x="209" y="-10"/>
      <point x="234" y="-10" type="curve" smooth="yes"/>
      <point x="243" y="-10" type="line" smooth="yes"/>
      <point x="275" y="-10"/>
      <point x="300" y="14"/>
      <point x="325" y="53" type="curve"/>
      <point x="317" y="53"/>
      <point x="312" y="53"/>
      <point x="307" y="53" type="curve" smooth="yes"/>
      <point x="300" y="53"/>
      <point x="292" y="56"/>
      <point x="284" y="64" type="curve"/>
      <point x="212" y="142"/>
      <point x="204" y="264"/>
      <point x="242" y="503" type="curve"/>
      <point x="247" y="528"/>
      <point x="198" y="544"/>
    </contour>
  </outline>
</glyph>
<glyph name="w" format="1">
  <advance width="800"/>
  <unicode hex="0077"/>
  <outline>
    <contour>
      <point x="132" y="542" type="curve"/>
      <point x="68" y="227"/>
      <point x="72" y="110"/>
      <point x="120" y="31" type="curve"/>
      <point x="139" y="0"/>
      <point x="156" y="-10"/>
      <point x="180" y="-10" type="curve"/>
      <point x="199" y="-10" type="line" smooth="yes"/>
      <point x="211" y="-10"/>
      <point x="228" y="23"/>
      <point x="235" y="52" type="curve"/>
      <point x="187" y="110"/>
      <point x="177" y="190"/>
      <point x="237" y="497" type="curve"/>
      <point x="240" y="511"/>
      <point x="238" y="518"/>
      <point x="234" y="525" type="curve" smooth="yes"/>
      <point x="223" y="538"/>
      <point x="200" y="545"/>
      <point x="163" y="545" type="curve"/>
      <point x="153" y="545"/>
      <point x="140" y="544"/>
    </contour>
    <contour>
      <point x="410" y="523" type="curve"/>
      <point x="324" y="261"/>
      <point x="254" y="143"/>
      <point x="177" y="70" type="curve"/>
      <point x="157" y="52"/>
      <point x="176" y="-10"/>
      <point x="194" y="-10" type="curve"/>
      <point x="218" y="-10" type="line"/>
      <point x="312" y="75"/>
      <point x="406" y="242"/>
      <point x="473" y="466" type="curve"/>
      <point x="483" y="499"/>
      <point x="486" y="526"/>
      <point x="451" y="526" type="curve" smooth="yes"/>
      <point x="441" y="526"/>
      <point x="421" y="525"/>
    </contour>
    <contour>
      <point x="438" y="521" type="curve"/>
      <point x="405" y="302"/>
      <point x="394" y="99"/>
      <point x="443" y="17" type="curve"/>
      <point x="458" y="-6"/>
      <point x="479" y="-10"/>
      <point x="498" y="-10" type="curve"/>
      <point x="526" y="-10" type="line" smooth="yes"/>
      <point x="532" y="-10"/>
      <point x="536" y="21"/>
      <point x="528" y="51" type="curve"/>
      <point x="482" y="121"/>
      <point x="490" y="261"/>
      <point x="526" y="483" type="curve"/>
      <point x="531" y="517"/>
      <point x="498" y="526"/>
      <point x="451" y="526" type="curve" smooth="yes"/>
      <point x="444" y="526"/>
      <point x="441" y="525"/>
    </contour>
    <contour>
      <point x="705" y="541" type="curve"/>
      <point x="599" y="215"/>
      <point x="562" y="154"/>
      <point x="482" y="81" type="curve"/>
      <point x="457" y="61"/>
      <point x="483" y="-10"/>
      <point x="518" y="-10" type="curve"/>
      <point x="536" y="-10" type="line"/>
      <point x="662" y="93"/>
      <point x="735" y="244"/>
      <point x="817" y="481" type="curve"/>
      <point x="822" y="496"/>
      <point x="823" y="508"/>
      <point x="816" y="517" type="curve" smooth="yes"/>
      <point x="804" y="533"/>
      <point x="784" y="545"/>
      <point x="747" y="545" type="curve"/>
      <point x="737" y="545"/>
      <point x="715" y="544"/>
    </contour>
    <contour>
      <point x="452" y="546" type="move" name="top"/>
    </contour>
  </outline>
</glyph>
<glyph name="x" format="1">
  <advance width="600"/>
  <unicode hex="0078"/>
  <outline>
    <contour>
      <point x="421" y="-10" type="curve" smooth="yes"/>
      <point x="460" y="-10"/>
      <point x="478" y="-4"/>
      <point x="501" y="12" type="curve"/>
      <point x="439" y="81"/>
      <point x="383" y="157"/>
      <point x="344" y="242" type="curve" smooth="yes"/>
      <point x="336" y="258"/>
      <point x="331" y="275"/>
      <point x="324" y="291" type="curve" smooth="yes"/>
      <point x="294" y="357"/>
      <point x="274" y="429"/>
      <point x="259" y="504" type="curve" smooth="yes"/>
      <point x="253" y="533"/>
      <point x="220" y="543"/>
      <point x="173" y="543" type="curve" smooth="yes"/>
      <point x="151" y="543"/>
      <point x="132" y="540"/>
      <point x="115" y="537" type="curve"/>
      <point x="141" y="415"/>
      <point x="181" y="302"/>
      <point x="233" y="199" type="curve" smooth="yes"/>
      <point x="240" y="183"/>
      <point x="248" y="168"/>
      <point x="257" y="152" type="curve" smooth="yes"/>
      <point x="283" y="105"/>
      <point x="313" y="61"/>
      <point x="348" y="19" type="curve" smooth="yes"/>
      <point x="366" y="-2"/>
      <point x="385" y="-10"/>
    </contour>
    <contour>
      <point x="505" y="544" type="curve" smooth="yes"/>
      <point x="486" y="544" type="line"/>
      <point x="425" y="443"/>
      <point x="360" y="364"/>
      <point x="291" y="290" type="curve" smooth="yes"/>
      <point x="274" y="274"/>
      <point x="252" y="266"/>
      <point x="236" y="249" type="curve" smooth="yes"/>
      <point x="171" y="188"/>
      <point x="100" y="129"/>
      <point x="15" y="71" type="curve" smooth="yes"/>
      <point x="-8" y="55"/>
      <point x="-11" y="48"/>
      <point x="-13" y="37" type="curve" smooth="yes"/>
      <point x="-18" y="10"/>
      <point x="31" y="-10"/>
      <point x="95" y="-10" type="curve" smooth="yes"/>
      <point x="107" y="-10" type="line"/>
      <point x="176" y="44"/>
      <point x="239" y="98"/>
      <point x="299" y="153" type="curve" smooth="yes"/>
      <point x="316" y="169"/>
      <point x="331" y="177"/>
      <point x="347" y="192" type="curve" smooth="yes"/>
      <point x="444" y="287"/>
      <point x="521" y="374"/>
      <point x="586" y="473" type="curve" smooth="yes"/>
      <point x="592" y="483"/>
      <point x="595" y="491"/>
      <point x="597" y="499" type="curve" smooth="yes"/>
      <point x="603" y="530"/>
      <point x="565" y="546"/>
    </contour>
  </outline>
</glyph>
<glyph name="y" format="1">
  <advance width="600"/>
  <unicode hex="0079"/>
  <outline>
    <contour>
      <point x="534" y="541" type="curve" smooth="yes"/>
      <point x="521" y="541"/>
      <point x="500" y="540"/>
      <point x="489" y="535" type="curve"/>
      <point x="358" y="154"/>
      <point x="255" y="8"/>
      <point x="153" y="-74" type="curve" smooth="yes"/>
      <point x="96" y="-119"/>
      <point x="34" y="-136"/>
      <point x="-18" y="-136" type="curve" smooth="yes"/>
      <point x="-40" y="-136" type="line"/>
      <point x="-41" y="-140" type="line" smooth="yes"/>
      <point x="-58" y="-203"/>
      <point x="-35" y="-250"/>
      <point x="6" y="-250" type="curve" smooth="yes"/>
      <point x="9" y="-250" type="line" smooth="yes"/>
      <point x="74" y="-250"/>
      <point x="149" y="-220"/>
      <point x="217" y="-166" type="curve" smooth="yes"/>
      <point x="350" y="-60"/>
      <point x="495" y="166"/>
      <point x="606" y="490" type="curve" smooth="yes"/>
      <point x="617" y="525"/>
      <point x="587" y="541"/>
    </contour>
    <contour>
      <point x="160" y="541" type="curve" smooth="yes"/>
      <point x="145" y="541"/>
      <point x="132" y="539"/>
      <point x="118" y="536" type="curve"/>
      <point x="73" y="251"/>
      <point x="94" y="148"/>
      <point x="143" y="78" type="curve" smooth="yes"/>
      <point x="173" y="35"/>
      <point x="223" y="10"/>
      <point x="280" y="10" type="curve" smooth="yes"/>
      <point x="287" y="10" type="line" smooth="yes"/>
      <point x="312" y="10"/>
      <point x="328" y="26"/>
      <point x="342" y="79" type="curve"/>
      <point x="323" y="87" type="line"/>
      <point x="286" y="96"/>
      <point x="260" y="118"/>
      <point x="244" y="142" type="curve" smooth="yes"/>
      <point x="200" y="206"/>
      <point x="204" y="321"/>
      <point x="234" y="488" type="curve" smooth="yes"/>
      <point x="240" y="527"/>
      <point x="220" y="541"/>
    </contour>
    <contour>
      <point x="369" y="546" type="move" name="top"/>
    </contour>
  </outline>
</glyph>
<glyph name="z" format="1">
  <advance width="550"/>
  <unicode hex="007A"/>
  <outline>
    <contour>
      <point x="132" y="535" type="line"/>
      <point x="127" y="526"/>
      <point x="124" y="516"/>
      <point x="121" y="505" type="curve" smooth="yes"/>
      <point x="113" y="474"/>
      <point x="117" y="450"/>
      <point x="127" y="437" type="curve" smooth="yes"/>
      <point x="133" y="428"/>
      <point x="140" y="424"/>
      <point x="156" y="424" type="curve" smooth="yes"/>
      <point x="322" y="424" type="line" smooth="yes"/>
      <point x="391" y="424"/>
      <point x="481" y="427"/>
      <point x="550" y="438" type="curve"/>
      <point x="552" y="444" type="line" smooth="yes"/>
      <point x="560" y="476"/>
      <point x="551" y="502"/>
      <point x="535" y="522" type="curve" smooth="yes"/>
      <point x="528" y="532"/>
      <point x="520" y="535"/>
      <point x="502" y="535" type="curve" smooth="yes"/>
    </contour>
    <contour>
      <point x="437" y="479" type="curve"/>
      <point x="346" y="343"/>
      <point x="201" y="207"/>
      <point x="18" y="102" type="curve"/>
      <point x="11" y="72"/>
      <point x="95" y="70"/>
      <point x="143" y="88" type="curve" smooth="yes"/>
      <point x="331" y="176"/>
      <point x="539" y="392"/>
      <point x="550" y="438" type="curve"/>
      <point x="558" y="468"/>
      <point x="526" y="479"/>
    </contour>
    <contour>
      <point x="434" y="0" type="line"/>
      <point x="440" y="12"/>
      <point x="446" y="29"/>
      <point x="450" y="45" type="curve"/>
      <point x="462" y="93"/>
      <point x="454" y="111"/>
      <point x="410" y="111" type="curve" smooth="yes"/>
      <point x="253" y="111" type="line" smooth="yes"/>
      <point x="172" y="111"/>
      <point x="95" y="108"/>
      <point x="18" y="102" type="curve"/>
      <point x="16" y="92" type="line" smooth="yes"/>
      <point x="7" y="56"/>
      <point x="9" y="26"/>
      <point x="22" y="9" type="curve" smooth="yes"/>
      <point x="26" y="3"/>
      <point x="33" y="0"/>
      <point x="43" y="0" type="curve" smooth="yes"/>
    </contour>
    <contour>
      <point x="282" y="546" type="move" name="top"/>
    </contour>
  </outline>
</glyph>
<glyph name="braceleft" format="1">
  <advance width="500"/>
  <unicode hex="007B"/>
  <outline>
    <contour>
      <point x="483" y="655" type="curve" smooth="yes"/>
      <point x="511" y="655"/>
      <point x="533" y="652"/>
      <point x="549" y="647" type="curve"/>
      <point x="553" y="647" type="line"/>
      <point x="559" y="659"/>
      <point x="563" y="669"/>
      <point x="568" y="687" type="curve"/>
      <point x="579" y="732"/>
      <point x="560" y="770"/>
      <point x="522" y="770" type="curve" smooth="yes"/>
      <point x="518" y="770" type="line" smooth="yes"/>
      <point x="395" y="770"/>
      <point x="293" y="725"/>
      <point x="275" y="651" type="curve" smooth="yes"/>
      <point x="274" y="648" type="line" smooth="yes"/>
      <point x="267" y="620"/>
      <point x="290" y="594"/>
      <point x="323" y="592" type="curve"/>
      <point x="362" y="639"/>
      <point x="417" y="655"/>
    </contour>
    <contour>
      <point x="372" y="441" type="curve" smooth="yes"/>
      <point x="398" y="542"/>
      <point x="349" y="599"/>
      <point x="359" y="638" type="curve" smooth="yes"/>
      <point x="364" y="657"/>
      <point x="372" y="672"/>
      <point x="387" y="690" type="curve"/>
      <point x="339" y="701"/>
      <point x="285" y="693"/>
      <point x="274" y="649" type="curve" smooth="yes"/>
      <point x="273" y="645" type="line" smooth="yes"/>
      <point x="260" y="593"/>
      <point x="288" y="540"/>
      <point x="268" y="461" type="curve" smooth="yes"/>
      <point x="250" y="392"/>
      <point x="194" y="353"/>
      <point x="83" y="353" type="curve" smooth="yes"/>
      <point x="77" y="353" type="line"/>
      <point x="74" y="342" type="line" smooth="yes"/>
      <point x="67" y="312"/>
      <point x="67" y="284"/>
      <point x="98" y="284" type="curve" smooth="yes"/>
      <point x="116" y="284" type="line" smooth="yes"/>
      <point x="236" y="284"/>
      <point x="348" y="344"/>
    </contour>
    <contour>
      <point x="301" y="157" type="curve" smooth="yes"/>
      <point x="327" y="261"/>
      <point x="248" y="314"/>
      <point x="126" y="314" type="curve" smooth="yes"/>
      <point x="91" y="314"/>
      <point x="83" y="332"/>
      <point x="75" y="346" type="curve"/>
      <point x="73" y="338" type="line" smooth="yes"/>
      <point x="60" y="288"/>
      <point x="68" y="246"/>
      <point x="98" y="246" type="curve" smooth="yes"/>
      <point x="100" y="246" type="line" smooth="yes"/>
      <point x="168" y="246"/>
      <point x="204" y="205"/>
      <point x="187" y="138" type="curve" smooth="yes"/>
      <point x="167" y="58"/>
      <point x="112" y="1"/>
      <point x="99" y="-50" type="curve" smooth="yes"/>
      <point x="98" y="-54" type="line" smooth="yes"/>
      <point x="87" y="-101"/>
      <point x="138" y="-108"/>
      <point x="192" y="-97" type="curve"/>
      <point x="183" y="-79"/>
      <point x="183" y="-63"/>
      <point x="188" y="-43" type="curve" smooth="yes"/>
      <point x="198" y="-3"/>
      <point x="277" y="61"/>
    </contour>
    <contour>
      <point x="293" y="-56" type="curve" smooth="yes"/>
      <point x="226" y="-56"/>
      <point x="185" y="-42"/>
      <point x="173" y="3" type="curve"/>
      <point x="136" y="-3"/>
      <point x="104" y="-31"/>
      <point x="99" y="-52" type="curve" smooth="yes"/>
      <point x="98" y="-56" type="line" smooth="yes"/>
      <point x="79" y="-132"/>
      <point x="139" y="-172"/>
      <point x="280" y="-172" type="curve" smooth="yes"/>
      <point x="285" y="-172" type="line" smooth="yes"/>
      <point x="327" y="-172"/>
      <point x="363" y="-125"/>
      <point x="381" y="-52" type="curve"/>
      <point x="383" y="-44" type="line"/>
      <point x="379" y="-44" type="line"/>
      <point x="348" y="-52"/>
      <point x="327" y="-56"/>
    </contour>
  </outline>
</glyph>
<glyph name="bar" format="1">
  <advance width="300"/>
  <unicode hex="007C"/>
  <outline>
    <contour>
      <point x="206" y="759" type="curve"/>
      <point x="205" y="723"/>
      <point x="199" y="687"/>
      <point x="189" y="648" type="curve" smooth="yes"/>
      <point x="0" y="-111" type="line" smooth="yes"/>
      <point x="-9" y="-146"/>
      <point x="20" y="-163"/>
      <point x="81" y="-163" type="curve" smooth="yes"/>
      <point x="93" y="-163"/>
      <point x="103" y="-162"/>
      <point x="109" y="-161" type="curve"/>
      <point x="324" y="698" type="line" smooth="yes"/>
      <point x="330" y="722"/>
      <point x="330" y="736"/>
      <point x="322" y="747" type="curve" smooth="yes"/>
      <point x="313" y="759"/>
      <point x="295" y="764"/>
      <point x="257" y="764" type="curve" smooth="yes"/>
      <point x="239" y="764"/>
      <point x="224" y="763"/>
    </contour>
  </outline>
</glyph>
<glyph name="braceright" format="1">
  <advance width="500"/>
  <unicode hex="007D"/>
  <outline>
    <contour>
      <point x="32" y="-57" type="curve" smooth="yes"/>
      <point x="5" y="-57"/>
      <point x="-17" y="-54"/>
      <point x="-33" y="-49" type="curve"/>
      <point x="-37" y="-49" type="line"/>
      <point x="-43" y="-61"/>
      <point x="-47" y="-71"/>
      <point x="-52" y="-89" type="curve"/>
      <point x="-63" y="-134"/>
      <point x="-45" y="-172"/>
      <point x="-6" y="-172" type="curve" smooth="yes"/>
      <point x="-2" y="-172" type="line" smooth="yes"/>
      <point x="121" y="-172"/>
      <point x="223" y="-127"/>
      <point x="241" y="-53" type="curve" smooth="yes"/>
      <point x="242" y="-50" type="line" smooth="yes"/>
      <point x="249" y="-22"/>
      <point x="226" y="4"/>
      <point x="193" y="6" type="curve"/>
      <point x="153" y="-41"/>
      <point x="99" y="-57"/>
    </contour>
    <contour>
      <point x="143" y="157" type="curve" smooth="yes"/>
      <point x="118" y="56"/>
      <point x="167" y="-1"/>
      <point x="157" y="-40" type="curve" smooth="yes"/>
      <point x="152" y="-59"/>
      <point x="144" y="-74"/>
      <point x="129" y="-92" type="curve"/>
      <point x="177" y="-103"/>
      <point x="231" y="-95"/>
      <point x="242" y="-51" type="curve" smooth="yes"/>
      <point x="243" y="-47" type="line" smooth="yes"/>
      <point x="256" y="5"/>
      <point x="228" y="58"/>
      <point x="248" y="137" type="curve" smooth="yes"/>
      <point x="265" y="206"/>
      <point x="322" y="245"/>
      <point x="433" y="245" type="curve" smooth="yes"/>
      <point x="439" y="245" type="line"/>
      <point x="442" y="256" type="line" smooth="yes"/>
      <point x="449" y="286"/>
      <point x="448" y="314"/>
      <point x="417" y="314" type="curve" smooth="yes"/>
      <point x="399" y="314" type="line" smooth="yes"/>
      <point x="280" y="314"/>
      <point x="168" y="254"/>
    </contour>
    <contour>
      <point x="214" y="441" type="curve" smooth="yes"/>
      <point x="188" y="337"/>
      <point x="268" y="284"/>
      <point x="389" y="284" type="curve" smooth="yes"/>
      <point x="425" y="284"/>
      <point x="432" y="266"/>
      <point x="441" y="252" type="curve"/>
      <point x="443" y="260" type="line" smooth="yes"/>
      <point x="455" y="310"/>
      <point x="448" y="352"/>
      <point x="418" y="352" type="curve" smooth="yes"/>
      <point x="415" y="352" type="line" smooth="yes"/>
      <point x="348" y="352"/>
      <point x="312" y="393"/>
      <point x="329" y="460" type="curve" smooth="yes"/>
      <point x="349" y="540"/>
      <point x="404" y="597"/>
      <point x="417" y="648" type="curve" smooth="yes"/>
      <point x="418" y="652" type="line" smooth="yes"/>
      <point x="429" y="699"/>
      <point x="377" y="706"/>
      <point x="324" y="695" type="curve"/>
      <point x="333" y="677"/>
      <point x="332" y="661"/>
      <point x="327" y="641" type="curve" smooth="yes"/>
      <point x="317" y="601"/>
      <point x="238" y="537"/>
    </contour>
    <contour>
      <point x="222" y="654" type="curve" smooth="yes"/>
      <point x="290" y="654"/>
      <point x="330" y="640"/>
      <point x="342" y="595" type="curve"/>
      <point x="380" y="601"/>
      <point x="412" y="629"/>
      <point x="417" y="650" type="curve" smooth="yes"/>
      <point x="418" y="654" type="line" smooth="yes"/>
      <point x="437" y="730"/>
      <point x="377" y="770"/>
      <point x="236" y="770" type="curve" smooth="yes"/>
      <point x="231" y="770" type="line" smooth="yes"/>
      <point x="189" y="770"/>
      <point x="153" y="723"/>
      <point x="135" y="650" type="curve"/>
      <point x="133" y="642" type="line"/>
      <point x="137" y="642" type="line"/>
      <point x="167" y="650"/>
      <point x="188" y="654"/>
    </contour>
  </outline>
</glyph>
<glyph name="exclamdown" format="1">
  <advance width="367"/>
  <unicode hex="00A1"/>
  <outline>
    <contour>
      <point x="135" y="262" type="line"/>
      <point x="104" y="193"/>
      <point x="70" y="96"/>
      <point x="52" y="26" type="curve"/>
      <point x="17" y="-116" type="line" smooth="yes"/>
      <point x="6" y="-158"/>
      <point x="43" y="-175"/>
      <point x="103" y="-175" type="curve" smooth="yes"/>
      <point x="123" y="-175"/>
      <point x="138" y="-174"/>
      <point x="156" y="-169" type="curve"/>
      <point x="157" y="-134"/>
      <point x="163" y="-97"/>
      <point x="173" y="-58" type="curve" smooth="yes"/>
      <point x="193" y="23" type="line"/>
      <point x="217" y="116"/>
      <point x="233" y="219"/>
      <point x="218" y="238" type="curve" smooth="yes"/>
      <point x="206" y="254"/>
      <point x="182" y="262"/>
      <point x="146" y="262" type="curve"/>
    </contour>
    <contour>
      <point x="161" y="535" type="curve"/>
      <point x="133" y="423" type="line" smooth="yes"/>
      <point x="120" y="370"/>
      <point x="170" y="357"/>
      <point x="227" y="357" type="curve" smooth="yes"/>
      <point x="249" y="357"/>
      <point x="275" y="360"/>
      <point x="298" y="366" type="curve"/>
      <point x="326" y="478" type="line" smooth="yes"/>
      <point x="339" y="531"/>
      <point x="289" y="544"/>
      <point x="232" y="544" type="curve" smooth="yes"/>
      <point x="209" y="544"/>
      <point x="183" y="541"/>
    </contour>
  </outline>
</glyph>
<glyph name="cent" format="1">
  <advance width="600"/>
  <unicode hex="00A2"/>
  <outline>
    <contour>
      <point x="400" y="392" type="line"/>
      <point x="528" y="687" type="line" smooth="yes"/>
      <point x="555" y="747"/>
      <point x="541" y="782"/>
      <point x="481" y="782" type="curve" smooth="yes"/>
      <point x="468" y="782"/>
      <point x="447" y="779"/>
      <point x="433" y="774" type="curve"/>
      <point x="435" y="747"/>
      <point x="432" y="721"/>
      <point x="422" y="679" type="curve"/>
      <point x="361" y="433" type="line" smooth="yes"/>
      <point x="354" y="407"/>
      <point x="373" y="392"/>
      <point x="396" y="392" type="curve" smooth="yes"/>
    </contour>
    <contour>
      <point x="326" y="302" type="line"/>
      <point x="199" y="7" type="line" smooth="yes"/>
      <point x="172" y="-53"/>
      <point x="186" y="-88"/>
      <point x="245" y="-88" type="curve" smooth="yes"/>
      <point x="259" y="-88"/>
      <point x="280" y="-85"/>
      <point x="294" y="-80" type="curve"/>
      <point x="292" y="-53"/>
      <point x="294" y="-27"/>
      <point x="304" y="15" type="curve"/>
      <point x="366" y="261" type="line" smooth="yes"/>
      <point x="373" y="287"/>
      <point x="353" y="302"/>
      <point x="330" y="302" type="curve" smooth="yes"/>
    </contour>
    <contour>
      <point x="446" y="629" type="curve" smooth="yes"/>
      <point x="275" y="629"/>
      <point x="123" y="509"/>
      <point x="75" y="318" type="curve" smooth="yes"/>
      <point x="73" y="307" type="line" smooth="yes"/>
      <point x="38" y="168"/>
      <point x="129" y="71"/>
      <point x="275" y="71" type="curve" smooth="yes"/>
      <point x="295" y="71"/>
      <point x="307" y="86"/>
      <point x="317" y="122" type="curve"/>
      <point x="186" y="162"/>
      <point x="170" y="233"/>
      <point x="189" y="308" type="curve" smooth="yes"/>
      <point x="191" y="319" type="line" smooth="yes"/>
      <point x="219" y="430"/>
      <point x="306" y="511"/>
      <point x="408" y="511" type="curve" smooth="yes"/>
      <point x="480" y="511"/>
      <point x="514" y="492"/>
      <point x="552" y="448" type="curve"/>
      <point x="556" y="448" type="line"/>
      <point x="570" y="470"/>
      <point x="578" y="489"/>
      <point x="584" y="515" type="curve" smooth="yes"/>
      <point x="593" y="550"/>
      <point x="593" y="571"/>
      <point x="581" y="587" type="curve" smooth="yes"/>
      <point x="562" y="612"/>
      <point x="515" y="629"/>
    </contour>
    <contour>
      <point x="160" y="279" type="curve"/>
      <point x="81" y="195"/>
      <point x="149" y="71"/>
      <point x="275" y="71" type="curve" smooth="yes"/>
      <point x="373" y="71"/>
      <point x="430" y="93"/>
      <point x="462" y="119" type="curve" smooth="yes"/>
      <point x="484" y="136"/>
      <point x="506" y="177"/>
      <point x="513" y="206" type="curve"/>
      <point x="518" y="223"/>
      <point x="519" y="234"/>
      <point x="520" y="245" type="curve"/>
      <point x="516" y="245" type="line"/>
      <point x="452" y="203"/>
      <point x="393" y="183"/>
      <point x="310" y="183" type="curve" smooth="yes"/>
      <point x="224" y="183"/>
      <point x="189" y="206"/>
    </contour>
  </outline>
</glyph>
<glyph name="sterling" format="1">
  <advance width="600"/>
  <unicode hex="00A3"/>
  <outline>
    <contour>
      <point x="413" y="604" type="curve" smooth="yes"/>
      <point x="500" y="604"/>
      <point x="555" y="586"/>
      <point x="591" y="528" type="curve"/>
      <point x="595" y="528" type="line"/>
      <point x="606" y="547"/>
      <point x="611" y="562"/>
      <point x="617" y="585" type="curve" smooth="yes"/>
      <point x="628" y="629"/>
      <point x="626" y="650"/>
      <point x="609" y="673" type="curve" smooth="yes"/>
      <point x="588" y="701"/>
      <point x="529" y="720"/>
      <point x="441" y="720" type="curve" smooth="yes"/>
      <point x="285" y="720"/>
      <point x="178" y="643"/>
      <point x="153" y="543" type="curve" smooth="yes"/>
      <point x="150" y="531" type="line" smooth="yes"/>
      <point x="141" y="498"/>
      <point x="176" y="487"/>
      <point x="240" y="484" type="curve"/>
      <point x="259" y="560"/>
      <point x="314" y="604"/>
    </contour>
    <contour>
      <point x="150" y="531" type="curve" smooth="yes"/>
      <point x="119" y="409"/>
      <point x="191" y="312"/>
      <point x="161" y="188" type="curve" smooth="yes"/>
      <point x="147" y="134"/>
      <point x="101" y="100"/>
      <point x="33" y="100" type="curve" smooth="yes"/>
      <point x="24" y="100"/>
      <point x="18" y="101"/>
      <point x="12" y="105" type="curve"/>
      <point x="8" y="105" type="line"/>
      <point x="1" y="89"/>
      <point x="-4" y="78"/>
      <point x="-8" y="61" type="curve" smooth="yes"/>
      <point x="-21" y="10"/>
      <point x="-11" y="-17"/>
      <point x="32" y="-17" type="curve" smooth="yes"/>
      <point x="39" y="-17" type="line" smooth="yes"/>
      <point x="140" y="-17"/>
      <point x="233" y="54"/>
      <point x="262" y="168" type="curve" smooth="yes"/>
      <point x="293" y="291"/>
      <point x="236" y="398"/>
      <point x="266" y="519" type="curve" smooth="yes"/>
      <point x="275" y="553"/>
      <point x="289" y="583"/>
      <point x="321" y="619" type="curve"/>
      <point x="222" y="619"/>
      <point x="163" y="583"/>
    </contour>
    <contour>
      <point x="158" y="87" type="curve"/>
      <point x="232" y="13"/>
      <point x="297" y="-17"/>
      <point x="391" y="-17" type="curve" smooth="yes"/>
      <point x="398" y="-17" type="line" smooth="yes"/>
      <point x="462" y="-17"/>
      <point x="496" y="17"/>
      <point x="513" y="84" type="curve"/>
      <point x="519" y="109"/>
      <point x="520" y="130"/>
      <point x="519" y="147" type="curve"/>
      <point x="515" y="147" type="line"/>
      <point x="483" y="118"/>
      <point x="453" y="106"/>
      <point x="402" y="106" type="curve" smooth="yes"/>
      <point x="332" y="106"/>
      <point x="275" y="121"/>
      <point x="197" y="164" type="curve"/>
      <point x="166" y="140"/>
      <point x="151" y="107"/>
    </contour>
    <contour>
      <point x="79" y="383" type="line"/>
      <point x="78" y="378"/>
      <point x="76" y="373"/>
      <point x="75" y="367" type="curve" smooth="yes"/>
      <point x="64" y="323"/>
      <point x="64" y="297"/>
      <point x="74" y="282" type="curve" smooth="yes"/>
      <point x="83" y="271"/>
      <point x="96" y="267"/>
      <point x="128" y="267" type="curve" smooth="yes"/>
      <point x="456" y="267" type="line"/>
      <point x="463" y="282"/>
      <point x="469" y="298"/>
      <point x="472" y="312" type="curve" smooth="yes"/>
      <point x="485" y="363"/>
      <point x="477" y="383"/>
      <point x="434" y="383" type="curve" smooth="yes"/>
    </contour>
  </outline>
</glyph>
<glyph name="yen" format="1">
  <advance width="600"/>
  <unicode hex="00A5"/>
  <outline>
    <contour>
      <point x="53" y="413" type="line"/>
      <point x="52" y="408"/>
      <point x="51" y="403"/>
      <point x="49" y="397" type="curve" smooth="yes"/>
      <point x="40" y="360"/>
      <point x="42" y="338"/>
      <point x="52" y="325" type="curve" smooth="yes"/>
      <point x="60" y="314"/>
      <point x="74" y="310"/>
      <point x="106" y="310" type="curve"/>
      <point x="207" y="310" type="line"/>
      <point x="214" y="325"/>
      <point x="220" y="342"/>
      <point x="223" y="355" type="curve" smooth="yes"/>
      <point x="233" y="395"/>
      <point x="225" y="413"/>
      <point x="182" y="413" type="curve"/>
    </contour>
    <contour>
      <point x="412" y="413" type="line"/>
      <point x="402" y="396"/>
      <point x="395" y="383"/>
      <point x="390" y="363" type="curve" smooth="yes"/>
      <point x="382" y="334"/>
      <point x="398" y="310"/>
      <point x="424" y="310" type="curve"/>
      <point x="589" y="310" type="line"/>
      <point x="595" y="325"/>
      <point x="601" y="342"/>
      <point x="605" y="355" type="curve" smooth="yes"/>
      <point x="615" y="395"/>
      <point x="606" y="413"/>
      <point x="563" y="413" type="curve"/>
    </contour>
    <contour>
      <point x="534" y="107" type="line"/>
      <point x="537" y="114"/>
      <point x="540" y="123"/>
      <point x="542" y="131" type="curve" smooth="yes"/>
      <point x="550" y="163"/>
      <point x="547" y="181"/>
      <point x="537" y="195" type="curve" smooth="yes"/>
      <point x="529" y="206"/>
      <point x="516" y="210"/>
      <point x="484" y="210" type="curve"/>
      <point x="14" y="210" type="line"/>
      <point x="7" y="195"/>
      <point x="1" y="178"/>
      <point x="-2" y="165" type="curve" smooth="yes"/>
      <point x="-12" y="124"/>
      <point x="-4" y="107"/>
      <point x="39" y="107" type="curve"/>
    </contour>
    <contour>
      <point x="156" y="710" type="line"/>
      <point x="125" y="464"/>
      <point x="144" y="337"/>
      <point x="221" y="235" type="curve"/>
      <point x="242" y="207"/>
      <point x="267" y="203"/>
      <point x="288" y="203" type="curve"/>
      <point x="322" y="203"/>
      <point x="347" y="218"/>
      <point x="361" y="275" type="curve"/>
      <point x="271" y="356"/>
      <point x="246" y="440"/>
      <point x="273" y="671" type="curve"/>
      <point x="276" y="694"/>
      <point x="228" y="710"/>
      <point x="175" y="710" type="curve" smooth="yes"/>
    </contour>
    <contour>
      <point x="545" y="710" type="line"/>
      <point x="461" y="476"/>
      <point x="399" y="384"/>
      <point x="266" y="288" type="curve"/>
      <point x="235" y="266"/>
      <point x="247" y="203"/>
      <point x="288" y="203" type="curve"/>
      <point x="324" y="203" type="line"/>
      <point x="458" y="302"/>
      <point x="573" y="449"/>
      <point x="646" y="652" type="curve"/>
      <point x="657" y="685"/>
      <point x="615" y="710"/>
      <point x="564" y="710" type="curve"/>
    </contour>
    <contour>
      <point x="304" y="-4" type="curve"/>
      <point x="305" y="31"/>
      <point x="311" y="68"/>
      <point x="321" y="107" type="curve" smooth="yes"/>
      <point x="357" y="249" type="line" smooth="yes"/>
      <point x="364" y="281"/>
      <point x="316" y="301"/>
      <point x="247" y="301" type="curve"/>
      <point x="186" y="57" type="line" smooth="yes"/>
      <point x="180" y="33"/>
      <point x="180" y="19"/>
      <point x="188" y="7" type="curve" smooth="yes"/>
      <point x="198" y="-5"/>
      <point x="215" y="-10"/>
      <point x="253" y="-10" type="curve" smooth="yes"/>
      <point x="271" y="-10"/>
      <point x="286" y="-8"/>
    </contour>
  </outline>
</glyph>
<glyph name="brokenbar" format="1">
  <advance width="300"/>
  <unicode hex="00A6"/>
  <outline>
    <contour>
      <point x="201" y="759" type="curve"/>
      <point x="200" y="723"/>
      <point x="194" y="687"/>
      <point x="184" y="648" type="curve" smooth="yes"/>
      <point x="127" y="419" type="line" smooth="yes"/>
      <point x="118" y="384"/>
      <point x="147" y="367"/>
      <point x="208" y="367" type="curve" smooth="yes"/>
      <point x="221" y="367"/>
      <point x="230" y="368"/>
      <point x="237" y="369" type="curve"/>
      <point x="319" y="698" type="line" smooth="yes"/>
      <point x="325" y="722"/>
      <point x="325" y="736"/>
      <point x="316" y="747" type="curve" smooth="yes"/>
      <point x="307" y="759"/>
      <point x="290" y="764"/>
      <point x="252" y="764" type="curve" smooth="yes"/>
      <point x="234" y="764"/>
      <point x="219" y="763"/>
    </contour>
    <contour>
      <point x="79" y="229" type="curve"/>
      <point x="-6" y="-111" type="line"/>
      <point x="-15" y="-146"/>
      <point x="14" y="-163"/>
      <point x="76" y="-163" type="curve" smooth="yes"/>
      <point x="88" y="-163"/>
      <point x="97" y="-162"/>
      <point x="104" y="-161" type="curve"/>
      <point x="188" y="176" type="line" smooth="yes"/>
      <point x="199" y="218"/>
      <point x="181" y="234"/>
      <point x="124" y="234" type="curve" smooth="yes"/>
      <point x="108" y="234"/>
      <point x="92" y="233"/>
    </contour>
  </outline>
</glyph>
<glyph name="section" format="1">
  <advance width="600"/>
  <unicode hex="00A7"/>
  <outline>
    <contour>
      <point x="489" y="720" type="curve" smooth="yes"/>
      <point x="332" y="720"/>
      <point x="154" y="575"/>
      <point x="121" y="444" type="curve" smooth="yes"/>
      <point x="118" y="432" type="line" smooth="yes"/>
      <point x="111" y="404"/>
      <point x="164" y="376"/>
      <point x="226" y="374" type="curve"/>
      <point x="225" y="396"/>
      <point x="231" y="420"/>
      <point x="236" y="442" type="curve" smooth="yes"/>
      <point x="255" y="518"/>
      <point x="378" y="604"/>
      <point x="462" y="604" type="curve" smooth="yes"/>
      <point x="518" y="604"/>
      <point x="538" y="574"/>
      <point x="524" y="520" type="curve"/>
      <point x="561" y="520"/>
      <point x="587" y="548"/>
      <point x="591" y="564" type="curve" smooth="yes"/>
      <point x="604" y="617"/>
      <point x="602" y="650"/>
      <point x="581" y="677" type="curve" smooth="yes"/>
      <point x="562" y="703"/>
      <point x="533" y="720"/>
    </contour>
    <contour>
      <point x="400" y="328" type="curve" smooth="yes"/>
      <point x="317" y="361" type="line" smooth="yes"/>
      <point x="240" y="392"/>
      <point x="228" y="409"/>
      <point x="236" y="442" type="curve" smooth="yes"/>
      <point x="243" y="469"/>
      <point x="249" y="487"/>
      <point x="261" y="510" type="curve"/>
      <point x="195" y="506"/>
      <point x="132" y="486"/>
      <point x="118" y="432" type="curve" smooth="yes"/>
      <point x="102" y="369"/>
      <point x="124" y="319"/>
      <point x="253" y="266" type="curve" smooth="yes"/>
      <point x="332" y="234" type="line" smooth="yes"/>
      <point x="396" y="208"/>
      <point x="409" y="186"/>
      <point x="398" y="142" type="curve" smooth="yes"/>
      <point x="396" y="136" type="line" smooth="yes"/>
      <point x="388" y="103"/>
      <point x="376" y="83"/>
      <point x="347" y="56" type="curve"/>
      <point x="354" y="44"/>
      <point x="371" y="36"/>
      <point x="391" y="36" type="curve" smooth="yes"/>
      <point x="428" y="36"/>
      <point x="493" y="75"/>
      <point x="512" y="152" type="curve" smooth="yes"/>
      <point x="514" y="158" type="line" smooth="yes"/>
      <point x="529" y="220"/>
      <point x="511" y="284"/>
    </contour>
    <contour>
      <point x="342" y="96" type="curve" smooth="yes"/>
      <point x="259" y="129" type="line" smooth="yes"/>
      <point x="182" y="160"/>
      <point x="171" y="183"/>
      <point x="181" y="222" type="curve" smooth="yes"/>
      <point x="183" y="229" type="line" smooth="yes"/>
      <point x="189" y="254"/>
      <point x="208" y="284"/>
      <point x="237" y="308" type="curve"/>
      <point x="226" y="316"/>
      <point x="214" y="322"/>
      <point x="193" y="322" type="curve" smooth="yes"/>
      <point x="137" y="322"/>
      <point x="76" y="265"/>
      <point x="62" y="207" type="curve" smooth="yes"/>
      <point x="60" y="200" type="line" smooth="yes"/>
      <point x="44" y="137"/>
      <point x="66" y="87"/>
      <point x="200" y="32" type="curve" smooth="yes"/>
      <point x="281" y="-1" type="line" smooth="yes"/>
      <point x="348" y="-28"/>
      <point x="358" y="-60"/>
      <point x="342" y="-126" type="curve" smooth="yes"/>
      <point x="341" y="-129"/>
      <point x="340" y="-134"/>
      <point x="338" y="-138" type="curve"/>
      <point x="383" y="-137"/>
      <point x="450" y="-97"/>
      <point x="458" y="-66" type="curve"/>
      <point x="471" y="-11"/>
      <point x="453" y="52"/>
    </contour>
    <contour>
      <point x="171" y="-249" type="curve" smooth="yes"/>
      <point x="330" y="-249"/>
      <point x="428" y="-183"/>
      <point x="455" y="-78" type="curve" smooth="yes"/>
      <point x="458" y="-66" type="line" smooth="yes"/>
      <point x="463" y="-46"/>
      <point x="427" y="-21"/>
      <point x="397" y="-19" type="curve"/>
      <point x="396" y="-23"/>
      <point x="395" y="-26"/>
      <point x="394" y="-33" type="curve" smooth="yes"/>
      <point x="378" y="-95"/>
      <point x="300" y="-134"/>
      <point x="200" y="-134" type="curve" smooth="yes"/>
      <point x="96" y="-134"/>
      <point x="31" y="-104"/>
      <point x="-8" y="-46" type="curve"/>
      <point x="-12" y="-46" type="line"/>
      <point x="-20" y="-60"/>
      <point x="-27" y="-77"/>
      <point x="-33" y="-99" type="curve" smooth="yes"/>
      <point x="-43" y="-142"/>
      <point x="-40" y="-174"/>
      <point x="-26" y="-192" type="curve" smooth="yes"/>
      <point x="0" y="-227"/>
      <point x="77" y="-249"/>
    </contour>
    <contour>
      <point x="560" y="442" type="curve"/>
      <point x="591" y="564" type="line" smooth="yes"/>
      <point x="610" y="640"/>
      <point x="565" y="657"/>
      <point x="508" y="651" type="curve"/>
      <point x="493" y="613"/>
      <point x="475" y="565"/>
      <point x="466" y="530" type="curve" smooth="yes"/>
      <point x="457" y="493" type="line" smooth="yes"/>
      <point x="453" y="475"/>
      <point x="454" y="462"/>
      <point x="460" y="454" type="curve" smooth="yes"/>
      <point x="469" y="442"/>
      <point x="484" y="437"/>
      <point x="516" y="437" type="curve" smooth="yes"/>
      <point x="533" y="437"/>
      <point x="548" y="439"/>
    </contour>
  </outline>
</glyph>
<glyph name="dieresis" format="1">
  <advance width="600"/>
  <unicode hex="00A8"/>
  <outline>
    <contour>
      <point x="349" y="632" type="curve"/>
      <point x="372" y="721" type="line" smooth="yes"/>
      <point x="381" y="757"/>
      <point x="344" y="765"/>
      <point x="305" y="765" type="curve" smooth="yes"/>
      <point x="289" y="765"/>
      <point x="269" y="764"/>
      <point x="252" y="762" type="curve"/>
      <point x="230" y="674" type="line" smooth="yes"/>
      <point x="221" y="637"/>
      <point x="257" y="628"/>
      <point x="296" y="628" type="curve" smooth="yes"/>
      <point x="312" y="628"/>
      <point x="332" y="629"/>
    </contour>
    <contour>
      <point x="563" y="632" type="curve"/>
      <point x="585" y="721" type="line" smooth="yes"/>
      <point x="594" y="757"/>
      <point x="558" y="765"/>
      <point x="518" y="765" type="curve" smooth="yes"/>
      <point x="502" y="765"/>
      <point x="482" y="764"/>
      <point x="465" y="762" type="curve"/>
      <point x="443" y="674" type="line" smooth="yes"/>
      <point x="434" y="637"/>
      <point x="471" y="628"/>
      <point x="509" y="628" type="curve" smooth="yes"/>
      <point x="525" y="628"/>
      <point x="545" y="629"/>
    </contour>
  </outline>
</glyph>
